<svg xmlns="http://www.w3.org/2000/svg" viewBox="0 0 24 24" fill="currentColor">
  <path d="M16.74 14.56c-.27-.14-1.6-.79-1.85-.88-.25-.09-.43-.14-.6.14-.17.27-.69.88-.84 1.05-.15.17-.31.19-.58.05-.27-.14-1.14-.42-2.17-1.34-.8-.72-1.35-1.59-1.51-1.86-.16-.27-.02-.42.12-.56.12-.12.27-.31.41-.46.14-.15.18-.26.27-.43.09-.17.05-.32-.02-.46-.07-.14-.62-1.55-.84-2.12-.22-.57-.45-.49-.61-.5h-.52c-.18 0-.46.07-.7.34-.24.27-.94.92-.94 2.26 0 1.34.96 2.63 1.1 2.81.14.18 1.93 2.92 4.67 4.11.65.28 1.16.45 1.56.58.65.2 1.26.17 1.73.11.53-.08 1.6-.65 1.83-1.28.23-.63.23-1.17.16-1.28-.07-.11-.26-.17-.53-.3Z" />
  <path d="M20.52 3.48a9.83 9.83 0 0 0-14.17 12.84L5 21l4.75-1.35A9.83 9.83 0 0 0 20.52 3.48ZM12.04 17.73c-1.57 0-3.11-.41-4.46-1.17l-.32-.18L4.2 17l.72-3.26-.2-.33A7.86 7.86 0 1 1 12.04 17.73Z" />
</svg>
