<svg xmlns="http://www.w3.org/2000/svg" xmlns:xlink="http://www.w3.org/1999/xlink" width="1920" zoomAndPan="magnify" viewBox="0 0 1440 809.999993" height="1080" preserveAspectRatio="xMidYMid meet" version="1.0"><defs><clipPath id="e48190d33e"><path d="M 628.5 253.472656 L 810 253.472656 L 810 255 L 628.5 255 Z M 628.5 253.472656 " clip-rule="nonzero"/></clipPath><clipPath id="1416e8b303"><path d="M 649 295 L 786 295 L 786 296.972656 L 649 296.972656 Z M 649 295 " clip-rule="nonzero"/></clipPath><clipPath id="5f311f534f"><path d="M 742 549.503906 L 744 549.503906 L 744 552 L 742 552 Z M 742 549.503906 " clip-rule="nonzero"/></clipPath><clipPath id="9dfbeca6b5"><path d="M 725 553 L 728 553 L 728 555.503906 L 725 555.503906 Z M 725 553 " clip-rule="nonzero"/></clipPath><clipPath id="6931b58cb8"><path d="M 719.382812 549.503906 L 744.882812 549.503906 L 744.882812 550 L 719.382812 550 Z M 719.382812 549.503906 " clip-rule="nonzero"/></clipPath><clipPath id="05a526c5f4"><path d="M 722 555 L 742 555 L 742 555.503906 L 722 555.503906 Z M 722 555 " clip-rule="nonzero"/></clipPath></defs><path fill="#eab750" d="M 655.1875 259.570312 C 655.097656 259.492188 652.964844 257.699219 650.96875 258.785156 C 650.117188 259.25 649.324219 260.234375 648.484375 261.277344 C 647.515625 262.484375 646.511719 263.738281 645.503906 264.027344 C 643.386719 264.632812 640.703125 266.949219 640.59375 267.046875 C 640.464844 267.160156 640.410156 267.332031 640.453125 267.496094 C 640.496094 267.660156 640.628906 267.78125 640.796875 267.8125 C 641.148438 267.882812 642.9375 268.214844 644.789062 268.328125 L 644.980469 271.152344 C 645 271.386719 645.1875 271.5625 645.417969 271.5625 L 646.816406 271.5625 C 647.058594 271.5625 647.25 271.363281 647.25 271.125 C 647.25 270.882812 647.054688 270.683594 646.816406 270.683594 L 645.824219 270.683594 L 645.667969 268.367188 C 645.769531 268.367188 645.871094 268.375 645.972656 268.375 C 646.503906 268.375 646.996094 268.335938 647.453125 268.273438 L 647.648438 271.15625 C 647.667969 271.390625 647.855469 271.566406 648.085938 271.566406 L 649.484375 271.566406 C 649.726562 271.566406 649.921875 271.367188 649.921875 271.128906 C 649.921875 270.886719 649.722656 270.691406 649.484375 270.691406 L 648.492188 270.691406 L 648.3125 268.074219 C 648.578125 267.980469 648.816406 267.867188 648.980469 267.71875 C 649.976562 266.828125 651.125 264.25 651.957031 262.371094 C 652.277344 261.65625 652.636719 260.851562 652.746094 260.710938 C 652.90625 260.519531 653.933594 260.347656 654.898438 260.347656 C 655.082031 260.347656 655.242188 260.234375 655.308594 260.0625 C 655.378906 259.886719 655.328125 259.691406 655.1875 259.570312 Z M 652.089844 260.128906 C 651.910156 260.339844 651.664062 260.886719 651.167969 262.003906 C 650.410156 263.710938 649.261719 266.285156 648.402344 267.054688 C 647.621094 267.761719 644.324219 267.507812 641.90625 267.117188 C 642.832031 266.398438 644.449219 265.246094 645.75 264.871094 C 647.023438 264.507812 648.113281 263.148438 649.171875 261.832031 C 649.949219 260.855469 650.691406 259.941406 651.390625 259.558594 C 652.097656 259.171875 652.871094 259.316406 653.484375 259.566406 C 652.917969 259.65625 652.351562 259.824219 652.089844 260.128906 Z M 652.089844 260.128906 " fill-opacity="1" fill-rule="nonzero"/><path fill="#eab750" d="M 670.765625 264.480469 L 669.445312 264.480469 C 669.179688 263.964844 668.457031 262.964844 666.75 262.660156 C 664.625 262.289062 657.917969 264.414062 657.628906 264.503906 C 657.398438 264.574219 657.269531 264.824219 657.347656 265.058594 C 657.40625 265.246094 657.578125 265.363281 657.765625 265.363281 C 657.808594 265.363281 657.855469 265.355469 657.898438 265.339844 C 658.011719 265.304688 658.167969 265.253906 658.304688 265.214844 C 658.878906 265.75 660.703125 267.25 663.367188 267.378906 C 663.476562 267.382812 663.582031 267.386719 663.691406 267.386719 C 666.410156 267.386719 668.769531 265.757812 669.308594 265.363281 L 670.769531 265.363281 C 671.011719 265.363281 671.207031 265.164062 671.207031 264.925781 C 671.207031 264.683594 671.007812 264.480469 670.765625 264.480469 Z M 663.410156 266.496094 C 661.503906 266.40625 660.0625 265.496094 659.3125 264.910156 C 660.417969 264.589844 661.789062 264.21875 663.09375 263.933594 C 662.925781 264.523438 662.722656 265.738281 663.808594 265.828125 C 664.949219 265.925781 665.5 264.226562 665.679688 263.507812 C 666.046875 263.484375 666.367188 263.480469 666.597656 263.523438 C 667.835938 263.742188 668.382812 264.398438 668.605469 264.777344 C 667.875 265.28125 665.710938 266.621094 663.410156 266.496094 Z M 663.410156 266.496094 " fill-opacity="1" fill-rule="nonzero"/><path fill="#eab750" d="M 687.558594 259.347656 C 687.101562 259.347656 686.707031 259.628906 686.535156 260.027344 L 676.105469 260.027344 C 675.933594 259.628906 675.539062 259.347656 675.082031 259.347656 C 674.464844 259.347656 673.96875 259.847656 673.96875 260.464844 C 673.96875 261.085938 674.464844 261.582031 675.082031 261.582031 C 675.539062 261.582031 675.933594 261.304688 676.105469 260.902344 L 686.535156 260.902344 C 686.707031 261.304688 687.101562 261.582031 687.558594 261.582031 C 688.175781 261.582031 688.671875 261.085938 688.671875 260.464844 C 688.671875 259.847656 688.171875 259.347656 687.558594 259.347656 Z M 687.558594 259.347656 " fill-opacity="1" fill-rule="nonzero"/><path fill="#eab750" d="M 687.558594 263.878906 C 687.101562 263.878906 686.707031 264.160156 686.535156 264.558594 L 676.105469 264.558594 C 675.933594 264.160156 675.539062 263.878906 675.082031 263.878906 C 674.464844 263.878906 673.96875 264.378906 673.96875 264.996094 C 673.96875 265.617188 674.464844 266.113281 675.082031 266.113281 C 675.539062 266.113281 675.933594 265.835938 676.105469 265.4375 L 686.535156 265.4375 C 686.707031 265.835938 687.101562 266.113281 687.558594 266.113281 C 688.175781 266.113281 688.671875 265.617188 688.671875 264.996094 C 688.671875 264.382812 688.171875 263.878906 687.558594 263.878906 Z M 687.558594 263.878906 " fill-opacity="1" fill-rule="nonzero"/><path fill="#eab750" d="M 687.558594 268.414062 C 687.101562 268.414062 686.707031 268.695312 686.535156 269.09375 L 676.105469 269.09375 C 675.933594 268.695312 675.539062 268.414062 675.082031 268.414062 C 674.464844 268.414062 673.96875 268.914062 673.96875 269.53125 C 673.96875 270.152344 674.464844 270.652344 675.082031 270.652344 C 675.539062 270.652344 675.933594 270.371094 676.105469 269.972656 L 686.535156 269.972656 C 686.707031 270.371094 687.101562 270.652344 687.558594 270.652344 C 688.175781 270.652344 688.671875 270.152344 688.671875 269.53125 C 688.671875 268.917969 688.171875 268.414062 687.558594 268.414062 Z M 687.558594 268.414062 " fill-opacity="1" fill-rule="nonzero"/><path fill="#eab750" d="M 708.691406 262.753906 L 699.675781 262.753906 C 699.636719 262.636719 699.554688 262.542969 699.441406 262.492188 C 697.855469 261.75 694.46875 261.140625 693.054688 264.101562 C 692.386719 265.5 692.308594 266.5625 692.820312 267.265625 C 693.238281 267.835938 693.988281 268.117188 695.0625 268.117188 C 695.414062 268.117188 695.792969 268.089844 696.214844 268.027344 C 698.066406 267.761719 699.339844 264.679688 699.71875 263.632812 L 708.683594 263.632812 C 708.929688 263.632812 709.121094 263.4375 709.121094 263.195312 C 709.125 262.949219 708.929688 262.753906 708.691406 262.753906 Z M 696.089844 267.15625 C 694.769531 267.339844 693.863281 267.199219 693.527344 266.742188 C 693.222656 266.328125 693.332031 265.542969 693.839844 264.480469 C 694.488281 263.125 695.625 262.757812 696.679688 262.757812 C 697.265625 262.757812 697.828125 262.875 698.261719 262.996094 L 695.089844 264.992188 C 694.886719 265.121094 694.824219 265.394531 694.953125 265.597656 C 695.082031 265.804688 695.355469 265.867188 695.558594 265.738281 L 698.738281 263.738281 C 698.222656 264.996094 697.1875 266.996094 696.089844 267.15625 Z M 696.089844 267.15625 " fill-opacity="1" fill-rule="nonzero"/><path fill="#eab750" d="M 727.003906 258.09375 L 726.839844 258.140625 C 723.707031 259.078125 721.121094 259.921875 719.0625 260.683594 L 719.0625 258.695312 C 719.296875 258.660156 719.5625 258.625 719.871094 258.582031 C 720.15625 258.542969 720.351562 258.28125 720.308594 257.996094 C 720.269531 257.714844 719.992188 257.535156 719.730469 257.554688 C 719.730469 257.554688 717.597656 257.851562 717.367188 257.871094 C 717.09375 257.886719 716.878906 258.113281 716.878906 258.390625 C 716.878906 258.671875 717.109375 258.90625 717.390625 258.90625 C 717.417969 258.90625 717.46875 258.90625 718.035156 258.828125 L 718.035156 261.074219 C 715.058594 262.234375 713.402344 263.167969 713.1875 263.859375 C 713.105469 264.128906 713.152344 264.394531 713.328125 264.613281 C 714.132812 265.621094 715.15625 265.835938 715.878906 265.835938 C 716.382812 265.835938 716.734375 265.738281 716.765625 265.722656 C 717.042969 265.640625 717.195312 265.359375 717.113281 265.082031 C 717.03125 264.8125 716.746094 264.644531 716.476562 264.734375 C 716.464844 264.734375 715.152344 265.109375 714.226562 264.085938 C 714.539062 263.714844 715.804688 263.058594 718.035156 262.179688 L 718.035156 270.007812 C 718.035156 270.289062 718.265625 270.523438 718.550781 270.523438 L 726.261719 270.523438 C 726.546875 270.523438 726.777344 270.289062 726.777344 270.007812 C 726.777344 269.722656 726.546875 269.488281 726.261719 269.488281 L 721.957031 269.488281 L 721.957031 263.488281 C 721.957031 263.203125 721.726562 262.972656 721.445312 262.972656 C 721.160156 262.972656 720.929688 263.203125 720.929688 263.488281 L 720.929688 269.488281 L 719.0625 269.488281 L 719.0625 261.792969 C 721.105469 261.03125 723.761719 260.140625 727.136719 259.128906 L 727.324219 259.074219 C 727.59375 258.980469 727.734375 258.695312 727.648438 258.421875 C 727.558594 258.15625 727.277344 258.011719 727.003906 258.09375 Z M 727.003906 258.09375 " fill-opacity="1" fill-rule="nonzero"/><path fill="#eab750" d="M 745.988281 262.253906 C 745.816406 262.085938 745.539062 262.089844 745.367188 262.261719 L 744.636719 263.019531 C 744.21875 262.097656 743.304688 261.554688 743.253906 261.523438 C 743.042969 261.402344 742.777344 261.476562 742.65625 261.6875 C 742.539062 261.898438 742.609375 262.164062 742.820312 262.285156 C 742.832031 262.292969 743.90625 262.933594 743.964844 263.847656 C 743.890625 264.101562 743.585938 265.035156 742.851562 265.394531 C 742.386719 265.609375 741.152344 265.128906 740.25 264.777344 C 739.417969 264.457031 738.699219 264.175781 738.164062 264.175781 C 737.554688 264.175781 736.871094 264.519531 736.144531 264.886719 C 735.371094 265.273438 734.5 265.714844 733.726562 265.714844 C 732.339844 265.714844 731.316406 264.617188 731.308594 264.609375 C 731.144531 264.429688 730.867188 264.421875 730.6875 264.585938 C 730.507812 264.746094 730.5 265.027344 730.660156 265.203125 C 730.710938 265.257812 731.949219 266.59375 733.726562 266.59375 C 734.707031 266.59375 735.679688 266.101562 736.535156 265.671875 C 737.167969 265.355469 737.761719 265.054688 738.164062 265.054688 C 738.539062 265.054688 739.242188 265.328125 739.933594 265.597656 C 741.164062 266.078125 742.433594 266.574219 743.230469 266.183594 C 744.277344 265.679688 744.691406 264.5 744.808594 264.101562 L 746.007812 262.863281 C 746.167969 262.707031 746.164062 262.425781 745.988281 262.253906 Z M 745.988281 262.253906 " fill-opacity="1" fill-rule="nonzero"/><path fill="#eab750" d="M 752.132812 258.878906 C 751.78125 258.878906 751.496094 259.191406 751.496094 259.578125 L 751.496094 268.714844 C 751.496094 269.101562 751.78125 269.417969 752.132812 269.417969 C 752.480469 269.417969 752.765625 269.101562 752.765625 268.714844 L 752.765625 259.585938 C 752.765625 259.195312 752.480469 258.878906 752.132812 258.878906 Z M 752.132812 258.878906 " fill-opacity="1" fill-rule="nonzero"/><path fill="#eab750" d="M 766.398438 258.878906 L 760.171875 258.878906 C 759.820312 258.878906 759.535156 259.191406 759.535156 259.578125 L 759.535156 268.714844 C 759.535156 269.101562 759.820312 269.417969 760.171875 269.417969 C 760.519531 269.417969 760.804688 269.101562 760.804688 268.714844 L 760.804688 260.285156 L 765.761719 260.285156 L 765.761719 268.714844 C 765.761719 269.101562 766.046875 269.417969 766.398438 269.417969 C 766.75 269.417969 767.03125 269.101562 767.03125 268.714844 L 767.03125 259.585938 C 767.03125 259.195312 766.75 258.878906 766.398438 258.878906 Z M 766.398438 258.878906 " fill-opacity="1" fill-rule="nonzero"/><path fill="#eab750" d="M 783.441406 257.46875 C 782.886719 257.171875 781.769531 256.859375 781.113281 257.554688 C 780.933594 257.742188 780.851562 257.984375 780.878906 258.25 C 780.925781 258.753906 781.375 259.292969 781.785156 259.6875 C 775.476562 261.1875 772.15625 266.816406 772.015625 267.0625 C 771.9375 267.199219 771.9375 267.367188 772.015625 267.503906 C 772.09375 267.636719 772.238281 267.722656 772.398438 267.722656 L 772.402344 267.722656 C 772.496094 267.722656 773.820312 267.707031 775.285156 267.589844 L 775.460938 270.222656 C 775.476562 270.453125 775.664062 270.632812 775.898438 270.632812 L 777.292969 270.632812 C 777.535156 270.632812 777.730469 270.4375 777.730469 270.195312 C 777.730469 269.953125 777.53125 269.757812 777.292969 269.757812 L 776.308594 269.757812 L 776.15625 267.511719 C 776.796875 267.445312 777.40625 267.347656 777.929688 267.222656 L 778.132812 270.226562 C 778.148438 270.457031 778.339844 270.636719 778.570312 270.636719 L 779.964844 270.636719 C 780.210938 270.636719 780.402344 270.441406 780.402344 270.199219 C 780.402344 269.957031 780.207031 269.761719 779.964844 269.761719 L 778.980469 269.761719 L 778.789062 266.910156 C 780.695312 265.6875 782.84375 260.671875 783.101562 260.0625 C 783.175781 259.871094 783.117188 259.65625 782.953125 259.535156 C 782.25 259.011719 781.71875 258.359375 781.753906 258.175781 C 782.054688 257.851562 782.800781 258.136719 783.039062 258.261719 C 783.25 258.371094 783.519531 258.289062 783.632812 258.074219 C 783.738281 257.847656 783.65625 257.582031 783.441406 257.46875 Z M 778.074219 266.273438 C 776.800781 266.652344 774.460938 266.777344 773.21875 266.820312 C 774.296875 265.300781 777.265625 261.699219 781.910156 260.558594 C 780.851562 262.890625 779.148438 265.960938 778.074219 266.273438 Z M 778.074219 266.273438 " fill-opacity="1" fill-rule="nonzero"/><path fill="#eab750" d="M 799.558594 268.683594 C 799.382812 268.578125 799.175781 268.605469 799.0625 268.78125 C 799.054688 268.789062 798.789062 269.015625 797.34375 269.542969 C 796.554688 269.828125 795.875 269.851562 795.382812 269.597656 C 794.945312 269.375 794.636719 268.929688 794.46875 268.28125 C 794.109375 266.921875 794.273438 264.742188 794.3125 264.273438 L 794.335938 264.269531 C 794.539062 264.246094 794.691406 264.058594 794.664062 263.851562 C 794.636719 263.648438 794.445312 263.507812 794.246094 263.53125 L 793.136719 263.664062 C 793.1875 263.503906 793.238281 263.359375 793.285156 263.1875 C 793.523438 262.308594 793.207031 261.359375 792.765625 260.515625 C 793.417969 260.484375 794.332031 260.621094 794.804688 261.515625 C 795.664062 263.144531 795.613281 264.597656 795.609375 264.609375 C 795.601562 264.816406 795.765625 264.988281 795.96875 264.996094 C 795.976562 264.996094 795.984375 264.996094 795.988281 264.996094 C 796.1875 264.996094 796.355469 264.84375 796.363281 264.640625 C 796.367188 264.570312 796.429688 262.980469 795.472656 261.167969 C 794.785156 259.855469 793.371094 259.679688 792.363281 259.8125 C 792.175781 259.511719 791.984375 259.230469 791.820312 258.992188 C 791.695312 258.808594 791.546875 258.59375 791.480469 258.476562 C 791.660156 258.238281 792.464844 257.738281 792.945312 257.738281 C 792.953125 257.738281 792.953125 257.738281 792.953125 257.738281 C 792.988281 257.855469 792.84375 258.261719 792.65625 258.578125 C 792.546875 258.753906 792.609375 258.980469 792.789062 259.085938 C 792.96875 259.1875 793.199219 259.132812 793.308594 258.957031 C 793.449219 258.71875 793.890625 257.910156 793.628906 257.410156 C 793.519531 257.199219 793.316406 257.070312 793.054688 257.042969 C 792.433594 256.980469 791.554688 257.386719 791.078125 257.8125 C 790.828125 258.039062 790.703125 258.253906 790.703125 258.46875 C 790.703125 258.691406 790.855469 258.914062 791.195312 259.402344 C 791.316406 259.578125 791.457031 259.789062 791.605469 260.015625 C 791.296875 260.203125 790.644531 260.699219 790.300781 261.679688 C 789.875 262.886719 790.085938 264.789062 790.09375 264.867188 C 790.117188 265.058594 790.277344 265.199219 790.46875 265.199219 C 790.480469 265.199219 790.496094 265.199219 790.511719 265.195312 C 790.714844 265.171875 790.867188 264.988281 790.84375 264.785156 C 790.839844 264.769531 790.644531 262.972656 791.015625 261.921875 C 791.316406 261.074219 791.871094 260.722656 791.992188 260.652344 C 792.414062 261.410156 792.753906 262.28125 792.5625 262.984375 C 792.484375 263.265625 792.402344 263.507812 792.320312 263.753906 L 791.890625 263.804688 C 791.683594 263.832031 791.535156 264.015625 791.558594 264.222656 C 791.582031 264.414062 791.742188 264.550781 791.933594 264.550781 C 791.949219 264.550781 791.960938 264.550781 791.980469 264.546875 L 792.046875 264.535156 C 792 264.65625 791.953125 264.796875 791.910156 264.90625 C 791.609375 265.6875 791.355469 266.367188 791.253906 267.207031 C 791.082031 268.632812 791.460938 270.078125 791.476562 270.140625 C 791.519531 270.308594 791.675781 270.417969 791.84375 270.417969 C 791.871094 270.417969 791.90625 270.414062 791.9375 270.40625 C 792.136719 270.355469 792.257812 270.148438 792.207031 269.949219 C 792.203125 269.9375 791.847656 268.582031 792.003906 267.292969 C 792.09375 266.550781 792.339844 265.910156 792.621094 265.167969 C 792.707031 264.941406 792.800781 264.691406 792.890625 264.4375 L 793.558594 264.359375 C 793.503906 265.070312 793.382812 267.085938 793.746094 268.460938 C 793.976562 269.324219 794.410156 269.925781 795.046875 270.246094 C 795.382812 270.417969 795.769531 270.507812 796.191406 270.507812 C 796.628906 270.507812 797.109375 270.414062 797.621094 270.230469 C 799.464844 269.554688 799.625 269.296875 799.675781 269.210938 C 799.773438 269.046875 799.738281 268.789062 799.558594 268.683594 Z M 799.558594 268.683594 " fill-opacity="1" fill-rule="nonzero"/><path fill="#eab750" d="M 689.011719 281.746094 C 688.921875 281.671875 686.785156 279.878906 684.792969 280.960938 C 683.9375 281.425781 683.148438 282.410156 682.308594 283.453125 C 681.339844 284.664062 680.332031 285.914062 679.328125 286.203125 C 677.210938 286.808594 674.523438 289.125 674.414062 289.222656 C 674.285156 289.335938 674.234375 289.507812 674.277344 289.671875 C 674.320312 289.835938 674.453125 289.960938 674.621094 289.988281 C 674.96875 290.058594 676.761719 290.390625 678.609375 290.503906 L 678.804688 293.328125 C 678.820312 293.5625 679.007812 293.738281 679.242188 293.738281 L 680.636719 293.738281 C 680.882812 293.738281 681.074219 293.539062 681.074219 293.300781 C 681.074219 293.058594 680.875 292.863281 680.636719 292.863281 L 679.648438 292.863281 L 679.488281 290.542969 C 679.59375 290.542969 679.691406 290.550781 679.792969 290.550781 C 680.324219 290.550781 680.816406 290.515625 681.273438 290.449219 L 681.472656 293.335938 C 681.488281 293.566406 681.675781 293.742188 681.910156 293.742188 L 683.304688 293.742188 C 683.550781 293.742188 683.742188 293.546875 683.742188 293.304688 C 683.742188 293.0625 683.546875 292.867188 683.304688 292.867188 L 682.316406 292.867188 L 682.136719 290.25 C 682.402344 290.15625 682.636719 290.046875 682.804688 289.894531 C 683.796875 289.003906 684.945312 286.425781 685.78125 284.546875 C 686.097656 283.832031 686.457031 283.027344 686.570312 282.886719 C 686.726562 282.699219 687.753906 282.527344 688.71875 282.527344 C 688.902344 282.527344 689.066406 282.410156 689.128906 282.238281 C 689.203125 282.0625 689.152344 281.867188 689.011719 281.746094 Z M 685.914062 282.3125 C 685.734375 282.519531 685.484375 283.066406 684.988281 284.183594 C 684.230469 285.890625 683.082031 288.46875 682.230469 289.238281 C 681.445312 289.941406 678.148438 289.6875 675.734375 289.296875 C 676.65625 288.578125 678.277344 287.425781 679.574219 287.054688 C 680.851562 286.6875 681.9375 285.328125 682.996094 284.011719 C 683.777344 283.039062 684.515625 282.121094 685.214844 281.738281 C 685.921875 281.351562 686.695312 281.5 687.308594 281.746094 C 686.738281 281.835938 686.175781 282.003906 685.914062 282.3125 Z M 685.914062 282.3125 " fill-opacity="1" fill-rule="nonzero"/><path fill="#eab750" d="M 784.875 285.808594 L 783.554688 285.808594 C 783.289062 285.292969 782.566406 284.292969 780.859375 283.988281 C 778.730469 283.617188 772.023438 285.742188 771.738281 285.832031 C 771.507812 285.90625 771.378906 286.15625 771.457031 286.386719 C 771.515625 286.574219 771.6875 286.691406 771.875 286.691406 C 771.917969 286.691406 771.964844 286.683594 772.007812 286.671875 C 772.121094 286.636719 772.277344 286.585938 772.414062 286.546875 C 772.988281 287.078125 774.8125 288.578125 777.476562 288.707031 C 777.585938 288.710938 777.691406 288.71875 777.796875 288.71875 C 780.519531 288.71875 782.878906 287.085938 783.417969 286.691406 L 784.878906 286.691406 C 785.121094 286.691406 785.316406 286.492188 785.316406 286.253906 C 785.308594 286.007812 785.117188 285.808594 784.875 285.808594 Z M 777.519531 287.828125 C 775.613281 287.738281 774.171875 286.824219 773.421875 286.242188 C 774.527344 285.917969 775.898438 285.546875 777.203125 285.265625 C 777.035156 285.851562 776.832031 287.066406 777.917969 287.15625 C 779.058594 287.253906 779.609375 285.558594 779.789062 284.839844 C 780.152344 284.8125 780.476562 284.808594 780.707031 284.851562 C 781.945312 285.070312 782.492188 285.730469 782.714844 286.105469 C 781.984375 286.609375 779.820312 287.945312 777.519531 287.828125 Z M 777.519531 287.828125 " fill-opacity="1" fill-rule="nonzero"/><path fill="#eab750" d="M 707.855469 284.929688 L 698.839844 284.929688 C 698.800781 284.8125 698.71875 284.71875 698.609375 284.667969 C 697.019531 283.925781 693.636719 283.316406 692.21875 286.273438 C 691.550781 287.671875 691.472656 288.734375 691.988281 289.4375 C 692.402344 290.007812 693.152344 290.289062 694.226562 290.289062 C 694.578125 290.289062 694.957031 290.261719 695.378906 290.199219 C 697.234375 289.933594 698.503906 286.851562 698.882812 285.804688 L 707.851562 285.804688 C 708.09375 285.804688 708.289062 285.609375 708.289062 285.367188 C 708.292969 285.125 708.09375 284.929688 707.855469 284.929688 Z M 695.253906 289.335938 C 693.933594 289.519531 693.027344 289.378906 692.691406 288.921875 C 692.390625 288.511719 692.496094 287.722656 693.003906 286.660156 C 693.652344 285.308594 694.792969 284.9375 695.84375 284.9375 C 696.433594 284.9375 696.992188 285.054688 697.425781 285.179688 L 694.257812 287.171875 C 694.050781 287.300781 693.992188 287.574219 694.121094 287.78125 C 694.246094 287.984375 694.523438 288.046875 694.722656 287.917969 L 697.902344 285.917969 C 697.386719 287.171875 696.355469 289.171875 695.253906 289.335938 Z M 695.253906 289.335938 " fill-opacity="1" fill-rule="nonzero"/><path fill="#eab750" d="M 668.804688 280.273438 L 668.640625 280.320312 C 665.503906 281.257812 662.921875 282.105469 660.863281 282.867188 L 660.863281 280.875 C 661.097656 280.839844 661.363281 280.804688 661.671875 280.761719 C 661.953125 280.722656 662.152344 280.460938 662.109375 280.179688 C 662.070312 279.894531 661.792969 279.714844 661.53125 279.734375 C 661.53125 279.734375 659.398438 280.03125 659.167969 280.054688 C 658.894531 280.066406 658.679688 280.292969 658.679688 280.570312 C 658.679688 280.851562 658.910156 281.085938 659.191406 281.085938 C 659.21875 281.085938 659.269531 281.085938 659.835938 281.007812 L 659.835938 283.257812 C 656.859375 284.417969 655.207031 285.351562 654.992188 286.039062 C 654.910156 286.308594 654.957031 286.574219 655.132812 286.796875 C 655.9375 287.800781 656.960938 288.015625 657.683594 288.015625 C 658.1875 288.015625 658.539062 287.917969 658.570312 287.902344 C 658.84375 287.824219 659 287.539062 658.917969 287.261719 C 658.835938 286.992188 658.550781 286.824219 658.28125 286.914062 C 658.265625 286.914062 656.957031 287.289062 656.03125 286.265625 C 656.34375 285.894531 657.609375 285.238281 659.839844 284.363281 L 659.839844 292.183594 C 659.839844 292.464844 660.070312 292.699219 660.351562 292.699219 L 668.066406 292.699219 C 668.347656 292.699219 668.582031 292.464844 668.582031 292.183594 C 668.582031 291.898438 668.347656 291.667969 668.066406 291.667969 L 663.757812 291.667969 L 663.757812 285.667969 C 663.757812 285.386719 663.527344 285.152344 663.242188 285.152344 C 662.960938 285.152344 662.730469 285.386719 662.730469 285.667969 L 662.730469 291.671875 L 660.867188 291.671875 L 660.867188 283.972656 C 662.910156 283.214844 665.566406 282.320312 668.941406 281.308594 L 669.128906 281.253906 C 669.398438 281.164062 669.539062 280.875 669.453125 280.605469 C 669.363281 280.335938 669.082031 280.1875 668.804688 280.273438 Z M 668.804688 280.273438 " fill-opacity="1" fill-rule="nonzero"/><path fill="#eab750" d="M 751.300781 281.058594 C 750.949219 281.058594 750.667969 281.375 750.667969 281.761719 L 750.667969 290.890625 C 750.667969 291.277344 750.949219 291.59375 751.300781 291.59375 C 751.652344 291.59375 751.933594 291.277344 751.933594 290.890625 L 751.933594 281.761719 C 751.933594 281.375 751.648438 281.058594 751.300781 281.058594 Z M 751.300781 281.058594 " fill-opacity="1" fill-rule="nonzero"/><path fill="#eab750" d="M 765.5625 281.058594 L 759.335938 281.058594 C 758.984375 281.058594 758.699219 281.375 758.699219 281.761719 L 758.699219 290.890625 C 758.699219 291.277344 758.984375 291.59375 759.335938 291.59375 C 759.6875 291.59375 759.96875 291.277344 759.96875 290.890625 L 759.96875 282.460938 L 764.929688 282.460938 L 764.929688 290.890625 C 764.929688 291.277344 765.210938 291.59375 765.5625 291.59375 C 765.914062 291.59375 766.195312 291.277344 766.195312 290.890625 L 766.195312 281.761719 C 766.195312 281.375 765.914062 281.058594 765.5625 281.058594 Z M 765.5625 281.058594 " fill-opacity="1" fill-rule="nonzero"/><path fill="#eab750" d="M 726.625 279.644531 C 726.070312 279.347656 724.953125 279.035156 724.296875 279.730469 C 724.117188 279.921875 724.035156 280.160156 724.0625 280.425781 C 724.109375 280.929688 724.558594 281.46875 724.96875 281.863281 C 718.660156 283.363281 715.339844 288.988281 715.199219 289.238281 C 715.121094 289.375 715.121094 289.542969 715.199219 289.679688 C 715.277344 289.8125 715.421875 289.898438 715.582031 289.898438 L 715.585938 289.898438 C 715.679688 289.898438 717.003906 289.882812 718.46875 289.765625 L 718.644531 292.398438 C 718.660156 292.628906 718.847656 292.808594 719.078125 292.808594 L 720.476562 292.808594 C 720.71875 292.808594 720.914062 292.613281 720.914062 292.371094 C 720.914062 292.128906 720.714844 291.933594 720.476562 291.933594 L 719.492188 291.933594 L 719.339844 289.6875 C 719.980469 289.621094 720.585938 289.523438 721.113281 289.402344 L 721.316406 292.402344 C 721.332031 292.632812 721.519531 292.8125 721.753906 292.8125 L 723.148438 292.8125 C 723.394531 292.8125 723.585938 292.617188 723.585938 292.375 C 723.585938 292.136719 723.386719 291.9375 723.148438 291.9375 L 722.164062 291.9375 L 721.972656 289.085938 C 723.875 287.867188 726.027344 282.847656 726.285156 282.238281 C 726.359375 282.046875 726.300781 281.832031 726.136719 281.714844 C 725.429688 281.1875 724.902344 280.535156 724.9375 280.351562 C 725.238281 280.027344 725.984375 280.3125 726.222656 280.4375 C 726.433594 280.546875 726.703125 280.464844 726.816406 280.25 C 726.921875 280.027344 726.839844 279.761719 726.625 279.644531 Z M 721.261719 288.453125 C 719.988281 288.832031 717.648438 288.957031 716.40625 289 C 717.484375 287.484375 720.453125 283.878906 725.097656 282.742188 C 724.035156 285.066406 722.332031 288.136719 721.261719 288.453125 Z M 721.261719 288.453125 " fill-opacity="1" fill-rule="nonzero"/><path fill="#eab750" d="M 742.769531 290.863281 C 742.59375 290.757812 742.382812 290.785156 742.273438 290.960938 C 742.261719 290.96875 741.996094 291.199219 740.554688 291.722656 C 739.761719 292.011719 739.085938 292.03125 738.59375 291.777344 C 738.15625 291.554688 737.847656 291.113281 737.675781 290.460938 C 737.316406 289.105469 737.484375 286.925781 737.523438 286.457031 L 737.542969 286.449219 C 737.75 286.425781 737.898438 286.242188 737.875 286.039062 C 737.847656 285.832031 737.65625 285.695312 737.453125 285.714844 L 736.34375 285.847656 C 736.394531 285.691406 736.445312 285.542969 736.496094 285.371094 C 736.734375 284.496094 736.417969 283.542969 735.976562 282.703125 C 736.628906 282.667969 737.539062 282.804688 738.015625 283.699219 C 738.871094 285.328125 738.824219 286.78125 738.820312 286.796875 C 738.8125 287 738.972656 287.171875 739.179688 287.183594 C 739.183594 287.183594 739.191406 287.183594 739.195312 287.183594 C 739.398438 287.183594 739.566406 287.027344 739.574219 286.824219 C 739.578125 286.757812 739.636719 285.164062 738.683594 283.351562 C 737.992188 282.039062 736.578125 281.863281 735.574219 281.996094 C 735.386719 281.695312 735.191406 281.417969 735.03125 281.175781 C 734.90625 280.996094 734.753906 280.78125 734.691406 280.660156 C 734.871094 280.421875 735.671875 279.925781 736.15625 279.925781 C 736.160156 279.925781 736.160156 279.925781 736.160156 279.925781 C 736.199219 280.039062 736.054688 280.445312 735.863281 280.761719 C 735.757812 280.9375 735.816406 281.167969 735.996094 281.273438 C 736.175781 281.378906 736.410156 281.320312 736.515625 281.144531 C 736.65625 280.910156 737.097656 280.101562 736.835938 279.597656 C 736.730469 279.386719 736.523438 279.257812 736.261719 279.230469 C 735.640625 279.167969 734.765625 279.578125 734.289062 280.003906 C 734.035156 280.230469 733.910156 280.445312 733.910156 280.660156 C 733.910156 280.878906 734.066406 281.101562 734.402344 281.59375 C 734.523438 281.769531 734.664062 281.980469 734.816406 282.203125 C 734.507812 282.390625 733.851562 282.886719 733.507812 283.867188 C 733.085938 285.074219 733.292969 286.980469 733.304688 287.058594 C 733.324219 287.246094 733.488281 287.386719 733.675781 287.386719 C 733.6875 287.386719 733.707031 287.386719 733.71875 287.382812 C 733.925781 287.363281 734.074219 287.175781 734.054688 286.976562 C 734.046875 286.957031 733.855469 285.160156 734.222656 284.113281 C 734.523438 283.265625 735.082031 282.914062 735.199219 282.839844 C 735.625 283.601562 735.964844 284.46875 735.769531 285.175781 C 735.691406 285.453125 735.613281 285.699219 735.53125 285.945312 L 735.097656 285.996094 C 734.890625 286.019531 734.742188 286.207031 734.769531 286.40625 C 734.789062 286.597656 734.953125 286.734375 735.140625 286.734375 C 735.15625 286.734375 735.171875 286.734375 735.1875 286.730469 L 735.257812 286.722656 C 735.210938 286.84375 735.164062 286.980469 735.121094 287.089844 C 734.820312 287.875 734.5625 288.554688 734.464844 289.390625 C 734.292969 290.820312 734.667969 292.265625 734.6875 292.324219 C 734.730469 292.492188 734.882812 292.601562 735.050781 292.601562 C 735.082031 292.601562 735.113281 292.597656 735.144531 292.589844 C 735.347656 292.539062 735.464844 292.332031 735.414062 292.136719 C 735.410156 292.121094 735.054688 290.769531 735.214844 289.476562 C 735.304688 288.734375 735.546875 288.09375 735.832031 287.355469 C 735.917969 287.125 736.011719 286.875 736.101562 286.621094 L 736.769531 286.546875 C 736.710938 287.253906 736.59375 289.269531 736.957031 290.648438 C 737.183594 291.507812 737.621094 292.109375 738.253906 292.429688 C 738.59375 292.601562 738.976562 292.695312 739.402344 292.695312 C 739.839844 292.695312 740.320312 292.597656 740.828125 292.414062 C 742.675781 291.738281 742.832031 291.480469 742.882812 291.394531 C 742.984375 291.222656 742.949219 290.964844 742.769531 290.863281 Z M 742.769531 290.863281 " fill-opacity="1" fill-rule="nonzero"/><g clip-path="url(#e48190d33e)"><path fill="#eab750" d="M 628.5 253.476562 L 810 253.476562 L 810 254.621094 L 628.5 254.621094 Z M 628.5 253.476562 " fill-opacity="1" fill-rule="nonzero"/></g><path fill="#eab750" d="M 638.113281 273.910156 L 800.394531 273.910156 L 800.394531 275.058594 L 638.113281 275.058594 Z M 638.113281 273.910156 " fill-opacity="1" fill-rule="nonzero"/><g clip-path="url(#1416e8b303)"><path fill="#eab750" d="M 649.710938 295.824219 L 785.4375 295.824219 L 785.4375 296.972656 L 649.710938 296.972656 Z M 649.710938 295.824219 " fill-opacity="1" fill-rule="nonzero"/></g><path fill="#eab750" d="M 723.128906 550.34375 C 723.117188 550.335938 722.820312 550.085938 722.539062 550.238281 C 722.417969 550.300781 722.308594 550.4375 722.1875 550.582031 C 722.054688 550.746094 721.910156 550.917969 721.769531 550.960938 C 721.472656 551.042969 721.09375 551.363281 721.078125 551.375 C 721.0625 551.390625 721.054688 551.414062 721.0625 551.4375 C 721.066406 551.460938 721.085938 551.476562 721.109375 551.480469 C 721.160156 551.492188 721.410156 551.535156 721.667969 551.554688 L 721.695312 551.941406 C 721.699219 551.976562 721.726562 552 721.757812 552 L 721.953125 552 C 721.988281 552 722.015625 551.972656 722.015625 551.9375 C 722.015625 551.90625 721.988281 551.878906 721.953125 551.878906 L 721.816406 551.878906 L 721.792969 551.558594 C 721.808594 551.558594 721.820312 551.558594 721.835938 551.558594 C 721.910156 551.558594 721.980469 551.554688 722.042969 551.546875 L 722.070312 551.941406 C 722.074219 551.976562 722.101562 552 722.132812 552 L 722.328125 552 C 722.363281 552 722.390625 551.972656 722.390625 551.9375 C 722.390625 551.90625 722.363281 551.878906 722.328125 551.878906 L 722.191406 551.878906 L 722.164062 551.519531 C 722.203125 551.503906 722.234375 551.488281 722.257812 551.46875 C 722.398438 551.347656 722.558594 550.992188 722.675781 550.730469 C 722.722656 550.632812 722.773438 550.523438 722.789062 550.503906 C 722.808594 550.476562 722.953125 550.453125 723.089844 550.453125 C 723.117188 550.453125 723.136719 550.4375 723.148438 550.414062 C 723.15625 550.390625 723.152344 550.363281 723.128906 550.34375 Z M 722.695312 550.421875 C 722.671875 550.453125 722.636719 550.527344 722.566406 550.679688 C 722.460938 550.917969 722.296875 551.273438 722.175781 551.378906 C 722.066406 551.476562 721.605469 551.441406 721.265625 551.386719 C 721.394531 551.285156 721.621094 551.128906 721.804688 551.078125 C 721.984375 551.027344 722.136719 550.839844 722.285156 550.65625 C 722.394531 550.523438 722.5 550.394531 722.597656 550.34375 C 722.695312 550.289062 722.804688 550.308594 722.890625 550.34375 C 722.8125 550.355469 722.730469 550.378906 722.695312 550.421875 Z M 722.695312 550.421875 " fill-opacity="1" fill-rule="nonzero"/><path fill="#eab750" d="M 725.320312 551.023438 L 725.132812 551.023438 C 725.097656 550.953125 724.996094 550.8125 724.753906 550.769531 C 724.457031 550.71875 723.515625 551.011719 723.472656 551.027344 C 723.441406 551.035156 723.421875 551.070312 723.433594 551.101562 C 723.441406 551.128906 723.464844 551.144531 723.492188 551.144531 C 723.5 551.144531 723.503906 551.144531 723.511719 551.140625 C 723.527344 551.136719 723.550781 551.128906 723.570312 551.125 C 723.648438 551.199219 723.90625 551.402344 724.28125 551.421875 C 724.296875 551.421875 724.308594 551.421875 724.324219 551.421875 C 724.707031 551.421875 725.039062 551.199219 725.113281 551.144531 L 725.320312 551.144531 C 725.355469 551.144531 725.382812 551.117188 725.382812 551.082031 C 725.382812 551.050781 725.351562 551.023438 725.320312 551.023438 Z M 724.285156 551.300781 C 724.019531 551.289062 723.816406 551.164062 723.710938 551.082031 C 723.867188 551.039062 724.058594 550.984375 724.242188 550.945312 C 724.21875 551.027344 724.1875 551.195312 724.34375 551.207031 C 724.503906 551.222656 724.578125 550.988281 724.605469 550.886719 C 724.65625 550.886719 724.703125 550.882812 724.734375 550.890625 C 724.90625 550.921875 724.984375 551.011719 725.015625 551.0625 C 724.914062 551.132812 724.609375 551.316406 724.285156 551.300781 Z M 724.285156 551.300781 " fill-opacity="1" fill-rule="nonzero"/><path fill="#eab750" d="M 727.679688 550.316406 C 727.613281 550.316406 727.558594 550.351562 727.535156 550.410156 L 726.070312 550.410156 C 726.046875 550.351562 725.988281 550.316406 725.925781 550.316406 C 725.839844 550.316406 725.769531 550.382812 725.769531 550.46875 C 725.769531 550.554688 725.839844 550.621094 725.925781 550.621094 C 725.988281 550.621094 726.046875 550.585938 726.070312 550.527344 L 727.535156 550.527344 C 727.558594 550.585938 727.613281 550.621094 727.679688 550.621094 C 727.765625 550.621094 727.835938 550.554688 727.835938 550.46875 C 727.835938 550.382812 727.765625 550.316406 727.679688 550.316406 Z M 727.679688 550.316406 " fill-opacity="1" fill-rule="nonzero"/><path fill="#eab750" d="M 727.679688 550.941406 C 727.613281 550.941406 727.558594 550.976562 727.535156 551.03125 L 726.070312 551.03125 C 726.046875 550.976562 725.988281 550.941406 725.925781 550.941406 C 725.839844 550.941406 725.769531 551.007812 725.769531 551.09375 C 725.769531 551.179688 725.839844 551.246094 725.925781 551.246094 C 725.988281 551.246094 726.046875 551.210938 726.070312 551.152344 L 727.535156 551.152344 C 727.558594 551.210938 727.613281 551.246094 727.679688 551.246094 C 727.765625 551.246094 727.835938 551.179688 727.835938 551.09375 C 727.835938 551.007812 727.765625 550.941406 727.679688 550.941406 Z M 727.679688 550.941406 " fill-opacity="1" fill-rule="nonzero"/><path fill="#eab750" d="M 727.679688 551.566406 C 727.613281 551.566406 727.558594 551.601562 727.535156 551.660156 L 726.070312 551.660156 C 726.046875 551.601562 725.988281 551.566406 725.925781 551.566406 C 725.839844 551.566406 725.769531 551.632812 725.769531 551.71875 C 725.769531 551.804688 725.839844 551.875 725.925781 551.875 C 725.988281 551.875 726.046875 551.835938 726.070312 551.78125 L 727.535156 551.78125 C 727.558594 551.835938 727.613281 551.875 727.679688 551.875 C 727.765625 551.875 727.835938 551.804688 727.835938 551.71875 C 727.835938 551.632812 727.765625 551.566406 727.679688 551.566406 Z M 727.679688 551.566406 " fill-opacity="1" fill-rule="nonzero"/><path fill="#eab750" d="M 730.648438 550.785156 L 729.378906 550.785156 C 729.375 550.769531 729.363281 550.753906 729.347656 550.746094 C 729.125 550.644531 728.648438 550.5625 728.449219 550.96875 C 728.355469 551.164062 728.347656 551.308594 728.417969 551.40625 C 728.476562 551.484375 728.582031 551.523438 728.734375 551.523438 C 728.78125 551.523438 728.835938 551.519531 728.894531 551.511719 C 729.15625 551.476562 729.332031 551.050781 729.386719 550.90625 L 730.648438 550.90625 C 730.679688 550.90625 730.707031 550.878906 730.707031 550.84375 C 730.707031 550.8125 730.679688 550.785156 730.648438 550.785156 Z M 728.878906 551.390625 C 728.691406 551.417969 728.5625 551.398438 728.515625 551.335938 C 728.476562 551.277344 728.488281 551.167969 728.5625 551.023438 C 728.652344 550.835938 728.8125 550.785156 728.960938 550.785156 C 729.042969 550.785156 729.121094 550.800781 729.183594 550.816406 L 728.738281 551.09375 C 728.707031 551.109375 728.699219 551.148438 728.71875 551.175781 C 728.734375 551.207031 728.773438 551.214844 728.800781 551.195312 L 729.25 550.917969 C 729.175781 551.09375 729.03125 551.371094 728.878906 551.390625 Z M 728.878906 551.390625 " fill-opacity="1" fill-rule="nonzero"/><path fill="#eab750" d="M 733.21875 550.140625 L 733.199219 550.148438 C 732.757812 550.277344 732.394531 550.394531 732.105469 550.5 L 732.105469 550.222656 C 732.136719 550.21875 732.175781 550.214844 732.21875 550.210938 C 732.257812 550.203125 732.285156 550.167969 732.28125 550.128906 C 732.273438 550.089844 732.234375 550.0625 732.199219 550.066406 C 732.199219 550.066406 731.898438 550.109375 731.867188 550.109375 C 731.828125 550.113281 731.796875 550.144531 731.796875 550.183594 C 731.796875 550.222656 731.832031 550.253906 731.871094 550.253906 C 731.875 550.253906 731.882812 550.253906 731.960938 550.242188 L 731.960938 550.554688 C 731.542969 550.710938 731.308594 550.839844 731.277344 550.9375 C 731.269531 550.972656 731.273438 551.011719 731.300781 551.039062 C 731.414062 551.179688 731.554688 551.210938 731.65625 551.210938 C 731.726562 551.210938 731.777344 551.195312 731.78125 551.195312 C 731.820312 551.183594 731.84375 551.144531 731.832031 551.105469 C 731.820312 551.066406 731.78125 551.046875 731.742188 551.058594 C 731.738281 551.058594 731.554688 551.109375 731.425781 550.96875 C 731.46875 550.917969 731.648438 550.828125 731.960938 550.707031 L 731.960938 551.785156 C 731.960938 551.824219 731.992188 551.855469 732.03125 551.855469 L 733.117188 551.855469 C 733.15625 551.855469 733.1875 551.824219 733.1875 551.785156 C 733.1875 551.746094 733.15625 551.714844 733.117188 551.714844 L 732.511719 551.714844 L 732.511719 550.886719 C 732.511719 550.847656 732.480469 550.8125 732.4375 550.8125 C 732.398438 550.8125 732.367188 550.847656 732.367188 550.886719 L 732.367188 551.714844 L 732.105469 551.714844 L 732.105469 550.652344 C 732.390625 550.546875 732.765625 550.421875 733.238281 550.285156 L 733.265625 550.277344 C 733.304688 550.265625 733.324219 550.222656 733.3125 550.1875 C 733.296875 550.148438 733.257812 550.128906 733.21875 550.140625 Z M 733.21875 550.140625 " fill-opacity="1" fill-rule="nonzero"/><path fill="#eab750" d="M 735.886719 550.714844 C 735.863281 550.691406 735.824219 550.691406 735.800781 550.714844 L 735.699219 550.820312 C 735.640625 550.695312 735.511719 550.617188 735.503906 550.613281 C 735.472656 550.597656 735.4375 550.609375 735.417969 550.636719 C 735.402344 550.667969 735.414062 550.703125 735.441406 550.71875 C 735.445312 550.71875 735.59375 550.808594 735.601562 550.933594 C 735.59375 550.96875 735.550781 551.097656 735.445312 551.148438 C 735.382812 551.179688 735.207031 551.113281 735.082031 551.0625 C 734.964844 551.019531 734.863281 550.980469 734.789062 550.980469 C 734.703125 550.980469 734.605469 551.027344 734.503906 551.078125 C 734.394531 551.132812 734.273438 551.191406 734.164062 551.191406 C 733.96875 551.191406 733.828125 551.042969 733.824219 551.039062 C 733.800781 551.015625 733.761719 551.015625 733.738281 551.035156 C 733.710938 551.058594 733.710938 551.097656 733.734375 551.121094 C 733.742188 551.128906 733.914062 551.3125 734.164062 551.3125 C 734.304688 551.3125 734.441406 551.246094 734.558594 551.1875 C 734.648438 551.144531 734.730469 551.101562 734.789062 551.101562 C 734.839844 551.101562 734.941406 551.140625 735.035156 551.175781 C 735.210938 551.242188 735.386719 551.3125 735.5 551.257812 C 735.648438 551.1875 735.707031 551.023438 735.722656 550.96875 L 735.890625 550.800781 C 735.914062 550.777344 735.914062 550.738281 735.886719 550.714844 Z M 735.886719 550.714844 " fill-opacity="1" fill-rule="nonzero"/><path fill="#eab750" d="M 736.75 550.25 C 736.703125 550.25 736.660156 550.292969 736.660156 550.347656 L 736.660156 551.605469 C 736.660156 551.660156 736.703125 551.703125 736.75 551.703125 C 736.800781 551.703125 736.839844 551.660156 736.839844 551.605469 L 736.839844 550.347656 C 736.839844 550.292969 736.800781 550.25 736.75 550.25 Z M 736.75 550.25 " fill-opacity="1" fill-rule="nonzero"/><path fill="#eab750" d="M 738.753906 550.25 L 737.878906 550.25 C 737.832031 550.25 737.792969 550.292969 737.792969 550.347656 L 737.792969 551.605469 C 737.792969 551.660156 737.832031 551.703125 737.878906 551.703125 C 737.929688 551.703125 737.96875 551.660156 737.96875 551.605469 L 737.96875 550.445312 L 738.667969 550.445312 L 738.667969 551.605469 C 738.667969 551.660156 738.707031 551.703125 738.753906 551.703125 C 738.804688 551.703125 738.84375 551.660156 738.84375 551.605469 L 738.84375 550.347656 C 738.84375 550.292969 738.804688 550.25 738.753906 550.25 Z M 738.753906 550.25 " fill-opacity="1" fill-rule="nonzero"/><path fill="#eab750" d="M 741.148438 550.054688 C 741.070312 550.015625 740.914062 549.972656 740.824219 550.066406 C 740.796875 550.09375 740.785156 550.125 740.789062 550.164062 C 740.796875 550.234375 740.859375 550.308594 740.917969 550.363281 C 740.03125 550.566406 739.566406 551.34375 739.542969 551.378906 C 739.535156 551.398438 739.535156 551.421875 739.542969 551.4375 C 739.554688 551.457031 739.574219 551.46875 739.597656 551.46875 C 739.613281 551.46875 739.796875 551.46875 740.003906 551.449219 L 740.027344 551.8125 C 740.03125 551.847656 740.058594 551.871094 740.089844 551.871094 L 740.285156 551.871094 C 740.320312 551.871094 740.347656 551.84375 740.347656 551.808594 C 740.347656 551.777344 740.320312 551.75 740.285156 551.75 L 740.148438 551.75 L 740.125 551.441406 C 740.214844 551.429688 740.300781 551.417969 740.375 551.402344 L 740.402344 551.816406 C 740.40625 551.847656 740.433594 551.871094 740.464844 551.871094 L 740.660156 551.871094 C 740.695312 551.871094 740.722656 551.84375 740.722656 551.8125 C 740.722656 551.777344 740.695312 551.75 740.660156 551.75 L 740.523438 551.75 L 740.496094 551.359375 C 740.765625 551.1875 741.066406 550.496094 741.101562 550.414062 C 741.113281 550.386719 741.105469 550.355469 741.082031 550.339844 C 740.980469 550.269531 740.90625 550.179688 740.914062 550.152344 C 740.953125 550.109375 741.058594 550.148438 741.09375 550.164062 C 741.121094 550.179688 741.160156 550.167969 741.175781 550.140625 C 741.191406 550.109375 741.179688 550.070312 741.148438 550.054688 Z M 740.394531 551.269531 C 740.214844 551.320312 739.886719 551.339844 739.714844 551.34375 C 739.863281 551.136719 740.28125 550.640625 740.933594 550.480469 C 740.785156 550.804688 740.546875 551.226562 740.394531 551.269531 Z M 740.394531 551.269531 " fill-opacity="1" fill-rule="nonzero"/><g clip-path="url(#5f311f534f)"><path fill="#eab750" d="M 743.414062 551.601562 C 743.390625 551.585938 743.359375 551.589844 743.34375 551.617188 C 743.34375 551.617188 743.304688 551.648438 743.101562 551.71875 C 742.992188 551.761719 742.898438 551.761719 742.828125 551.726562 C 742.765625 551.695312 742.722656 551.636719 742.699219 551.546875 C 742.648438 551.359375 742.671875 551.058594 742.675781 550.992188 L 742.679688 550.992188 C 742.710938 550.988281 742.730469 550.964844 742.726562 550.9375 C 742.722656 550.90625 742.695312 550.886719 742.667969 550.890625 L 742.511719 550.910156 C 742.519531 550.886719 742.527344 550.867188 742.53125 550.84375 C 742.566406 550.722656 742.523438 550.59375 742.460938 550.476562 C 742.550781 550.472656 742.679688 550.488281 742.746094 550.613281 C 742.867188 550.839844 742.859375 551.039062 742.859375 551.039062 C 742.859375 551.070312 742.882812 551.09375 742.910156 551.09375 C 742.910156 551.09375 742.910156 551.09375 742.914062 551.09375 C 742.941406 551.09375 742.964844 551.074219 742.964844 551.042969 C 742.964844 551.035156 742.972656 550.816406 742.839844 550.566406 C 742.742188 550.382812 742.542969 550.359375 742.402344 550.378906 C 742.375 550.335938 742.351562 550.296875 742.328125 550.265625 C 742.308594 550.242188 742.289062 550.210938 742.28125 550.195312 C 742.304688 550.160156 742.417969 550.09375 742.484375 550.09375 C 742.492188 550.109375 742.472656 550.164062 742.445312 550.207031 C 742.429688 550.234375 742.4375 550.265625 742.464844 550.277344 C 742.488281 550.292969 742.519531 550.285156 742.535156 550.261719 C 742.554688 550.226562 742.617188 550.117188 742.582031 550.046875 C 742.566406 550.019531 742.535156 550 742.5 549.996094 C 742.414062 549.988281 742.289062 550.042969 742.222656 550.101562 C 742.1875 550.132812 742.171875 550.164062 742.171875 550.195312 C 742.171875 550.222656 742.191406 550.253906 742.238281 550.324219 C 742.257812 550.347656 742.277344 550.375 742.296875 550.40625 C 742.253906 550.433594 742.160156 550.5 742.113281 550.636719 C 742.054688 550.800781 742.082031 551.066406 742.085938 551.074219 C 742.085938 551.101562 742.109375 551.121094 742.136719 551.121094 C 742.136719 551.121094 742.140625 551.121094 742.144531 551.121094 C 742.171875 551.117188 742.191406 551.09375 742.191406 551.066406 C 742.1875 551.0625 742.160156 550.8125 742.214844 550.667969 C 742.257812 550.554688 742.335938 550.503906 742.351562 550.496094 C 742.410156 550.597656 742.457031 550.71875 742.429688 550.816406 C 742.421875 550.855469 742.410156 550.886719 742.398438 550.921875 L 742.335938 550.929688 C 742.308594 550.933594 742.285156 550.957031 742.289062 550.988281 C 742.292969 551.011719 742.316406 551.03125 742.34375 551.03125 C 742.34375 551.03125 742.347656 551.03125 742.347656 551.03125 L 742.359375 551.03125 C 742.351562 551.046875 742.34375 551.066406 742.339844 551.082031 C 742.296875 551.1875 742.261719 551.28125 742.246094 551.398438 C 742.222656 551.59375 742.277344 551.792969 742.277344 551.800781 C 742.285156 551.824219 742.304688 551.839844 742.328125 551.839844 C 742.335938 551.839844 742.339844 551.839844 742.34375 551.839844 C 742.371094 551.832031 742.386719 551.804688 742.382812 551.777344 C 742.378906 551.773438 742.332031 551.589844 742.351562 551.410156 C 742.367188 551.308594 742.398438 551.21875 742.441406 551.117188 C 742.453125 551.085938 742.464844 551.050781 742.476562 551.015625 L 742.570312 551.007812 C 742.5625 551.105469 742.546875 551.382812 742.597656 551.570312 C 742.628906 551.691406 742.691406 551.773438 742.78125 551.816406 C 742.828125 551.839844 742.882812 551.855469 742.941406 551.855469 C 743.003906 551.855469 743.070312 551.839844 743.140625 551.816406 C 743.402344 551.722656 743.421875 551.6875 743.429688 551.675781 C 743.445312 551.652344 743.441406 551.617188 743.414062 551.601562 Z M 743.414062 551.601562 " fill-opacity="1" fill-rule="nonzero"/></g><g clip-path="url(#9dfbeca6b5)"><path fill="#eab750" d="M 727.882812 553.402344 C 727.871094 553.394531 727.570312 553.144531 727.289062 553.296875 C 727.171875 553.359375 727.058594 553.496094 726.941406 553.640625 C 726.804688 553.804688 726.664062 553.976562 726.523438 554.019531 C 726.226562 554.101562 725.847656 554.421875 725.832031 554.433594 C 725.8125 554.449219 725.804688 554.472656 725.8125 554.496094 C 725.820312 554.519531 725.835938 554.535156 725.859375 554.539062 C 725.910156 554.550781 726.160156 554.59375 726.421875 554.609375 L 726.449219 555 C 726.449219 555.03125 726.476562 555.058594 726.511719 555.058594 L 726.707031 555.058594 C 726.742188 555.058594 726.765625 555.03125 726.765625 554.996094 C 726.765625 554.964844 726.738281 554.9375 726.707031 554.9375 L 726.566406 554.9375 L 726.542969 554.617188 C 726.558594 554.617188 726.574219 554.617188 726.585938 554.617188 C 726.664062 554.617188 726.730469 554.613281 726.796875 554.601562 L 726.824219 555 C 726.824219 555.035156 726.851562 555.058594 726.886719 555.058594 L 727.082031 555.058594 C 727.117188 555.058594 727.140625 555.03125 727.140625 554.996094 C 727.140625 554.964844 727.113281 554.9375 727.082031 554.9375 L 726.941406 554.9375 L 726.917969 554.578125 C 726.953125 554.5625 726.988281 554.546875 727.011719 554.527344 C 727.148438 554.402344 727.3125 554.046875 727.429688 553.789062 C 727.472656 553.691406 727.523438 553.582031 727.539062 553.5625 C 727.5625 553.535156 727.707031 553.511719 727.839844 553.511719 C 727.867188 553.511719 727.890625 553.496094 727.898438 553.472656 C 727.910156 553.445312 727.902344 553.421875 727.882812 553.402344 Z M 727.449219 553.480469 C 727.421875 553.511719 727.386719 553.585938 727.316406 553.738281 C 727.210938 553.976562 727.050781 554.332031 726.929688 554.4375 C 726.820312 554.535156 726.355469 554.5 726.015625 554.445312 C 726.148438 554.34375 726.375 554.1875 726.558594 554.136719 C 726.734375 554.085938 726.890625 553.898438 727.039062 553.714844 C 727.148438 553.582031 727.25 553.453125 727.347656 553.402344 C 727.449219 553.347656 727.558594 553.367188 727.644531 553.402344 C 727.5625 553.414062 727.484375 553.4375 727.449219 553.480469 Z M 727.449219 553.480469 " fill-opacity="1" fill-rule="nonzero"/></g><path fill="#eab750" d="M 741.351562 553.964844 L 741.164062 553.964844 C 741.128906 553.894531 741.027344 553.753906 740.789062 553.710938 C 740.488281 553.660156 739.546875 553.953125 739.503906 553.964844 C 739.472656 553.976562 739.453125 554.011719 739.464844 554.042969 C 739.472656 554.070312 739.5 554.085938 739.523438 554.085938 C 739.53125 554.085938 739.539062 554.085938 739.542969 554.082031 C 739.558594 554.078125 739.582031 554.070312 739.601562 554.066406 C 739.679688 554.136719 739.9375 554.34375 740.3125 554.363281 C 740.328125 554.363281 740.34375 554.363281 740.355469 554.363281 C 740.738281 554.363281 741.070312 554.140625 741.144531 554.085938 L 741.351562 554.085938 C 741.386719 554.085938 741.414062 554.058594 741.414062 554.023438 C 741.414062 553.992188 741.386719 553.964844 741.351562 553.964844 Z M 740.316406 554.242188 C 740.050781 554.230469 739.847656 554.105469 739.742188 554.023438 C 739.898438 553.980469 740.089844 553.925781 740.273438 553.886719 C 740.25 553.96875 740.222656 554.136719 740.375 554.148438 C 740.535156 554.164062 740.613281 553.929688 740.636719 553.828125 C 740.6875 553.828125 740.734375 553.824219 740.765625 553.832031 C 740.9375 553.863281 741.015625 553.953125 741.046875 554.003906 C 740.945312 554.074219 740.640625 554.257812 740.316406 554.242188 Z M 740.316406 554.242188 " fill-opacity="1" fill-rule="nonzero"/><path fill="#eab750" d="M 730.53125 553.84375 L 729.261719 553.84375 C 729.257812 553.828125 729.246094 553.8125 729.230469 553.804688 C 729.007812 553.703125 728.53125 553.621094 728.332031 554.027344 C 728.238281 554.21875 728.230469 554.367188 728.300781 554.464844 C 728.359375 554.542969 728.464844 554.582031 728.617188 554.582031 C 728.664062 554.582031 728.71875 554.578125 728.777344 554.570312 C 729.039062 554.53125 729.214844 554.105469 729.269531 553.964844 L 730.53125 553.964844 C 730.5625 553.964844 730.589844 553.9375 730.589844 553.902344 C 730.589844 553.871094 730.5625 553.84375 730.53125 553.84375 Z M 728.761719 554.449219 C 728.574219 554.476562 728.445312 554.457031 728.398438 554.394531 C 728.355469 554.335938 728.371094 554.226562 728.445312 554.082031 C 728.535156 553.894531 728.695312 553.84375 728.84375 553.84375 C 728.925781 553.84375 729.003906 553.859375 729.066406 553.875 L 728.621094 554.152344 C 728.589844 554.167969 728.582031 554.207031 728.601562 554.234375 C 728.617188 554.265625 728.65625 554.273438 728.683594 554.253906 L 729.132812 553.980469 C 729.058594 554.152344 728.914062 554.425781 728.761719 554.449219 Z M 728.761719 554.449219 " fill-opacity="1" fill-rule="nonzero"/><path fill="#eab750" d="M 725.042969 553.199219 L 725.019531 553.207031 C 724.582031 553.335938 724.21875 553.453125 723.929688 553.558594 L 723.929688 553.28125 C 723.960938 553.277344 724 553.273438 724.042969 553.269531 C 724.082031 553.261719 724.109375 553.226562 724.101562 553.1875 C 724.097656 553.148438 724.058594 553.121094 724.023438 553.125 C 724.023438 553.125 723.722656 553.167969 723.691406 553.167969 C 723.652344 553.171875 723.621094 553.203125 723.621094 553.242188 C 723.621094 553.28125 723.652344 553.3125 723.691406 553.3125 C 723.695312 553.3125 723.703125 553.3125 723.785156 553.300781 L 723.785156 553.613281 C 723.367188 553.773438 723.132812 553.898438 723.101562 553.996094 C 723.089844 554.03125 723.097656 554.070312 723.121094 554.097656 C 723.234375 554.238281 723.378906 554.269531 723.480469 554.269531 C 723.550781 554.269531 723.601562 554.253906 723.605469 554.253906 C 723.644531 554.242188 723.667969 554.203125 723.65625 554.164062 C 723.644531 554.125 723.601562 554.105469 723.566406 554.117188 C 723.5625 554.117188 723.378906 554.167969 723.25 554.027344 C 723.292969 553.976562 723.46875 553.886719 723.785156 553.765625 L 723.785156 554.84375 C 723.785156 554.882812 723.816406 554.914062 723.855469 554.914062 L 724.941406 554.914062 C 724.980469 554.914062 725.011719 554.882812 725.011719 554.84375 C 725.011719 554.804688 724.980469 554.769531 724.941406 554.769531 L 724.335938 554.769531 L 724.335938 553.945312 C 724.335938 553.90625 724.300781 553.871094 724.261719 553.871094 C 724.222656 553.871094 724.191406 553.90625 724.191406 553.945312 L 724.191406 554.773438 L 723.929688 554.773438 L 723.929688 553.710938 C 724.214844 553.605469 724.589844 553.480469 725.0625 553.34375 L 725.089844 553.335938 C 725.128906 553.324219 725.148438 553.28125 725.136719 553.246094 C 725.121094 553.210938 725.082031 553.1875 725.042969 553.199219 Z M 725.042969 553.199219 " fill-opacity="1" fill-rule="nonzero"/><path fill="#eab750" d="M 736.632812 553.308594 C 736.585938 553.308594 736.546875 553.351562 736.546875 553.40625 L 736.546875 554.664062 C 736.546875 554.71875 736.585938 554.761719 736.632812 554.761719 C 736.683594 554.761719 736.722656 554.71875 736.722656 554.664062 L 736.722656 553.40625 C 736.722656 553.351562 736.683594 553.308594 736.632812 553.308594 Z M 736.632812 553.308594 " fill-opacity="1" fill-rule="nonzero"/><path fill="#eab750" d="M 738.636719 553.308594 L 737.761719 553.308594 C 737.714844 553.308594 737.675781 553.351562 737.675781 553.40625 L 737.675781 554.664062 C 737.675781 554.71875 737.714844 554.761719 737.761719 554.761719 C 737.8125 554.761719 737.851562 554.71875 737.851562 554.664062 L 737.851562 553.5 L 738.546875 553.5 L 738.546875 554.664062 C 738.546875 554.71875 738.589844 554.761719 738.636719 554.761719 C 738.6875 554.761719 738.726562 554.71875 738.726562 554.664062 L 738.726562 553.40625 C 738.726562 553.351562 738.6875 553.308594 738.636719 553.308594 Z M 738.636719 553.308594 " fill-opacity="1" fill-rule="nonzero"/><path fill="#eab750" d="M 733.167969 553.113281 C 733.089844 553.074219 732.933594 553.03125 732.839844 553.125 C 732.816406 553.152344 732.804688 553.183594 732.808594 553.222656 C 732.8125 553.289062 732.875 553.363281 732.933594 553.417969 C 732.046875 553.625 731.582031 554.402344 731.5625 554.4375 C 731.550781 554.457031 731.550781 554.476562 731.5625 554.496094 C 731.574219 554.515625 731.59375 554.527344 731.617188 554.527344 C 731.628906 554.527344 731.816406 554.523438 732.019531 554.507812 L 732.046875 554.871094 C 732.046875 554.902344 732.074219 554.929688 732.105469 554.929688 L 732.304688 554.929688 C 732.335938 554.929688 732.363281 554.902344 732.363281 554.867188 C 732.363281 554.835938 732.335938 554.808594 732.304688 554.808594 L 732.164062 554.808594 L 732.144531 554.5 C 732.234375 554.488281 732.320312 554.476562 732.394531 554.457031 L 732.421875 554.871094 C 732.421875 554.90625 732.449219 554.929688 732.484375 554.929688 L 732.679688 554.929688 C 732.714844 554.929688 732.742188 554.902344 732.742188 554.867188 C 732.742188 554.835938 732.710938 554.808594 732.679688 554.808594 L 732.539062 554.808594 L 732.511719 554.414062 C 732.78125 554.246094 733.082031 553.554688 733.121094 553.472656 C 733.128906 553.445312 733.121094 553.414062 733.097656 553.398438 C 733 553.328125 732.925781 553.234375 732.929688 553.210938 C 732.972656 553.167969 733.078125 553.207031 733.109375 553.222656 C 733.140625 553.238281 733.179688 553.226562 733.195312 553.195312 C 733.210938 553.167969 733.199219 553.128906 733.167969 553.113281 Z M 732.414062 554.328125 C 732.234375 554.378906 731.90625 554.398438 731.730469 554.402344 C 731.882812 554.195312 732.300781 553.699219 732.953125 553.539062 C 732.804688 553.859375 732.5625 554.285156 732.414062 554.328125 Z M 732.414062 554.328125 " fill-opacity="1" fill-rule="nonzero"/><path fill="#eab750" d="M 735.433594 554.660156 C 735.410156 554.644531 735.382812 554.648438 735.367188 554.675781 C 735.363281 554.675781 735.328125 554.707031 735.125 554.777344 C 735.011719 554.820312 734.917969 554.820312 734.847656 554.785156 C 734.789062 554.753906 734.742188 554.695312 734.71875 554.605469 C 734.667969 554.417969 734.691406 554.117188 734.699219 554.050781 L 734.703125 554.050781 C 734.730469 554.046875 734.75 554.023438 734.746094 553.996094 C 734.742188 553.964844 734.71875 553.949219 734.6875 553.949219 L 734.53125 553.96875 C 734.539062 553.945312 734.546875 553.925781 734.554688 553.902344 C 734.585938 553.78125 734.542969 553.652344 734.480469 553.535156 C 734.574219 553.53125 734.699219 553.550781 734.765625 553.671875 C 734.886719 553.898438 734.882812 554.097656 734.878906 554.097656 C 734.878906 554.128906 734.902344 554.152344 734.929688 554.152344 C 734.933594 554.152344 734.933594 554.152344 734.933594 554.152344 C 734.960938 554.152344 734.984375 554.132812 734.988281 554.105469 C 734.988281 554.09375 734.996094 553.875 734.863281 553.625 C 734.765625 553.445312 734.566406 553.417969 734.425781 553.4375 C 734.398438 553.394531 734.371094 553.359375 734.347656 553.324219 C 734.332031 553.300781 734.308594 553.269531 734.300781 553.253906 C 734.324219 553.222656 734.4375 553.152344 734.507812 553.152344 C 734.511719 553.167969 734.492188 553.222656 734.464844 553.269531 C 734.449219 553.292969 734.457031 553.324219 734.484375 553.339844 C 734.507812 553.351562 734.542969 553.34375 734.558594 553.320312 C 734.578125 553.289062 734.640625 553.175781 734.601562 553.105469 C 734.585938 553.078125 734.558594 553.058594 734.519531 553.058594 C 734.433594 553.046875 734.3125 553.105469 734.242188 553.164062 C 734.207031 553.195312 734.191406 553.222656 734.191406 553.253906 C 734.191406 553.285156 734.210938 553.316406 734.261719 553.382812 C 734.277344 553.40625 734.296875 553.433594 734.316406 553.464844 C 734.273438 553.492188 734.183594 553.5625 734.132812 553.695312 C 734.074219 553.863281 734.105469 554.125 734.105469 554.136719 C 734.109375 554.160156 734.132812 554.179688 734.15625 554.179688 C 734.160156 554.179688 734.164062 554.179688 734.164062 554.179688 C 734.191406 554.179688 734.214844 554.152344 734.210938 554.125 C 734.210938 554.121094 734.183594 553.875 734.234375 553.730469 C 734.277344 553.613281 734.355469 553.5625 734.371094 553.554688 C 734.433594 553.660156 734.480469 553.777344 734.453125 553.875 C 734.441406 553.914062 734.429688 553.949219 734.417969 553.980469 L 734.359375 553.988281 C 734.328125 553.992188 734.308594 554.019531 734.3125 554.046875 C 734.3125 554.070312 734.335938 554.089844 734.363281 554.089844 C 734.367188 554.089844 734.367188 554.089844 734.371094 554.089844 L 734.378906 554.089844 C 734.375 554.105469 734.367188 554.125 734.359375 554.140625 C 734.320312 554.25 734.28125 554.34375 734.269531 554.457031 C 734.246094 554.65625 734.296875 554.855469 734.300781 554.863281 C 734.304688 554.886719 734.328125 554.902344 734.351562 554.902344 C 734.355469 554.902344 734.359375 554.898438 734.363281 554.898438 C 734.394531 554.890625 734.410156 554.863281 734.402344 554.835938 C 734.402344 554.835938 734.351562 554.648438 734.375 554.46875 C 734.386719 554.367188 734.421875 554.277344 734.460938 554.175781 C 734.472656 554.144531 734.484375 554.109375 734.5 554.074219 L 734.59375 554.066406 C 734.585938 554.164062 734.566406 554.441406 734.617188 554.628906 C 734.652344 554.75 734.710938 554.832031 734.800781 554.875 C 734.847656 554.902344 734.902344 554.914062 734.960938 554.914062 C 735.023438 554.914062 735.089844 554.898438 735.164062 554.875 C 735.421875 554.78125 735.445312 554.746094 735.453125 554.734375 C 735.464844 554.710938 735.460938 554.675781 735.433594 554.660156 Z M 735.433594 554.660156 " fill-opacity="1" fill-rule="nonzero"/><g clip-path="url(#6931b58cb8)"><path fill="#eab750" d="M 719.382812 549.503906 L 744.882812 549.503906 L 744.882812 549.664062 L 719.382812 549.664062 Z M 719.382812 549.503906 " fill-opacity="1" fill-rule="nonzero"/></g><path fill="#eab750" d="M 720.730469 552.324219 L 743.53125 552.324219 L 743.53125 552.480469 L 720.730469 552.480469 Z M 720.730469 552.324219 " fill-opacity="1" fill-rule="nonzero"/><g clip-path="url(#05a526c5f4)"><path fill="#eab750" d="M 722.359375 555.34375 L 741.429688 555.34375 L 741.429688 555.503906 L 722.359375 555.503906 Z M 722.359375 555.34375 " fill-opacity="1" fill-rule="nonzero"/></g></svg>