<svg xmlns="http://www.w3.org/2000/svg" xmlns:xlink="http://www.w3.org/1999/xlink" width="1920" zoomAndPan="magnify" viewBox="0 0 1440 809.999993" height="1080" preserveAspectRatio="xMidYMid meet" version="1.0"><defs><clipPath id="a233a504d6"><path d="M 599.496094 210.359375 L 829.746094 210.359375 L 829.746094 212 L 599.496094 212 Z M 599.496094 210.359375 " clip-rule="nonzero"/></clipPath><clipPath id="3c2b8db9b8"><path d="M 626 263 L 799 263 L 799 265.109375 L 626 265.109375 Z M 626 263 " clip-rule="nonzero"/></clipPath><clipPath id="807f834275"><path d="M 609.246094 543.480469 L 839.496094 543.480469 L 839.496094 545 L 609.246094 545 Z M 609.246094 543.480469 " clip-rule="nonzero"/></clipPath><clipPath id="1f6785856c"><path d="M 636 596 L 809 596 L 809 598.230469 L 636 598.230469 Z M 636 596 " clip-rule="nonzero"/></clipPath></defs><path fill="#eab750" d="M 633.351562 218.035156 C 633.238281 217.9375 630.53125 215.683594 628 217.046875 C 626.917969 217.628906 625.914062 218.871094 624.847656 220.183594 C 623.621094 221.703125 622.34375 223.28125 621.066406 223.640625 C 618.382812 224.40625 614.976562 227.320312 614.835938 227.445312 C 614.671875 227.585938 614.605469 227.804688 614.660156 228.007812 C 614.714844 228.214844 614.882812 228.371094 615.09375 228.410156 C 615.542969 228.496094 617.8125 228.914062 620.160156 229.058594 L 620.402344 232.613281 C 620.425781 232.90625 620.664062 233.128906 620.957031 233.128906 L 622.730469 233.128906 C 623.039062 233.128906 623.285156 232.878906 623.285156 232.574219 C 623.285156 232.273438 623.035156 232.023438 622.730469 232.023438 L 621.472656 232.023438 L 621.273438 229.105469 C 621.402344 229.105469 621.535156 229.117188 621.660156 229.117188 C 622.332031 229.117188 622.957031 229.070312 623.539062 228.988281 L 623.789062 232.621094 C 623.808594 232.910156 624.050781 233.132812 624.34375 233.132812 L 626.113281 233.132812 C 626.425781 233.132812 626.667969 232.882812 626.667969 232.582031 C 626.667969 232.277344 626.417969 232.03125 626.113281 232.03125 L 624.859375 232.03125 L 624.632812 228.738281 C 624.96875 228.621094 625.265625 228.480469 625.480469 228.289062 C 626.738281 227.171875 628.195312 223.921875 629.253906 221.558594 C 629.65625 220.660156 630.113281 219.648438 630.253906 219.46875 C 630.457031 219.230469 631.757812 219.015625 632.980469 219.015625 C 633.214844 219.015625 633.421875 218.871094 633.503906 218.652344 C 633.597656 218.429688 633.53125 218.1875 633.351562 218.035156 Z M 629.421875 218.738281 C 629.195312 219.003906 628.878906 219.691406 628.25 221.097656 C 627.289062 223.246094 625.832031 226.488281 624.746094 227.457031 C 623.75 228.34375 619.566406 228.023438 616.503906 227.53125 C 617.675781 226.628906 619.730469 225.179688 621.375 224.707031 C 622.996094 224.25 624.375 222.539062 625.71875 220.882812 C 626.707031 219.652344 627.644531 218.5 628.53125 218.019531 C 629.429688 217.53125 630.410156 217.71875 631.1875 218.03125 C 630.472656 218.144531 629.753906 218.355469 629.421875 218.738281 Z M 629.421875 218.738281 " fill-opacity="1" fill-rule="nonzero"/><path fill="#eab750" d="M 653.113281 224.214844 L 651.4375 224.214844 C 651.101562 223.566406 650.183594 222.304688 648.019531 221.921875 C 645.320312 221.457031 636.8125 224.128906 636.449219 224.242188 C 636.15625 224.335938 635.992188 224.648438 636.089844 224.941406 C 636.164062 225.179688 636.382812 225.324219 636.621094 225.324219 C 636.675781 225.324219 636.734375 225.3125 636.789062 225.296875 C 636.933594 225.253906 637.132812 225.191406 637.308594 225.140625 C 638.035156 225.8125 640.347656 227.699219 643.730469 227.863281 C 643.863281 227.867188 644 227.875 644.136719 227.875 C 647.585938 227.875 650.582031 225.824219 651.265625 225.324219 L 653.117188 225.324219 C 653.425781 225.324219 653.671875 225.074219 653.671875 224.773438 C 653.671875 224.46875 653.421875 224.214844 653.113281 224.214844 Z M 643.78125 226.753906 C 641.367188 226.640625 639.535156 225.492188 638.582031 224.757812 C 639.984375 224.351562 641.722656 223.886719 643.382812 223.527344 C 643.167969 224.269531 642.910156 225.796875 644.289062 225.910156 C 645.734375 226.035156 646.433594 223.898438 646.664062 222.992188 C 647.125 222.960938 647.53125 222.953125 647.824219 223.007812 C 649.394531 223.285156 650.089844 224.113281 650.375 224.589844 C 649.445312 225.222656 646.699219 226.910156 643.78125 226.753906 Z M 643.78125 226.753906 " fill-opacity="1" fill-rule="nonzero"/><path fill="#eab750" d="M 674.414062 217.753906 C 673.835938 217.753906 673.335938 218.105469 673.117188 218.609375 L 659.886719 218.609375 C 659.671875 218.105469 659.171875 217.753906 658.589844 217.753906 C 657.804688 217.753906 657.175781 218.382812 657.175781 219.160156 C 657.175781 219.941406 657.804688 220.570312 658.589844 220.570312 C 659.171875 220.570312 659.671875 220.21875 659.886719 219.714844 L 673.117188 219.714844 C 673.335938 220.21875 673.835938 220.570312 674.414062 220.570312 C 675.199219 220.570312 675.828125 219.941406 675.828125 219.160156 C 675.828125 218.382812 675.191406 217.753906 674.414062 217.753906 Z M 674.414062 217.753906 " fill-opacity="1" fill-rule="nonzero"/><path fill="#eab750" d="M 674.414062 223.457031 C 673.835938 223.457031 673.335938 223.808594 673.117188 224.3125 L 659.886719 224.3125 C 659.671875 223.808594 659.171875 223.457031 658.589844 223.457031 C 657.804688 223.457031 657.175781 224.085938 657.175781 224.863281 C 657.175781 225.644531 657.804688 226.273438 658.589844 226.273438 C 659.171875 226.273438 659.671875 225.921875 659.886719 225.417969 L 673.117188 225.417969 C 673.335938 225.921875 673.835938 226.273438 674.414062 226.273438 C 675.199219 226.273438 675.828125 225.644531 675.828125 224.863281 C 675.828125 224.089844 675.191406 223.457031 674.414062 223.457031 Z M 674.414062 223.457031 " fill-opacity="1" fill-rule="nonzero"/><path fill="#eab750" d="M 674.414062 229.167969 C 673.835938 229.167969 673.335938 229.519531 673.117188 230.023438 L 659.886719 230.023438 C 659.671875 229.519531 659.171875 229.167969 658.589844 229.167969 C 657.804688 229.167969 657.175781 229.792969 657.175781 230.574219 C 657.175781 231.351562 657.804688 231.980469 658.589844 231.980469 C 659.171875 231.980469 659.671875 231.628906 659.886719 231.125 L 673.117188 231.125 C 673.335938 231.628906 673.835938 231.980469 674.414062 231.980469 C 675.199219 231.980469 675.828125 231.351562 675.828125 230.574219 C 675.828125 229.800781 675.191406 229.167969 674.414062 229.167969 Z M 674.414062 229.167969 " fill-opacity="1" fill-rule="nonzero"/><path fill="#eab750" d="M 701.222656 222.039062 L 689.785156 222.039062 C 689.738281 221.894531 689.632812 221.773438 689.492188 221.710938 C 687.476562 220.78125 683.183594 220.011719 681.386719 223.738281 C 680.539062 225.5 680.441406 226.835938 681.09375 227.722656 C 681.621094 228.4375 682.570312 228.792969 683.933594 228.792969 C 684.378906 228.792969 684.863281 228.753906 685.394531 228.679688 C 687.75 228.34375 689.363281 224.464844 689.839844 223.148438 L 701.21875 223.148438 C 701.527344 223.148438 701.773438 222.902344 701.773438 222.597656 C 701.777344 222.289062 701.527344 222.039062 701.222656 222.039062 Z M 685.238281 227.582031 C 683.566406 227.8125 682.414062 227.636719 681.988281 227.0625 C 681.605469 226.542969 681.738281 225.550781 682.386719 224.214844 C 683.207031 222.511719 684.652344 222.046875 685.988281 222.046875 C 686.734375 222.046875 687.445312 222.191406 687.992188 222.347656 L 683.972656 224.859375 C 683.710938 225.023438 683.636719 225.363281 683.800781 225.621094 C 683.960938 225.882812 684.308594 225.957031 684.566406 225.796875 L 688.597656 223.28125 C 687.945312 224.863281 686.628906 227.382812 685.238281 227.582031 Z M 685.238281 227.582031 " fill-opacity="1" fill-rule="nonzero"/><path fill="#eab750" d="M 724.457031 216.175781 L 724.25 216.234375 C 720.273438 217.414062 716.996094 218.480469 714.382812 219.4375 L 714.382812 216.933594 C 714.679688 216.890625 715.019531 216.847656 715.410156 216.792969 C 715.769531 216.742188 716.019531 216.414062 715.964844 216.054688 C 715.914062 215.699219 715.5625 215.472656 715.230469 215.5 C 715.230469 215.5 712.523438 215.871094 712.230469 215.898438 C 711.882812 215.914062 711.613281 216.203125 711.613281 216.546875 C 711.613281 216.90625 711.90625 217.199219 712.265625 217.199219 C 712.296875 217.199219 712.363281 217.199219 713.078125 217.101562 L 713.078125 219.929688 C 709.300781 221.386719 707.199219 222.566406 706.929688 223.429688 C 706.824219 223.773438 706.886719 224.109375 707.109375 224.382812 C 708.128906 225.648438 709.425781 225.921875 710.347656 225.921875 C 710.980469 225.921875 711.425781 225.796875 711.46875 225.78125 C 711.816406 225.675781 712.015625 225.320312 711.910156 224.972656 C 711.808594 224.632812 711.441406 224.421875 711.101562 224.535156 C 711.085938 224.535156 709.421875 225.003906 708.25 223.71875 C 708.644531 223.253906 710.246094 222.425781 713.078125 221.320312 L 713.078125 231.167969 C 713.078125 231.527344 713.371094 231.816406 713.730469 231.816406 L 723.515625 231.816406 C 723.875 231.816406 724.167969 231.527344 724.167969 231.167969 C 724.167969 230.8125 723.875 230.519531 723.515625 230.519531 L 718.054688 230.519531 L 718.054688 222.964844 C 718.054688 222.609375 717.761719 222.316406 717.402344 222.316406 C 717.046875 222.316406 716.75 222.609375 716.75 222.964844 L 716.75 230.519531 L 714.382812 230.519531 L 714.382812 220.832031 C 716.972656 219.875 720.34375 218.75 724.625 217.480469 L 724.863281 217.410156 C 725.207031 217.296875 725.386719 216.933594 725.277344 216.589844 C 725.164062 216.257812 724.804688 216.070312 724.457031 216.175781 Z M 724.457031 216.175781 " fill-opacity="1" fill-rule="nonzero"/><path fill="#eab750" d="M 748.542969 221.414062 C 748.324219 221.203125 747.972656 221.207031 747.753906 221.421875 L 746.824219 222.375 C 746.296875 221.21875 745.136719 220.53125 745.070312 220.492188 C 744.804688 220.339844 744.464844 220.433594 744.3125 220.699219 C 744.164062 220.964844 744.253906 221.300781 744.519531 221.449219 C 744.539062 221.460938 745.902344 222.269531 745.972656 223.421875 C 745.878906 223.738281 745.492188 224.914062 744.558594 225.363281 C 743.972656 225.632812 742.40625 225.03125 741.261719 224.589844 C 740.207031 224.183594 739.292969 223.832031 738.613281 223.832031 C 737.84375 223.832031 736.972656 224.265625 736.050781 224.722656 C 735.074219 225.210938 733.964844 225.769531 732.984375 225.769531 C 731.226562 225.769531 729.925781 224.390625 729.917969 224.378906 C 729.710938 224.152344 729.355469 224.140625 729.128906 224.34375 C 728.898438 224.550781 728.890625 224.902344 729.097656 225.125 C 729.160156 225.195312 730.730469 226.871094 732.984375 226.871094 C 734.230469 226.871094 735.464844 226.253906 736.550781 225.714844 C 737.347656 225.3125 738.105469 224.933594 738.613281 224.933594 C 739.085938 224.933594 739.984375 225.28125 740.859375 225.621094 C 742.417969 226.222656 744.03125 226.851562 745.042969 226.359375 C 746.367188 225.726562 746.894531 224.238281 747.042969 223.738281 L 748.5625 222.179688 C 748.769531 221.980469 748.765625 221.628906 748.542969 221.414062 Z M 748.542969 221.414062 " fill-opacity="1" fill-rule="nonzero"/><path fill="#eab750" d="M 756.332031 217.164062 C 755.886719 217.164062 755.527344 217.558594 755.527344 218.046875 L 755.527344 229.546875 C 755.527344 230.03125 755.886719 230.425781 756.332031 230.425781 C 756.777344 230.425781 757.136719 230.03125 757.136719 229.546875 L 757.136719 218.050781 C 757.136719 217.566406 756.777344 217.164062 756.332031 217.164062 Z M 756.332031 217.164062 " fill-opacity="1" fill-rule="nonzero"/><path fill="#eab750" d="M 774.429688 217.164062 L 766.53125 217.164062 C 766.085938 217.164062 765.726562 217.558594 765.726562 218.046875 L 765.726562 229.546875 C 765.726562 230.03125 766.085938 230.425781 766.53125 230.425781 C 766.976562 230.425781 767.335938 230.03125 767.335938 229.546875 L 767.335938 218.933594 L 773.625 218.933594 L 773.625 229.546875 C 773.625 230.03125 773.984375 230.425781 774.429688 230.425781 C 774.875 230.425781 775.234375 230.03125 775.234375 229.546875 L 775.234375 218.050781 C 775.234375 217.566406 774.875 217.164062 774.429688 217.164062 Z M 774.429688 217.164062 " fill-opacity="1" fill-rule="nonzero"/><path fill="#eab750" d="M 796.054688 215.390625 C 795.347656 215.015625 793.929688 214.621094 793.097656 215.5 C 792.871094 215.738281 792.769531 216.039062 792.800781 216.375 C 792.859375 217.007812 793.429688 217.683594 793.953125 218.183594 C 785.949219 220.070312 781.738281 227.152344 781.558594 227.460938 C 781.460938 227.636719 781.460938 227.847656 781.558594 228.019531 C 781.65625 228.1875 781.84375 228.296875 782.042969 228.296875 L 782.046875 228.296875 C 782.167969 228.296875 783.847656 228.273438 785.703125 228.128906 L 785.925781 231.441406 C 785.949219 231.730469 786.1875 231.960938 786.480469 231.960938 L 788.253906 231.960938 C 788.5625 231.960938 788.808594 231.710938 788.808594 231.40625 C 788.808594 231.105469 788.558594 230.855469 788.253906 230.855469 L 787.003906 230.855469 L 786.8125 228.03125 C 787.621094 227.945312 788.394531 227.824219 789.0625 227.667969 L 789.316406 231.445312 C 789.339844 231.738281 789.578125 231.964844 789.871094 231.964844 L 791.644531 231.964844 C 791.953125 231.964844 792.199219 231.714844 792.199219 231.414062 C 792.199219 231.109375 791.949219 230.859375 791.644531 230.859375 L 790.394531 230.859375 L 790.148438 227.273438 C 792.566406 225.734375 795.292969 219.421875 795.621094 218.652344 C 795.71875 218.414062 795.640625 218.144531 795.4375 217.992188 C 794.539062 217.332031 793.867188 216.511719 793.914062 216.277344 C 794.292969 215.871094 795.242188 216.230469 795.542969 216.386719 C 795.8125 216.527344 796.152344 216.421875 796.292969 216.152344 C 796.429688 215.867188 796.328125 215.53125 796.054688 215.390625 Z M 789.242188 226.472656 C 787.628906 226.949219 784.660156 227.105469 783.085938 227.160156 C 784.449219 225.25 788.21875 220.714844 794.109375 219.28125 C 792.769531 222.214844 790.605469 226.078125 789.242188 226.472656 Z M 789.242188 226.472656 " fill-opacity="1" fill-rule="nonzero"/><path fill="#eab750" d="M 816.5 229.503906 C 816.277344 229.371094 816.011719 229.40625 815.871094 229.625 C 815.859375 229.636719 815.523438 229.925781 813.691406 230.585938 C 812.6875 230.945312 811.828125 230.972656 811.203125 230.65625 C 810.648438 230.375 810.257812 229.816406 810.039062 229 C 809.585938 227.289062 809.796875 224.546875 809.84375 223.957031 L 809.871094 223.949219 C 810.132812 223.917969 810.324219 223.683594 810.289062 223.425781 C 810.257812 223.167969 810.011719 222.992188 809.757812 223.019531 L 808.351562 223.1875 C 808.414062 222.988281 808.480469 222.804688 808.539062 222.585938 C 808.84375 221.484375 808.441406 220.289062 807.882812 219.226562 C 808.710938 219.183594 809.867188 219.355469 810.46875 220.480469 C 811.554688 222.53125 811.496094 224.363281 811.492188 224.378906 C 811.480469 224.636719 811.6875 224.855469 811.949219 224.863281 C 811.953125 224.863281 811.964844 224.863281 811.96875 224.863281 C 812.222656 224.863281 812.4375 224.671875 812.449219 224.414062 C 812.453125 224.328125 812.527344 222.328125 811.316406 220.042969 C 810.441406 218.394531 808.648438 218.171875 807.371094 218.339844 C 807.132812 217.960938 806.890625 217.609375 806.683594 217.304688 C 806.523438 217.078125 806.335938 216.808594 806.253906 216.65625 C 806.480469 216.359375 807.496094 215.730469 808.113281 215.730469 C 808.117188 215.730469 808.117188 215.730469 808.117188 215.730469 C 808.164062 215.878906 807.980469 216.386719 807.742188 216.785156 C 807.605469 217.007812 807.683594 217.296875 807.910156 217.425781 C 808.140625 217.554688 808.433594 217.484375 808.566406 217.261719 C 808.746094 216.964844 809.308594 215.949219 808.976562 215.316406 C 808.839844 215.050781 808.578125 214.886719 808.246094 214.855469 C 807.460938 214.773438 806.347656 215.289062 805.742188 215.824219 C 805.421875 216.109375 805.265625 216.378906 805.265625 216.652344 C 805.265625 216.925781 805.460938 217.207031 805.890625 217.824219 C 806.042969 218.046875 806.222656 218.3125 806.410156 218.59375 C 806.019531 218.832031 805.1875 219.453125 804.753906 220.6875 C 804.214844 222.207031 804.480469 224.605469 804.492188 224.703125 C 804.519531 224.941406 804.726562 225.121094 804.964844 225.121094 C 804.980469 225.121094 805.003906 225.121094 805.019531 225.113281 C 805.28125 225.085938 805.472656 224.855469 805.445312 224.601562 C 805.4375 224.578125 805.1875 222.316406 805.660156 220.996094 C 806.042969 219.929688 806.746094 219.488281 806.898438 219.394531 C 807.4375 220.351562 807.867188 221.445312 807.621094 222.332031 C 807.523438 222.683594 807.421875 222.992188 807.316406 223.300781 L 806.769531 223.367188 C 806.507812 223.398438 806.320312 223.632812 806.351562 223.890625 C 806.378906 224.128906 806.585938 224.300781 806.824219 224.300781 C 806.84375 224.300781 806.863281 224.300781 806.882812 224.296875 L 806.96875 224.285156 C 806.910156 224.4375 806.851562 224.609375 806.796875 224.75 C 806.417969 225.734375 806.089844 226.589844 805.964844 227.644531 C 805.75 229.441406 806.226562 231.261719 806.246094 231.335938 C 806.300781 231.546875 806.496094 231.6875 806.710938 231.6875 C 806.746094 231.6875 806.792969 231.683594 806.828125 231.671875 C 807.085938 231.605469 807.238281 231.347656 807.171875 231.097656 C 807.167969 231.082031 806.714844 229.378906 806.917969 227.753906 C 807.03125 226.820312 807.339844 226.011719 807.699219 225.082031 C 807.808594 224.792969 807.925781 224.480469 808.039062 224.160156 L 808.886719 224.0625 C 808.816406 224.957031 808.664062 227.496094 809.128906 229.226562 C 809.414062 230.308594 809.96875 231.066406 810.773438 231.472656 C 811.203125 231.6875 811.691406 231.800781 812.230469 231.800781 C 812.785156 231.800781 813.394531 231.683594 814.039062 231.449219 C 816.382812 230.601562 816.582031 230.277344 816.648438 230.167969 C 816.773438 229.960938 816.730469 229.636719 816.5 229.503906 Z M 816.5 229.503906 " fill-opacity="1" fill-rule="nonzero"/><path fill="#eab750" d="M 676.257812 245.945312 C 676.144531 245.847656 673.4375 243.59375 670.90625 244.957031 C 669.824219 245.539062 668.820312 246.78125 667.753906 248.09375 C 666.527344 249.617188 665.25 251.191406 663.972656 251.550781 C 661.289062 252.316406 657.882812 255.230469 657.742188 255.355469 C 657.578125 255.496094 657.511719 255.714844 657.566406 255.917969 C 657.621094 256.125 657.789062 256.28125 658 256.320312 C 658.449219 256.40625 660.71875 256.824219 663.066406 256.96875 L 663.308594 260.523438 C 663.332031 260.816406 663.570312 261.039062 663.863281 261.039062 L 665.636719 261.039062 C 665.945312 261.039062 666.191406 260.789062 666.191406 260.484375 C 666.191406 260.183594 665.941406 259.933594 665.636719 259.933594 L 664.378906 259.933594 L 664.179688 257.019531 C 664.308594 257.019531 664.433594 257.027344 664.566406 257.027344 C 665.238281 257.027344 665.863281 256.980469 666.445312 256.898438 L 666.695312 260.53125 C 666.71875 260.820312 666.957031 261.042969 667.25 261.042969 L 669.019531 261.042969 C 669.332031 261.042969 669.574219 260.792969 669.574219 260.492188 C 669.574219 260.1875 669.324219 259.941406 669.019531 259.941406 L 667.765625 259.941406 L 667.539062 256.648438 C 667.875 256.53125 668.171875 256.390625 668.386719 256.199219 C 669.644531 255.082031 671.101562 251.832031 672.160156 249.46875 C 672.5625 248.570312 673.019531 247.558594 673.160156 247.378906 C 673.363281 247.140625 674.664062 246.925781 675.886719 246.925781 C 676.121094 246.925781 676.328125 246.78125 676.410156 246.5625 C 676.503906 246.339844 676.4375 246.097656 676.257812 245.945312 Z M 672.328125 246.65625 C 672.101562 246.921875 671.785156 247.609375 671.15625 249.015625 C 670.195312 251.164062 668.738281 254.402344 667.65625 255.371094 C 666.664062 256.261719 662.480469 255.941406 659.414062 255.449219 C 660.589844 254.542969 662.640625 253.09375 664.289062 252.625 C 665.90625 252.164062 667.289062 250.453125 668.628906 248.796875 C 669.617188 247.570312 670.558594 246.417969 671.445312 245.9375 C 672.339844 245.449219 673.324219 245.632812 674.101562 245.945312 C 673.378906 246.058594 672.660156 246.269531 672.328125 246.65625 Z M 672.328125 246.65625 " fill-opacity="1" fill-rule="nonzero"/><path fill="#eab750" d="M 797.871094 251.058594 L 796.195312 251.058594 C 795.859375 250.410156 794.941406 249.148438 792.777344 248.765625 C 790.078125 248.300781 781.570312 250.972656 781.207031 251.085938 C 780.914062 251.179688 780.75 251.492188 780.847656 251.785156 C 780.921875 252.023438 781.140625 252.167969 781.378906 252.167969 C 781.433594 252.167969 781.496094 252.160156 781.546875 252.140625 C 781.691406 252.097656 781.890625 252.035156 782.066406 251.984375 C 782.792969 252.65625 785.105469 254.542969 788.488281 254.707031 C 788.621094 254.710938 788.757812 254.71875 788.894531 254.71875 C 792.34375 254.71875 795.339844 252.667969 796.023438 252.167969 L 797.875 252.167969 C 798.183594 252.167969 798.429688 251.921875 798.429688 251.617188 C 798.425781 251.308594 798.179688 251.058594 797.871094 251.058594 Z M 788.542969 253.597656 C 786.125 253.484375 784.292969 252.335938 783.339844 251.601562 C 784.742188 251.195312 786.480469 250.730469 788.140625 250.371094 C 787.925781 251.113281 787.667969 252.640625 789.046875 252.753906 C 790.492188 252.878906 791.191406 250.742188 791.421875 249.835938 C 791.882812 249.804688 792.289062 249.800781 792.582031 249.851562 C 794.152344 250.128906 794.847656 250.957031 795.132812 251.433594 C 794.203125 252.066406 791.457031 253.75 788.542969 253.597656 Z M 788.542969 253.597656 " fill-opacity="1" fill-rule="nonzero"/><path fill="#eab750" d="M 700.164062 249.949219 L 688.726562 249.949219 C 688.679688 249.804688 688.574219 249.6875 688.433594 249.621094 C 686.417969 248.691406 682.125 247.921875 680.328125 251.644531 C 679.480469 253.402344 679.382812 254.738281 680.035156 255.628906 C 680.5625 256.339844 681.511719 256.699219 682.875 256.699219 C 683.320312 256.699219 683.804688 256.660156 684.335938 256.585938 C 686.691406 256.25 688.304688 252.371094 688.78125 251.054688 L 700.160156 251.054688 C 700.46875 251.054688 700.710938 250.804688 700.710938 250.503906 C 700.71875 250.199219 700.46875 249.949219 700.164062 249.949219 Z M 684.179688 255.496094 C 682.507812 255.730469 681.355469 255.550781 680.929688 254.976562 C 680.542969 254.457031 680.679688 253.46875 681.328125 252.132812 C 682.148438 250.425781 683.59375 249.960938 684.929688 249.960938 C 685.671875 249.960938 686.386719 250.109375 686.933594 250.265625 L 682.914062 252.777344 C 682.652344 252.9375 682.578125 253.277344 682.738281 253.539062 C 682.902344 253.796875 683.25 253.875 683.503906 253.710938 L 687.535156 251.195312 C 686.886719 252.777344 685.574219 255.292969 684.179688 255.496094 Z M 684.179688 255.496094 " fill-opacity="1" fill-rule="nonzero"/><path fill="#eab750" d="M 650.625 244.089844 L 650.417969 244.148438 C 646.441406 245.328125 643.164062 246.394531 640.550781 247.355469 L 640.550781 244.847656 C 640.847656 244.804688 641.1875 244.761719 641.578125 244.707031 C 641.9375 244.660156 642.1875 244.328125 642.132812 243.972656 C 642.082031 243.613281 641.730469 243.386719 641.398438 243.414062 C 641.398438 243.414062 638.691406 243.789062 638.398438 243.816406 C 638.050781 243.832031 637.78125 244.117188 637.78125 244.464844 C 637.78125 244.820312 638.074219 245.113281 638.429688 245.113281 C 638.464844 245.113281 638.527344 245.113281 639.246094 245.015625 L 639.246094 247.847656 C 635.46875 249.308594 633.371094 250.480469 633.101562 251.347656 C 633 251.6875 633.058594 252.023438 633.28125 252.300781 C 634.300781 253.566406 635.601562 253.835938 636.519531 253.835938 C 637.15625 253.835938 637.601562 253.710938 637.644531 253.695312 C 637.992188 253.59375 638.1875 253.234375 638.082031 252.890625 C 637.980469 252.546875 637.617188 252.335938 637.273438 252.449219 C 637.257812 252.449219 635.59375 252.921875 634.421875 251.632812 C 634.816406 251.167969 636.421875 250.339844 639.25 249.238281 L 639.25 259.078125 C 639.25 259.4375 639.546875 259.730469 639.902344 259.730469 L 649.6875 259.730469 C 650.046875 259.730469 650.339844 259.4375 650.339844 259.078125 C 650.339844 258.722656 650.046875 258.429688 649.6875 258.429688 L 644.222656 258.429688 L 644.222656 250.882812 C 644.222656 250.523438 643.929688 250.230469 643.570312 250.230469 C 643.210938 250.230469 642.917969 250.523438 642.917969 250.882812 L 642.917969 258.433594 L 640.554688 258.433594 L 640.554688 248.75 C 643.148438 247.792969 646.515625 246.667969 650.796875 245.394531 L 651.035156 245.324219 C 651.378906 245.210938 651.558594 244.847656 651.449219 244.507812 C 651.335938 244.171875 650.976562 243.984375 650.625 244.089844 Z M 650.625 244.089844 " fill-opacity="1" fill-rule="nonzero"/><path fill="#eab750" d="M 755.277344 245.082031 C 754.832031 245.082031 754.476562 245.476562 754.476562 245.964844 L 754.476562 257.457031 C 754.476562 257.941406 754.832031 258.339844 755.277344 258.339844 C 755.722656 258.339844 756.082031 257.941406 756.082031 257.457031 L 756.082031 245.964844 C 756.082031 245.476562 755.71875 245.082031 755.277344 245.082031 Z M 755.277344 245.082031 " fill-opacity="1" fill-rule="nonzero"/><path fill="#eab750" d="M 773.371094 245.082031 L 765.472656 245.082031 C 765.027344 245.082031 764.667969 245.476562 764.667969 245.964844 L 764.667969 257.457031 C 764.667969 257.941406 765.027344 258.339844 765.472656 258.339844 C 765.917969 258.339844 766.277344 257.941406 766.277344 257.457031 L 766.277344 246.84375 L 772.566406 246.84375 L 772.566406 257.457031 C 772.566406 257.941406 772.925781 258.339844 773.371094 258.339844 C 773.816406 258.339844 774.175781 257.941406 774.175781 257.457031 L 774.175781 245.964844 C 774.175781 245.476562 773.816406 245.082031 773.371094 245.082031 Z M 773.371094 245.082031 " fill-opacity="1" fill-rule="nonzero"/><path fill="#eab750" d="M 723.976562 243.300781 C 723.273438 242.925781 721.851562 242.53125 721.023438 243.410156 C 720.792969 243.648438 720.691406 243.949219 720.722656 244.285156 C 720.78125 244.917969 721.355469 245.59375 721.875 246.09375 C 713.871094 247.980469 709.660156 255.058594 709.480469 255.371094 C 709.382812 255.546875 709.382812 255.757812 709.480469 255.929688 C 709.578125 256.097656 709.765625 256.207031 709.964844 256.207031 L 709.972656 256.207031 C 710.089844 256.207031 711.769531 256.183594 713.628906 256.039062 L 713.851562 259.351562 C 713.871094 259.640625 714.109375 259.871094 714.40625 259.871094 L 716.175781 259.871094 C 716.484375 259.871094 716.730469 259.621094 716.730469 259.316406 C 716.730469 259.015625 716.480469 258.765625 716.175781 258.765625 L 714.925781 258.765625 L 714.734375 255.941406 C 715.546875 255.855469 716.316406 255.734375 716.984375 255.578125 L 717.242188 259.355469 C 717.261719 259.648438 717.5 259.875 717.792969 259.875 L 719.566406 259.875 C 719.875 259.875 720.121094 259.625 720.121094 259.324219 C 720.121094 259.019531 719.871094 258.769531 719.566406 258.769531 L 718.316406 258.769531 L 718.070312 255.183594 C 720.488281 253.648438 723.21875 247.332031 723.542969 246.5625 C 723.640625 246.324219 723.566406 246.054688 723.359375 245.902344 C 722.460938 245.242188 721.789062 244.421875 721.835938 244.1875 C 722.21875 243.78125 723.164062 244.140625 723.46875 244.296875 C 723.734375 244.4375 724.074219 244.335938 724.21875 244.0625 C 724.351562 243.78125 724.25 243.445312 723.976562 243.300781 Z M 717.171875 254.386719 C 715.554688 254.863281 712.589844 255.019531 711.015625 255.074219 C 712.378906 253.164062 716.148438 248.628906 722.039062 247.195312 C 720.691406 250.125 718.527344 253.988281 717.171875 254.386719 Z M 717.171875 254.386719 " fill-opacity="1" fill-rule="nonzero"/><path fill="#eab750" d="M 744.457031 257.417969 C 744.234375 257.289062 743.964844 257.320312 743.824219 257.542969 C 743.816406 257.554688 743.476562 257.839844 741.648438 258.5 C 740.640625 258.863281 739.78125 258.890625 739.160156 258.570312 C 738.605469 258.289062 738.214844 257.730469 737.996094 256.914062 C 737.539062 255.203125 737.75 252.460938 737.800781 251.871094 L 737.828125 251.867188 C 738.089844 251.832031 738.277344 251.601562 738.246094 251.347656 C 738.214844 251.085938 737.96875 250.914062 737.714844 250.941406 L 736.304688 251.109375 C 736.371094 250.910156 736.4375 250.726562 736.496094 250.507812 C 736.800781 249.40625 736.398438 248.207031 735.839844 247.148438 C 736.664062 247.105469 737.820312 247.277344 738.425781 248.402344 C 739.511719 250.453125 739.453125 252.28125 739.445312 252.300781 C 739.433594 252.558594 739.640625 252.777344 739.902344 252.785156 C 739.90625 252.785156 739.917969 252.785156 739.925781 252.785156 C 740.179688 252.785156 740.390625 252.589844 740.402344 252.335938 C 740.40625 252.25 740.484375 250.25 739.273438 247.964844 C 738.398438 246.316406 736.605469 246.09375 735.328125 246.261719 C 735.089844 245.882812 734.84375 245.53125 734.636719 245.226562 C 734.480469 245 734.289062 244.730469 734.207031 244.578125 C 734.4375 244.28125 735.453125 243.652344 736.066406 243.652344 C 736.070312 243.652344 736.070312 243.652344 736.070312 243.652344 C 736.121094 243.796875 735.9375 244.308594 735.699219 244.707031 C 735.5625 244.929688 735.636719 245.214844 735.867188 245.351562 C 736.09375 245.480469 736.386719 245.410156 736.523438 245.1875 C 736.703125 244.890625 737.261719 243.875 736.929688 243.242188 C 736.792969 242.976562 736.535156 242.8125 736.203125 242.78125 C 735.414062 242.699219 734.300781 243.214844 733.699219 243.75 C 733.378906 244.035156 733.21875 244.308594 733.21875 244.578125 C 733.21875 244.855469 733.414062 245.136719 733.84375 245.75 C 733.996094 245.972656 734.175781 246.238281 734.367188 246.519531 C 733.976562 246.757812 733.144531 247.378906 732.710938 248.613281 C 732.171875 250.136719 732.4375 252.53125 732.449219 252.628906 C 732.476562 252.867188 732.683594 253.046875 732.921875 253.046875 C 732.9375 253.046875 732.957031 253.046875 732.976562 253.039062 C 733.234375 253.011719 733.425781 252.78125 733.398438 252.527344 C 733.394531 252.503906 733.148438 250.242188 733.617188 248.921875 C 733.996094 247.855469 734.703125 247.414062 734.855469 247.320312 C 735.394531 248.277344 735.824219 249.371094 735.578125 250.257812 C 735.480469 250.609375 735.375 250.917969 735.273438 251.226562 L 734.726562 251.292969 C 734.464844 251.324219 734.273438 251.558594 734.304688 251.8125 C 734.332031 252.050781 734.539062 252.222656 734.777344 252.222656 C 734.800781 252.222656 734.816406 252.222656 734.839844 252.21875 L 734.925781 252.207031 C 734.867188 252.359375 734.804688 252.53125 734.75 252.671875 C 734.371094 253.65625 734.046875 254.511719 733.921875 255.566406 C 733.703125 257.363281 734.179688 259.183594 734.203125 259.257812 C 734.257812 259.46875 734.453125 259.609375 734.664062 259.609375 C 734.703125 259.609375 734.746094 259.605469 734.785156 259.59375 C 735.039062 259.527344 735.191406 259.269531 735.125 259.019531 C 735.121094 259.003906 734.671875 257.300781 734.871094 255.675781 C 734.984375 254.738281 735.296875 253.933594 735.652344 253.003906 C 735.761719 252.714844 735.882812 252.402344 735.996094 252.082031 L 736.84375 251.984375 C 736.773438 252.878906 736.621094 255.417969 737.082031 257.148438 C 737.371094 258.230469 737.925781 258.988281 738.730469 259.394531 C 739.160156 259.609375 739.648438 259.722656 740.183594 259.722656 C 740.738281 259.722656 741.347656 259.605469 741.996094 259.371094 C 744.335938 258.523438 744.539062 258.199219 744.601562 258.089844 C 744.726562 257.871094 744.683594 257.546875 744.457031 257.417969 Z M 744.457031 257.417969 " fill-opacity="1" fill-rule="nonzero"/><g clip-path="url(#a233a504d6)"><path fill="#eab750" d="M 599.496094 210.363281 L 829.746094 210.363281 L 829.746094 211.808594 L 599.496094 211.808594 Z M 599.496094 210.363281 " fill-opacity="1" fill-rule="nonzero"/></g><path fill="#eab750" d="M 611.6875 236.082031 L 817.558594 236.082031 L 817.558594 237.527344 L 611.6875 237.527344 Z M 611.6875 236.082031 " fill-opacity="1" fill-rule="nonzero"/><g clip-path="url(#3c2b8db9b8)"><path fill="#eab750" d="M 626.402344 263.664062 L 798.585938 263.664062 L 798.585938 265.105469 L 626.402344 265.105469 Z M 626.402344 263.664062 " fill-opacity="1" fill-rule="nonzero"/></g><path fill="#eab750" d="M 643.101562 551.15625 C 642.988281 551.058594 640.28125 548.800781 637.75 550.164062 C 636.667969 550.75 635.664062 551.988281 634.597656 553.304688 C 633.371094 554.824219 632.09375 556.398438 630.816406 556.761719 C 628.132812 557.523438 624.726562 560.441406 624.585938 560.566406 C 624.421875 560.707031 624.355469 560.921875 624.410156 561.128906 C 624.464844 561.332031 624.632812 561.488281 624.84375 561.527344 C 625.292969 561.613281 627.5625 562.03125 629.910156 562.175781 L 630.152344 565.730469 C 630.175781 566.023438 630.414062 566.246094 630.707031 566.246094 L 632.480469 566.246094 C 632.789062 566.246094 633.035156 565.996094 633.035156 565.695312 C 633.035156 565.390625 632.785156 565.140625 632.480469 565.140625 L 631.222656 565.140625 L 631.023438 562.226562 C 631.152344 562.226562 631.285156 562.238281 631.410156 562.238281 C 632.082031 562.238281 632.707031 562.1875 633.289062 562.105469 L 633.539062 565.738281 C 633.558594 566.03125 633.800781 566.25 634.09375 566.25 L 635.863281 566.25 C 636.175781 566.25 636.417969 566.003906 636.417969 565.699219 C 636.417969 565.398438 636.167969 565.148438 635.863281 565.148438 L 634.609375 565.148438 L 634.382812 561.859375 C 634.71875 561.738281 635.015625 561.597656 635.230469 561.410156 C 636.488281 560.289062 637.945312 557.042969 639.003906 554.675781 C 639.40625 553.777344 639.863281 552.765625 640.003906 552.589844 C 640.207031 552.351562 641.507812 552.132812 642.730469 552.132812 C 642.964844 552.132812 643.171875 551.988281 643.253906 551.773438 C 643.347656 551.550781 643.28125 551.304688 643.101562 551.15625 Z M 639.171875 551.859375 C 638.945312 552.125 638.628906 552.808594 638 554.21875 C 637.039062 556.367188 635.582031 559.605469 634.496094 560.574219 C 633.5 561.460938 629.316406 561.144531 626.253906 560.652344 C 627.425781 559.746094 629.480469 558.296875 631.125 557.828125 C 632.746094 557.367188 634.125 555.65625 635.46875 554 C 636.457031 552.773438 637.394531 551.621094 638.28125 551.136719 C 639.179688 550.652344 640.160156 550.835938 640.9375 551.148438 C 640.222656 551.261719 639.503906 551.472656 639.171875 551.859375 Z M 639.171875 551.859375 " fill-opacity="1" fill-rule="nonzero"/><path fill="#eab750" d="M 662.863281 557.335938 L 661.1875 557.335938 C 660.851562 556.683594 659.933594 555.425781 657.769531 555.039062 C 655.070312 554.574219 646.5625 557.246094 646.199219 557.359375 C 645.90625 557.453125 645.742188 557.765625 645.839844 558.058594 C 645.914062 558.296875 646.132812 558.445312 646.371094 558.445312 C 646.425781 558.445312 646.484375 558.433594 646.539062 558.417969 C 646.683594 558.375 646.882812 558.308594 647.058594 558.257812 C 647.785156 558.929688 650.097656 560.820312 653.480469 560.980469 C 653.613281 560.988281 653.75 560.992188 653.886719 560.992188 C 657.335938 560.992188 660.332031 558.941406 661.015625 558.445312 L 662.867188 558.445312 C 663.175781 558.445312 663.421875 558.195312 663.421875 557.890625 C 663.421875 557.589844 663.171875 557.335938 662.863281 557.335938 Z M 653.53125 559.871094 C 651.117188 559.757812 649.285156 558.609375 648.332031 557.875 C 649.734375 557.46875 651.472656 557.003906 653.132812 556.648438 C 652.917969 557.386719 652.660156 558.914062 654.039062 559.027344 C 655.484375 559.152344 656.183594 557.015625 656.414062 556.109375 C 656.875 556.078125 657.28125 556.074219 657.574219 556.128906 C 659.144531 556.402344 659.839844 557.230469 660.125 557.707031 C 659.195312 558.339844 656.449219 560.027344 653.53125 559.871094 Z M 653.53125 559.871094 " fill-opacity="1" fill-rule="nonzero"/><path fill="#eab750" d="M 684.164062 550.875 C 683.585938 550.875 683.085938 551.226562 682.867188 551.726562 L 669.636719 551.726562 C 669.421875 551.226562 668.921875 550.875 668.339844 550.875 C 667.554688 550.875 666.925781 551.5 666.925781 552.28125 C 666.925781 553.058594 667.554688 553.6875 668.339844 553.6875 C 668.921875 553.6875 669.421875 553.335938 669.636719 552.832031 L 682.867188 552.832031 C 683.085938 553.335938 683.585938 553.6875 684.164062 553.6875 C 684.949219 553.6875 685.578125 553.058594 685.578125 552.28125 C 685.578125 551.5 684.941406 550.875 684.164062 550.875 Z M 684.164062 550.875 " fill-opacity="1" fill-rule="nonzero"/><path fill="#eab750" d="M 684.164062 556.578125 C 683.585938 556.578125 683.085938 556.929688 682.867188 557.429688 L 669.636719 557.429688 C 669.421875 556.929688 668.921875 556.578125 668.339844 556.578125 C 667.554688 556.578125 666.925781 557.203125 666.925781 557.984375 C 666.925781 558.761719 667.554688 559.390625 668.339844 559.390625 C 668.921875 559.390625 669.421875 559.039062 669.636719 558.535156 L 682.867188 558.535156 C 683.085938 559.039062 683.585938 559.390625 684.164062 559.390625 C 684.949219 559.390625 685.578125 558.761719 685.578125 557.984375 C 685.578125 557.210938 684.941406 556.578125 684.164062 556.578125 Z M 684.164062 556.578125 " fill-opacity="1" fill-rule="nonzero"/><path fill="#eab750" d="M 684.164062 562.285156 C 683.585938 562.285156 683.085938 562.636719 682.867188 563.140625 L 669.636719 563.140625 C 669.421875 562.636719 668.921875 562.285156 668.339844 562.285156 C 667.554688 562.285156 666.925781 562.914062 666.925781 563.691406 C 666.925781 564.472656 667.554688 565.097656 668.339844 565.097656 C 668.921875 565.097656 669.421875 564.746094 669.636719 564.242188 L 682.867188 564.242188 C 683.085938 564.746094 683.585938 565.097656 684.164062 565.097656 C 684.949219 565.097656 685.578125 564.472656 685.578125 563.691406 C 685.578125 562.917969 684.941406 562.285156 684.164062 562.285156 Z M 684.164062 562.285156 " fill-opacity="1" fill-rule="nonzero"/><path fill="#eab750" d="M 710.972656 555.160156 L 699.535156 555.160156 C 699.488281 555.011719 699.382812 554.894531 699.242188 554.828125 C 697.226562 553.898438 692.933594 553.128906 691.136719 556.859375 C 690.289062 558.617188 690.191406 559.953125 690.84375 560.839844 C 691.371094 561.554688 692.320312 561.910156 693.683594 561.910156 C 694.128906 561.910156 694.613281 561.875 695.144531 561.796875 C 697.5 561.460938 699.113281 557.582031 699.589844 556.269531 L 710.96875 556.269531 C 711.277344 556.269531 711.523438 556.019531 711.523438 555.714844 C 711.527344 555.40625 711.277344 555.160156 710.972656 555.160156 Z M 694.988281 560.699219 C 693.316406 560.933594 692.164062 560.753906 691.738281 560.179688 C 691.355469 559.660156 691.488281 558.671875 692.136719 557.335938 C 692.957031 555.628906 694.402344 555.164062 695.738281 555.164062 C 696.484375 555.164062 697.195312 555.308594 697.742188 555.46875 L 693.722656 557.976562 C 693.460938 558.140625 693.386719 558.480469 693.550781 558.742188 C 693.710938 559 694.058594 559.078125 694.316406 558.914062 L 698.347656 556.398438 C 697.695312 557.984375 696.378906 560.5 694.988281 560.699219 Z M 694.988281 560.699219 " fill-opacity="1" fill-rule="nonzero"/><path fill="#eab750" d="M 734.207031 549.292969 L 734 549.351562 C 730.023438 550.53125 726.746094 551.597656 724.132812 552.554688 L 724.132812 550.050781 C 724.429688 550.007812 724.769531 549.964844 725.160156 549.910156 C 725.519531 549.863281 725.769531 549.53125 725.714844 549.175781 C 725.664062 548.816406 725.3125 548.589844 724.980469 548.617188 C 724.980469 548.617188 722.273438 548.992188 721.980469 549.015625 C 721.632812 549.035156 721.363281 549.320312 721.363281 549.667969 C 721.363281 550.023438 721.65625 550.316406 722.015625 550.316406 C 722.046875 550.316406 722.113281 550.316406 722.828125 550.21875 L 722.828125 553.046875 C 719.050781 554.503906 716.949219 555.683594 716.679688 556.550781 C 716.574219 556.890625 716.636719 557.226562 716.859375 557.5 C 717.878906 558.769531 719.175781 559.039062 720.097656 559.039062 C 720.730469 559.039062 721.175781 558.914062 721.21875 558.898438 C 721.566406 558.796875 721.765625 558.4375 721.660156 558.089844 C 721.558594 557.75 721.191406 557.539062 720.851562 557.652344 C 720.835938 557.652344 719.171875 558.125 718 556.835938 C 718.394531 556.371094 719.996094 555.542969 722.828125 554.4375 L 722.828125 564.289062 C 722.828125 564.644531 723.121094 564.9375 723.480469 564.9375 L 733.265625 564.9375 C 733.625 564.9375 733.917969 564.644531 733.917969 564.289062 C 733.917969 563.929688 733.625 563.636719 733.265625 563.636719 L 727.804688 563.636719 L 727.804688 556.085938 C 727.804688 555.726562 727.511719 555.433594 727.152344 555.433594 C 726.796875 555.433594 726.5 555.726562 726.5 556.085938 L 726.5 563.636719 L 724.132812 563.636719 L 724.132812 553.953125 C 726.722656 552.996094 730.09375 551.867188 734.375 550.597656 L 734.613281 550.527344 C 734.957031 550.414062 735.136719 550.050781 735.027344 549.710938 C 734.914062 549.375 734.554688 549.191406 734.207031 549.292969 Z M 734.207031 549.292969 " fill-opacity="1" fill-rule="nonzero"/><path fill="#eab750" d="M 758.292969 554.53125 C 758.074219 554.320312 757.722656 554.324219 757.503906 554.542969 L 756.574219 555.496094 C 756.046875 554.335938 754.886719 553.648438 754.820312 553.609375 C 754.554688 553.460938 754.214844 553.550781 754.0625 553.816406 C 753.914062 554.082031 754.003906 554.417969 754.269531 554.570312 C 754.289062 554.578125 755.652344 555.386719 755.722656 556.539062 C 755.628906 556.859375 755.242188 558.03125 754.308594 558.480469 C 753.722656 558.75 752.15625 558.152344 751.011719 557.707031 C 749.957031 557.300781 749.042969 556.949219 748.363281 556.949219 C 747.59375 556.949219 746.722656 557.382812 745.800781 557.84375 C 744.824219 558.328125 743.714844 558.886719 742.734375 558.886719 C 740.976562 558.886719 739.675781 557.507812 739.667969 557.496094 C 739.460938 557.269531 739.105469 557.257812 738.878906 557.464844 C 738.648438 557.667969 738.640625 558.019531 738.847656 558.242188 C 738.910156 558.3125 740.480469 559.992188 742.734375 559.992188 C 743.980469 559.992188 745.214844 559.375 746.300781 558.832031 C 747.097656 558.433594 747.855469 558.054688 748.363281 558.054688 C 748.835938 558.054688 749.734375 558.398438 750.609375 558.742188 C 752.167969 559.339844 753.78125 559.96875 754.792969 559.476562 C 756.117188 558.84375 756.644531 557.355469 756.792969 556.859375 L 758.3125 555.300781 C 758.519531 555.097656 758.515625 554.746094 758.292969 554.53125 Z M 758.292969 554.53125 " fill-opacity="1" fill-rule="nonzero"/><path fill="#eab750" d="M 766.082031 550.285156 C 765.636719 550.285156 765.277344 550.679688 765.277344 551.164062 L 765.277344 562.664062 C 765.277344 563.152344 765.636719 563.546875 766.082031 563.546875 C 766.527344 563.546875 766.886719 563.152344 766.886719 562.664062 L 766.886719 551.171875 C 766.886719 550.683594 766.527344 550.285156 766.082031 550.285156 Z M 766.082031 550.285156 " fill-opacity="1" fill-rule="nonzero"/><path fill="#eab750" d="M 784.179688 550.285156 L 776.28125 550.285156 C 775.835938 550.285156 775.476562 550.679688 775.476562 551.164062 L 775.476562 562.664062 C 775.476562 563.152344 775.835938 563.546875 776.28125 563.546875 C 776.726562 563.546875 777.085938 563.152344 777.085938 562.664062 L 777.085938 552.054688 L 783.375 552.054688 L 783.375 562.664062 C 783.375 563.152344 783.734375 563.546875 784.179688 563.546875 C 784.625 563.546875 784.984375 563.152344 784.984375 562.664062 L 784.984375 551.171875 C 784.984375 550.683594 784.625 550.285156 784.179688 550.285156 Z M 784.179688 550.285156 " fill-opacity="1" fill-rule="nonzero"/><path fill="#eab750" d="M 805.804688 548.507812 C 805.097656 548.136719 803.679688 547.742188 802.847656 548.617188 C 802.621094 548.855469 802.519531 549.15625 802.550781 549.492188 C 802.609375 550.125 803.179688 550.804688 803.703125 551.300781 C 795.699219 553.1875 791.488281 560.273438 791.308594 560.582031 C 791.210938 560.753906 791.210938 560.964844 791.308594 561.136719 C 791.40625 561.304688 791.59375 561.414062 791.792969 561.414062 L 791.796875 561.414062 C 791.917969 561.414062 793.597656 561.390625 795.453125 561.246094 L 795.675781 564.558594 C 795.699219 564.851562 795.9375 565.078125 796.230469 565.078125 L 798.003906 565.078125 C 798.3125 565.078125 798.558594 564.828125 798.558594 564.527344 C 798.558594 564.222656 798.308594 563.972656 798.003906 563.972656 L 796.753906 563.972656 L 796.5625 561.148438 C 797.371094 561.0625 798.144531 560.941406 798.8125 560.785156 L 799.066406 564.5625 C 799.089844 564.855469 799.328125 565.082031 799.621094 565.082031 L 801.394531 565.082031 C 801.703125 565.082031 801.949219 564.832031 801.949219 564.53125 C 801.949219 564.226562 801.699219 563.980469 801.394531 563.980469 L 800.144531 563.980469 L 799.898438 560.390625 C 802.316406 558.855469 805.042969 552.539062 805.371094 551.773438 C 805.46875 551.535156 805.390625 551.261719 805.1875 551.113281 C 804.289062 550.453125 803.617188 549.628906 803.664062 549.394531 C 804.042969 548.992188 804.992188 549.347656 805.292969 549.503906 C 805.5625 549.644531 805.902344 549.542969 806.042969 549.273438 C 806.179688 548.984375 806.078125 548.648438 805.804688 548.507812 Z M 798.992188 559.589844 C 797.378906 560.066406 794.410156 560.222656 792.835938 560.277344 C 794.199219 558.367188 797.96875 553.832031 803.859375 552.398438 C 802.519531 555.332031 800.355469 559.195312 798.992188 559.589844 Z M 798.992188 559.589844 " fill-opacity="1" fill-rule="nonzero"/><path fill="#eab750" d="M 826.25 562.621094 C 826.027344 562.492188 825.761719 562.523438 825.621094 562.746094 C 825.609375 562.757812 825.273438 563.042969 823.441406 563.703125 C 822.4375 564.066406 821.578125 564.09375 820.953125 563.773438 C 820.398438 563.492188 820.007812 562.933594 819.789062 562.117188 C 819.335938 560.40625 819.546875 557.664062 819.59375 557.074219 L 819.621094 557.070312 C 819.882812 557.035156 820.074219 556.804688 820.039062 556.542969 C 820.007812 556.285156 819.761719 556.109375 819.507812 556.136719 L 818.101562 556.304688 C 818.164062 556.105469 818.230469 555.921875 818.289062 555.707031 C 818.59375 554.601562 818.191406 553.40625 817.632812 552.34375 C 818.460938 552.300781 819.617188 552.476562 820.21875 553.601562 C 821.304688 555.652344 821.246094 557.480469 821.242188 557.496094 C 821.230469 557.757812 821.4375 557.972656 821.699219 557.984375 C 821.703125 557.984375 821.714844 557.984375 821.71875 557.984375 C 821.972656 557.984375 822.1875 557.789062 822.199219 557.535156 C 822.203125 557.449219 822.277344 555.445312 821.066406 553.164062 C 820.191406 551.511719 818.398438 551.289062 817.121094 551.457031 C 816.882812 551.078125 816.640625 550.726562 816.433594 550.425781 C 816.273438 550.195312 816.085938 549.925781 816.003906 549.773438 C 816.230469 549.476562 817.246094 548.847656 817.863281 548.847656 C 817.867188 548.847656 817.867188 548.847656 817.867188 548.847656 C 817.914062 548.996094 817.730469 549.503906 817.492188 549.90625 C 817.355469 550.125 817.433594 550.414062 817.660156 550.542969 C 817.890625 550.671875 818.183594 550.601562 818.316406 550.382812 C 818.496094 550.082031 819.058594 549.066406 818.726562 548.433594 C 818.589844 548.167969 818.328125 548.003906 817.996094 547.972656 C 817.210938 547.890625 816.097656 548.40625 815.492188 548.941406 C 815.171875 549.226562 815.015625 549.5 815.015625 549.769531 C 815.015625 550.046875 815.210938 550.328125 815.640625 550.945312 C 815.792969 551.164062 815.972656 551.429688 816.160156 551.710938 C 815.769531 551.949219 814.9375 552.574219 814.503906 553.804688 C 813.964844 555.328125 814.230469 557.722656 814.242188 557.820312 C 814.269531 558.058594 814.476562 558.238281 814.714844 558.238281 C 814.730469 558.238281 814.753906 558.238281 814.769531 558.230469 C 815.03125 558.207031 815.222656 557.972656 815.195312 557.71875 C 815.1875 557.695312 814.9375 555.433594 815.410156 554.113281 C 815.792969 553.046875 816.496094 552.605469 816.648438 552.511719 C 817.1875 553.46875 817.617188 554.5625 817.371094 555.449219 C 817.273438 555.804688 817.171875 556.109375 817.066406 556.417969 L 816.519531 556.484375 C 816.257812 556.515625 816.070312 556.75 816.101562 557.007812 C 816.128906 557.246094 816.335938 557.421875 816.574219 557.421875 C 816.59375 557.421875 816.613281 557.421875 816.632812 557.414062 L 816.71875 557.40625 C 816.660156 557.554688 816.601562 557.730469 816.546875 557.871094 C 816.167969 558.855469 815.839844 559.710938 815.714844 560.765625 C 815.5 562.5625 815.976562 564.378906 815.996094 564.457031 C 816.050781 564.667969 816.246094 564.808594 816.460938 564.808594 C 816.496094 564.808594 816.542969 564.800781 816.578125 564.789062 C 816.835938 564.726562 816.988281 564.464844 816.921875 564.21875 C 816.917969 564.199219 816.464844 562.496094 816.667969 560.871094 C 816.78125 559.9375 817.089844 559.128906 817.449219 558.199219 C 817.558594 557.914062 817.675781 557.597656 817.789062 557.28125 L 818.636719 557.183594 C 818.566406 558.074219 818.414062 560.613281 818.878906 562.34375 C 819.164062 563.425781 819.71875 564.183594 820.523438 564.589844 C 820.953125 564.808594 821.441406 564.921875 821.980469 564.921875 C 822.535156 564.921875 823.144531 564.800781 823.789062 564.570312 C 826.132812 563.71875 826.332031 563.394531 826.398438 563.285156 C 826.523438 563.082031 826.480469 562.757812 826.25 562.621094 Z M 826.25 562.621094 " fill-opacity="1" fill-rule="nonzero"/><path fill="#eab750" d="M 686.007812 579.066406 C 685.894531 578.96875 683.1875 576.710938 680.65625 578.074219 C 679.574219 578.660156 678.570312 579.898438 677.503906 581.214844 C 676.277344 582.734375 675 584.308594 673.722656 584.671875 C 671.039062 585.433594 667.632812 588.351562 667.492188 588.476562 C 667.328125 588.617188 667.261719 588.832031 667.316406 589.039062 C 667.371094 589.242188 667.539062 589.398438 667.75 589.4375 C 668.199219 589.523438 670.46875 589.941406 672.816406 590.085938 L 673.058594 593.640625 C 673.082031 593.933594 673.320312 594.15625 673.613281 594.15625 L 675.386719 594.15625 C 675.695312 594.15625 675.941406 593.90625 675.941406 593.605469 C 675.941406 593.300781 675.691406 593.050781 675.386719 593.050781 L 674.128906 593.050781 L 673.929688 590.136719 C 674.058594 590.136719 674.183594 590.148438 674.316406 590.148438 C 674.988281 590.148438 675.613281 590.097656 676.195312 590.015625 L 676.445312 593.648438 C 676.46875 593.941406 676.707031 594.160156 677 594.160156 L 678.769531 594.160156 C 679.082031 594.160156 679.324219 593.914062 679.324219 593.609375 C 679.324219 593.308594 679.074219 593.058594 678.769531 593.058594 L 677.515625 593.058594 L 677.289062 589.769531 C 677.625 589.648438 677.921875 589.507812 678.136719 589.320312 C 679.394531 588.199219 680.851562 584.953125 681.910156 582.585938 C 682.3125 581.6875 682.769531 580.675781 682.910156 580.5 C 683.113281 580.261719 684.414062 580.042969 685.636719 580.042969 C 685.871094 580.042969 686.078125 579.898438 686.160156 579.683594 C 686.253906 579.460938 686.1875 579.214844 686.007812 579.066406 Z M 682.078125 579.773438 C 681.851562 580.039062 681.535156 580.726562 680.90625 582.132812 C 679.945312 584.28125 678.488281 587.523438 677.40625 588.492188 C 676.414062 589.378906 672.230469 589.058594 669.164062 588.566406 C 670.339844 587.664062 672.390625 586.214844 674.039062 585.742188 C 675.65625 585.28125 677.039062 583.574219 678.378906 581.917969 C 679.367188 580.6875 680.308594 579.535156 681.195312 579.054688 C 682.089844 578.566406 683.074219 578.75 683.851562 579.066406 C 683.128906 579.179688 682.410156 579.390625 682.078125 579.773438 Z M 682.078125 579.773438 " fill-opacity="1" fill-rule="nonzero"/><path fill="#eab750" d="M 807.621094 584.179688 L 805.945312 584.179688 C 805.609375 583.527344 804.691406 582.269531 802.527344 581.882812 C 799.828125 581.417969 791.320312 584.09375 790.957031 584.207031 C 790.664062 584.296875 790.5 584.613281 790.597656 584.902344 C 790.671875 585.140625 790.890625 585.289062 791.128906 585.289062 C 791.183594 585.289062 791.246094 585.277344 791.296875 585.261719 C 791.441406 585.21875 791.640625 585.152344 791.816406 585.105469 C 792.542969 585.773438 794.855469 587.664062 798.238281 587.824219 C 798.371094 587.832031 798.507812 587.835938 798.644531 587.835938 C 802.09375 587.835938 805.089844 585.785156 805.773438 585.289062 L 807.625 585.289062 C 807.933594 585.289062 808.179688 585.039062 808.179688 584.734375 C 808.175781 584.425781 807.929688 584.179688 807.621094 584.179688 Z M 798.292969 586.714844 C 795.875 586.601562 794.042969 585.457031 793.089844 584.71875 C 794.492188 584.3125 796.230469 583.847656 797.890625 583.492188 C 797.675781 584.234375 797.417969 585.757812 798.796875 585.871094 C 800.242188 585.996094 800.941406 583.859375 801.171875 582.957031 C 801.632812 582.921875 802.039062 582.917969 802.332031 582.972656 C 803.902344 583.246094 804.597656 584.074219 804.882812 584.550781 C 803.953125 585.183594 801.207031 586.867188 798.292969 586.714844 Z M 798.292969 586.714844 " fill-opacity="1" fill-rule="nonzero"/><path fill="#eab750" d="M 709.914062 583.070312 L 698.476562 583.070312 C 698.429688 582.921875 698.324219 582.804688 698.183594 582.738281 C 696.167969 581.808594 691.875 581.039062 690.078125 584.761719 C 689.230469 586.523438 689.132812 587.859375 689.785156 588.746094 C 690.3125 589.460938 691.261719 589.816406 692.625 589.816406 C 693.070312 589.816406 693.554688 589.777344 694.085938 589.703125 C 696.441406 589.367188 698.054688 585.488281 698.53125 584.171875 L 709.910156 584.171875 C 710.21875 584.171875 710.460938 583.925781 710.460938 583.621094 C 710.46875 583.316406 710.21875 583.070312 709.914062 583.070312 Z M 693.929688 588.617188 C 692.257812 588.847656 691.105469 588.667969 690.679688 588.097656 C 690.292969 587.578125 690.429688 586.585938 691.078125 585.25 C 691.898438 583.546875 693.34375 583.078125 694.679688 583.078125 C 695.421875 583.078125 696.136719 583.226562 696.683594 583.382812 L 692.664062 585.894531 C 692.402344 586.054688 692.328125 586.398438 692.488281 586.65625 C 692.652344 586.917969 693 586.992188 693.253906 586.828125 L 697.285156 584.3125 C 696.636719 585.894531 695.324219 588.410156 693.929688 588.617188 Z M 693.929688 588.617188 " fill-opacity="1" fill-rule="nonzero"/><path fill="#eab750" d="M 660.375 577.210938 L 660.167969 577.269531 C 656.191406 578.449219 652.914062 579.515625 650.300781 580.472656 L 650.300781 577.964844 C 650.597656 577.921875 650.9375 577.878906 651.328125 577.824219 C 651.6875 577.777344 651.9375 577.445312 651.882812 577.089844 C 651.832031 576.734375 651.480469 576.503906 651.148438 576.53125 C 651.148438 576.53125 648.441406 576.90625 648.148438 576.933594 C 647.800781 576.949219 647.53125 577.234375 647.53125 577.582031 C 647.53125 577.941406 647.824219 578.230469 648.179688 578.230469 C 648.214844 578.230469 648.277344 578.230469 648.996094 578.132812 L 648.996094 580.964844 C 645.21875 582.425781 643.121094 583.597656 642.851562 584.464844 C 642.75 584.804688 642.808594 585.140625 643.03125 585.417969 C 644.050781 586.683594 645.351562 586.953125 646.269531 586.953125 C 646.90625 586.953125 647.351562 586.828125 647.394531 586.8125 C 647.742188 586.710938 647.9375 586.355469 647.832031 586.007812 C 647.730469 585.667969 647.367188 585.457031 647.023438 585.570312 C 647.007812 585.570312 645.34375 586.039062 644.171875 584.753906 C 644.566406 584.285156 646.171875 583.457031 649 582.355469 L 649 592.199219 C 649 592.554688 649.296875 592.847656 649.652344 592.847656 L 659.4375 592.847656 C 659.796875 592.847656 660.089844 592.554688 660.089844 592.199219 C 660.089844 591.839844 659.796875 591.546875 659.4375 591.546875 L 653.972656 591.546875 L 653.972656 584 C 653.972656 583.644531 653.679688 583.351562 653.320312 583.351562 C 652.960938 583.351562 652.667969 583.644531 652.667969 584 L 652.667969 591.554688 L 650.304688 591.554688 L 650.304688 581.867188 C 652.898438 580.910156 656.265625 579.785156 660.546875 578.511719 L 660.785156 578.441406 C 661.128906 578.328125 661.308594 577.964844 661.199219 577.625 C 661.085938 577.289062 660.726562 577.101562 660.375 577.210938 Z M 660.375 577.210938 " fill-opacity="1" fill-rule="nonzero"/><path fill="#eab750" d="M 765.027344 578.199219 C 764.582031 578.199219 764.226562 578.59375 764.226562 579.082031 L 764.226562 590.574219 C 764.226562 591.0625 764.582031 591.457031 765.027344 591.457031 C 765.472656 591.457031 765.832031 591.0625 765.832031 590.574219 L 765.832031 579.082031 C 765.832031 578.59375 765.46875 578.199219 765.027344 578.199219 Z M 765.027344 578.199219 " fill-opacity="1" fill-rule="nonzero"/><path fill="#eab750" d="M 783.121094 578.199219 L 775.222656 578.199219 C 774.777344 578.199219 774.417969 578.59375 774.417969 579.082031 L 774.417969 590.574219 C 774.417969 591.0625 774.777344 591.457031 775.222656 591.457031 C 775.667969 591.457031 776.027344 591.0625 776.027344 590.574219 L 776.027344 579.964844 L 782.316406 579.964844 L 782.316406 590.574219 C 782.316406 591.0625 782.675781 591.457031 783.121094 591.457031 C 783.566406 591.457031 783.925781 591.0625 783.925781 590.574219 L 783.925781 579.082031 C 783.925781 578.59375 783.566406 578.199219 783.121094 578.199219 Z M 783.121094 578.199219 " fill-opacity="1" fill-rule="nonzero"/><path fill="#eab750" d="M 733.726562 576.417969 C 733.023438 576.046875 731.601562 575.652344 730.773438 576.527344 C 730.542969 576.765625 730.441406 577.066406 730.472656 577.402344 C 730.53125 578.035156 731.105469 578.714844 731.625 579.210938 C 723.621094 581.101562 719.410156 588.175781 719.230469 588.492188 C 719.132812 588.664062 719.132812 588.875 719.230469 589.046875 C 719.328125 589.214844 719.515625 589.324219 719.714844 589.324219 L 719.722656 589.324219 C 719.839844 589.324219 721.519531 589.304688 723.378906 589.15625 L 723.601562 592.46875 C 723.621094 592.761719 723.859375 592.988281 724.15625 592.988281 L 725.925781 592.988281 C 726.234375 592.988281 726.480469 592.738281 726.480469 592.4375 C 726.480469 592.132812 726.230469 591.882812 725.925781 591.882812 L 724.675781 591.882812 L 724.484375 589.058594 C 725.296875 588.972656 726.066406 588.855469 726.734375 588.695312 L 726.992188 592.472656 C 727.011719 592.765625 727.25 592.992188 727.542969 592.992188 L 729.316406 592.992188 C 729.625 592.992188 729.871094 592.746094 729.871094 592.441406 C 729.871094 592.136719 729.621094 591.890625 729.316406 591.890625 L 728.066406 591.890625 L 727.820312 588.300781 C 730.238281 586.765625 732.96875 580.449219 733.292969 579.683594 C 733.390625 579.445312 733.316406 579.171875 733.109375 579.023438 C 732.210938 578.363281 731.539062 577.539062 731.585938 577.304688 C 731.96875 576.902344 732.914062 577.257812 733.21875 577.414062 C 733.484375 577.554688 733.824219 577.453125 733.96875 577.183594 C 734.101562 576.902344 734 576.566406 733.726562 576.417969 Z M 726.921875 587.507812 C 725.304688 587.984375 722.339844 588.140625 720.765625 588.195312 C 722.128906 586.285156 725.898438 581.75 731.789062 580.316406 C 730.441406 583.242188 728.277344 587.105469 726.921875 587.507812 Z M 726.921875 587.507812 " fill-opacity="1" fill-rule="nonzero"/><path fill="#eab750" d="M 754.207031 590.535156 C 753.984375 590.40625 753.714844 590.4375 753.574219 590.660156 C 753.566406 590.671875 753.226562 590.957031 751.398438 591.617188 C 750.390625 591.980469 749.53125 592.007812 748.910156 591.6875 C 748.355469 591.40625 747.964844 590.851562 747.746094 590.035156 C 747.289062 588.324219 747.5 585.578125 747.550781 584.988281 L 747.578125 584.984375 C 747.839844 584.953125 748.027344 584.71875 747.996094 584.464844 C 747.964844 584.207031 747.71875 584.03125 747.464844 584.058594 L 746.054688 584.226562 C 746.121094 584.027344 746.1875 583.84375 746.246094 583.625 C 746.550781 582.523438 746.148438 581.328125 745.589844 580.265625 C 746.414062 580.222656 747.570312 580.394531 748.175781 581.523438 C 749.261719 583.574219 749.203125 585.402344 749.195312 585.417969 C 749.183594 585.675781 749.390625 585.894531 749.652344 585.90625 C 749.65625 585.90625 749.667969 585.90625 749.675781 585.90625 C 749.929688 585.90625 750.140625 585.710938 750.152344 585.457031 C 750.15625 585.367188 750.234375 583.367188 749.023438 581.082031 C 748.148438 579.433594 746.355469 579.210938 745.078125 579.378906 C 744.839844 579 744.59375 578.648438 744.386719 578.34375 C 744.230469 578.117188 744.039062 577.847656 743.957031 577.695312 C 744.1875 577.398438 745.203125 576.769531 745.816406 576.769531 C 745.820312 576.769531 745.820312 576.769531 745.820312 576.769531 C 745.871094 576.917969 745.6875 577.425781 745.449219 577.824219 C 745.3125 578.046875 745.386719 578.335938 745.617188 578.46875 C 745.84375 578.601562 746.136719 578.53125 746.273438 578.308594 C 746.453125 578.011719 747.011719 576.992188 746.679688 576.359375 C 746.542969 576.09375 746.285156 575.933594 745.953125 575.898438 C 745.164062 575.820312 744.050781 576.332031 743.449219 576.867188 C 743.128906 577.15625 742.96875 577.425781 742.96875 577.695312 C 742.96875 577.972656 743.164062 578.253906 743.59375 578.871094 C 743.746094 579.09375 743.925781 579.355469 744.117188 579.636719 C 743.726562 579.875 742.894531 580.5 742.460938 581.734375 C 741.921875 583.253906 742.1875 585.648438 742.199219 585.746094 C 742.226562 585.984375 742.433594 586.164062 742.671875 586.164062 C 742.6875 586.164062 742.707031 586.164062 742.726562 586.160156 C 742.984375 586.132812 743.175781 585.898438 743.148438 585.644531 C 743.144531 585.625 742.898438 583.363281 743.367188 582.042969 C 743.746094 580.976562 744.453125 580.53125 744.605469 580.441406 C 745.144531 581.398438 745.574219 582.492188 745.328125 583.378906 C 745.230469 583.730469 745.125 584.039062 745.023438 584.347656 L 744.476562 584.410156 C 744.214844 584.445312 744.023438 584.675781 744.054688 584.929688 C 744.082031 585.167969 744.289062 585.34375 744.527344 585.34375 C 744.550781 585.34375 744.566406 585.34375 744.589844 585.335938 L 744.675781 585.324219 C 744.617188 585.476562 744.554688 585.648438 744.5 585.792969 C 744.121094 586.777344 743.796875 587.628906 743.671875 588.6875 C 743.453125 590.484375 743.929688 592.300781 743.953125 592.375 C 744.007812 592.585938 744.203125 592.726562 744.414062 592.726562 C 744.453125 592.726562 744.496094 592.722656 744.535156 592.710938 C 744.789062 592.648438 744.941406 592.386719 744.875 592.136719 C 744.871094 592.121094 744.421875 590.417969 744.621094 588.792969 C 744.734375 587.859375 745.046875 587.050781 745.402344 586.121094 C 745.511719 585.835938 745.632812 585.519531 745.746094 585.203125 L 746.59375 585.105469 C 746.523438 585.996094 746.371094 588.535156 746.832031 590.265625 C 747.121094 591.347656 747.675781 592.105469 748.480469 592.511719 C 748.910156 592.726562 749.398438 592.839844 749.933594 592.839844 C 750.488281 592.839844 751.097656 592.722656 751.746094 592.488281 C 754.085938 591.640625 754.289062 591.316406 754.351562 591.207031 C 754.476562 590.992188 754.433594 590.667969 754.207031 590.535156 Z M 754.207031 590.535156 " fill-opacity="1" fill-rule="nonzero"/><g clip-path="url(#807f834275)"><path fill="#eab750" d="M 609.246094 543.480469 L 839.496094 543.480469 L 839.496094 544.925781 L 609.246094 544.925781 Z M 609.246094 543.480469 " fill-opacity="1" fill-rule="nonzero"/></g><path fill="#eab750" d="M 621.4375 569.199219 L 827.308594 569.199219 L 827.308594 570.644531 L 621.4375 570.644531 Z M 621.4375 569.199219 " fill-opacity="1" fill-rule="nonzero"/><g clip-path="url(#1f6785856c)"><path fill="#eab750" d="M 636.152344 596.78125 L 808.335938 596.78125 L 808.335938 598.226562 L 636.152344 598.226562 Z M 636.152344 596.78125 " fill-opacity="1" fill-rule="nonzero"/></g></svg>