<svg xmlns="http://www.w3.org/2000/svg" xmlns:xlink="http://www.w3.org/1999/xlink" width="1920" zoomAndPan="magnify" viewBox="0 0 1440 809.999993" height="1080" preserveAspectRatio="xMidYMid meet" version="1.0"><defs><clipPath id="5f68998c1e"><path d="M 604.746094 272.609375 L 834.996094 272.609375 L 834.996094 275 L 604.746094 275 Z M 604.746094 272.609375 " clip-rule="nonzero"/></clipPath><clipPath id="f84063b890"><path d="M 631 325 L 804 325 L 804 327.359375 L 631 327.359375 Z M 631 325 " clip-rule="nonzero"/></clipPath><clipPath id="0d16acfe96"><path d="M 713 534 L 716 534 L 716 536.753906 L 713 536.753906 Z M 713 534 " clip-rule="nonzero"/></clipPath><clipPath id="670e526481"><path d="M 711 534 L 714 534 L 714 536.753906 L 711 536.753906 Z M 711 534 " clip-rule="nonzero"/></clipPath><clipPath id="5a47f8e242"><path d="M 724 534 L 725 534 L 725 536.753906 L 724 536.753906 Z M 724 534 " clip-rule="nonzero"/></clipPath><clipPath id="1a04db42b9"><path d="M 725 534 L 727 534 L 727 536.753906 L 725 536.753906 Z M 725 534 " clip-rule="nonzero"/></clipPath><clipPath id="0fc419a080"><path d="M 719 534 L 722 534 L 722 536.753906 L 719 536.753906 Z M 719 534 " clip-rule="nonzero"/></clipPath><clipPath id="91e1b86bfb"><path d="M 722 534 L 724 534 L 724 536.753906 L 722 536.753906 Z M 722 534 " clip-rule="nonzero"/></clipPath><clipPath id="5e607e8932"><path d="M 707.382812 530.753906 L 732.882812 530.753906 L 732.882812 531 L 707.382812 531 Z M 707.382812 530.753906 " clip-rule="nonzero"/></clipPath><clipPath id="73bb1deed1"><path d="M 710 536 L 730 536 L 730 536.753906 L 710 536.753906 Z M 710 536 " clip-rule="nonzero"/></clipPath></defs><path fill="#eab750" d="M 638.601562 280.285156 C 638.488281 280.1875 635.78125 277.933594 633.25 279.296875 C 632.167969 279.878906 631.164062 281.121094 630.097656 282.433594 C 628.871094 283.953125 627.59375 285.53125 626.316406 285.890625 C 623.632812 286.65625 620.226562 289.570312 620.085938 289.695312 C 619.921875 289.835938 619.855469 290.054688 619.910156 290.257812 C 619.964844 290.464844 620.132812 290.621094 620.34375 290.660156 C 620.792969 290.746094 623.0625 291.164062 625.410156 291.308594 L 625.652344 294.863281 C 625.675781 295.15625 625.914062 295.378906 626.207031 295.378906 L 627.980469 295.378906 C 628.289062 295.378906 628.535156 295.128906 628.535156 294.824219 C 628.535156 294.523438 628.285156 294.273438 627.980469 294.273438 L 626.722656 294.273438 L 626.523438 291.355469 C 626.652344 291.355469 626.785156 291.367188 626.910156 291.367188 C 627.582031 291.367188 628.207031 291.320312 628.789062 291.238281 L 629.039062 294.871094 C 629.058594 295.160156 629.300781 295.382812 629.59375 295.382812 L 631.363281 295.382812 C 631.675781 295.382812 631.917969 295.132812 631.917969 294.832031 C 631.917969 294.527344 631.667969 294.28125 631.363281 294.28125 L 630.109375 294.28125 L 629.882812 290.988281 C 630.21875 290.871094 630.515625 290.730469 630.730469 290.539062 C 631.988281 289.421875 633.445312 286.171875 634.503906 283.808594 C 634.90625 282.910156 635.363281 281.898438 635.503906 281.71875 C 635.707031 281.480469 637.007812 281.265625 638.230469 281.265625 C 638.464844 281.265625 638.671875 281.121094 638.753906 280.902344 C 638.847656 280.679688 638.78125 280.4375 638.601562 280.285156 Z M 634.671875 280.988281 C 634.445312 281.253906 634.128906 281.941406 633.5 283.347656 C 632.539062 285.496094 631.082031 288.738281 629.996094 289.707031 C 629 290.59375 624.816406 290.273438 621.753906 289.78125 C 622.925781 288.878906 624.980469 287.429688 626.625 286.957031 C 628.246094 286.5 629.625 284.789062 630.96875 283.132812 C 631.957031 281.902344 632.894531 280.75 633.78125 280.269531 C 634.679688 279.78125 635.660156 279.96875 636.4375 280.28125 C 635.722656 280.394531 635.003906 280.605469 634.671875 280.988281 Z M 634.671875 280.988281 " fill-opacity="1" fill-rule="nonzero"/><path fill="#eab750" d="M 658.363281 286.464844 L 656.6875 286.464844 C 656.351562 285.816406 655.433594 284.554688 653.269531 284.171875 C 650.570312 283.707031 642.0625 286.378906 641.699219 286.492188 C 641.40625 286.585938 641.242188 286.898438 641.339844 287.191406 C 641.414062 287.429688 641.632812 287.574219 641.871094 287.574219 C 641.925781 287.574219 641.984375 287.5625 642.039062 287.546875 C 642.183594 287.503906 642.382812 287.441406 642.558594 287.390625 C 643.285156 288.0625 645.597656 289.949219 648.980469 290.113281 C 649.113281 290.117188 649.25 290.125 649.386719 290.125 C 652.835938 290.125 655.832031 288.074219 656.515625 287.574219 L 658.367188 287.574219 C 658.675781 287.574219 658.921875 287.324219 658.921875 287.023438 C 658.921875 286.71875 658.671875 286.464844 658.363281 286.464844 Z M 649.03125 289.003906 C 646.617188 288.890625 644.785156 287.742188 643.832031 287.007812 C 645.234375 286.601562 646.972656 286.136719 648.632812 285.777344 C 648.417969 286.519531 648.160156 288.046875 649.539062 288.160156 C 650.984375 288.285156 651.683594 286.148438 651.914062 285.242188 C 652.375 285.210938 652.78125 285.203125 653.074219 285.257812 C 654.644531 285.535156 655.339844 286.363281 655.625 286.839844 C 654.695312 287.472656 651.949219 289.160156 649.03125 289.003906 Z M 649.03125 289.003906 " fill-opacity="1" fill-rule="nonzero"/><path fill="#eab750" d="M 679.664062 280.003906 C 679.085938 280.003906 678.585938 280.355469 678.367188 280.859375 L 665.136719 280.859375 C 664.921875 280.355469 664.421875 280.003906 663.839844 280.003906 C 663.054688 280.003906 662.425781 280.632812 662.425781 281.410156 C 662.425781 282.191406 663.054688 282.820312 663.839844 282.820312 C 664.421875 282.820312 664.921875 282.46875 665.136719 281.964844 L 678.367188 281.964844 C 678.585938 282.46875 679.085938 282.820312 679.664062 282.820312 C 680.449219 282.820312 681.078125 282.191406 681.078125 281.410156 C 681.078125 280.632812 680.441406 280.003906 679.664062 280.003906 Z M 679.664062 280.003906 " fill-opacity="1" fill-rule="nonzero"/><path fill="#eab750" d="M 679.664062 285.707031 C 679.085938 285.707031 678.585938 286.058594 678.367188 286.5625 L 665.136719 286.5625 C 664.921875 286.058594 664.421875 285.707031 663.839844 285.707031 C 663.054688 285.707031 662.425781 286.335938 662.425781 287.113281 C 662.425781 287.894531 663.054688 288.523438 663.839844 288.523438 C 664.421875 288.523438 664.921875 288.171875 665.136719 287.667969 L 678.367188 287.667969 C 678.585938 288.171875 679.085938 288.523438 679.664062 288.523438 C 680.449219 288.523438 681.078125 287.894531 681.078125 287.113281 C 681.078125 286.339844 680.441406 285.707031 679.664062 285.707031 Z M 679.664062 285.707031 " fill-opacity="1" fill-rule="nonzero"/><path fill="#eab750" d="M 679.664062 291.417969 C 679.085938 291.417969 678.585938 291.769531 678.367188 292.273438 L 665.136719 292.273438 C 664.921875 291.769531 664.421875 291.417969 663.839844 291.417969 C 663.054688 291.417969 662.425781 292.042969 662.425781 292.824219 C 662.425781 293.601562 663.054688 294.230469 663.839844 294.230469 C 664.421875 294.230469 664.921875 293.878906 665.136719 293.375 L 678.367188 293.375 C 678.585938 293.878906 679.085938 294.230469 679.664062 294.230469 C 680.449219 294.230469 681.078125 293.601562 681.078125 292.824219 C 681.078125 292.050781 680.441406 291.417969 679.664062 291.417969 Z M 679.664062 291.417969 " fill-opacity="1" fill-rule="nonzero"/><path fill="#eab750" d="M 706.472656 284.289062 L 695.035156 284.289062 C 694.988281 284.144531 694.882812 284.023438 694.742188 283.960938 C 692.726562 283.03125 688.433594 282.261719 686.636719 285.988281 C 685.789062 287.75 685.691406 289.085938 686.34375 289.972656 C 686.871094 290.6875 687.820312 291.042969 689.183594 291.042969 C 689.628906 291.042969 690.113281 291.003906 690.644531 290.929688 C 693 290.59375 694.613281 286.714844 695.089844 285.398438 L 706.46875 285.398438 C 706.777344 285.398438 707.023438 285.152344 707.023438 284.847656 C 707.027344 284.539062 706.777344 284.289062 706.472656 284.289062 Z M 690.488281 289.832031 C 688.816406 290.0625 687.664062 289.886719 687.238281 289.3125 C 686.855469 288.792969 686.988281 287.800781 687.636719 286.464844 C 688.457031 284.761719 689.902344 284.296875 691.238281 284.296875 C 691.984375 284.296875 692.695312 284.441406 693.242188 284.597656 L 689.222656 287.109375 C 688.960938 287.273438 688.886719 287.613281 689.050781 287.871094 C 689.210938 288.132812 689.558594 288.207031 689.816406 288.046875 L 693.847656 285.53125 C 693.195312 287.113281 691.878906 289.632812 690.488281 289.832031 Z M 690.488281 289.832031 " fill-opacity="1" fill-rule="nonzero"/><path fill="#eab750" d="M 729.707031 278.425781 L 729.5 278.484375 C 725.523438 279.664062 722.246094 280.730469 719.632812 281.6875 L 719.632812 279.183594 C 719.929688 279.140625 720.269531 279.097656 720.660156 279.042969 C 721.019531 278.992188 721.269531 278.664062 721.214844 278.304688 C 721.164062 277.949219 720.8125 277.722656 720.480469 277.75 C 720.480469 277.75 717.773438 278.121094 717.480469 278.148438 C 717.132812 278.164062 716.863281 278.453125 716.863281 278.796875 C 716.863281 279.15625 717.15625 279.449219 717.515625 279.449219 C 717.546875 279.449219 717.613281 279.449219 718.328125 279.351562 L 718.328125 282.179688 C 714.550781 283.636719 712.449219 284.816406 712.179688 285.679688 C 712.074219 286.023438 712.136719 286.359375 712.359375 286.632812 C 713.378906 287.898438 714.675781 288.171875 715.597656 288.171875 C 716.230469 288.171875 716.675781 288.046875 716.71875 288.03125 C 717.066406 287.925781 717.265625 287.570312 717.160156 287.222656 C 717.058594 286.882812 716.691406 286.671875 716.351562 286.785156 C 716.335938 286.785156 714.671875 287.253906 713.5 285.96875 C 713.894531 285.503906 715.496094 284.675781 718.328125 283.570312 L 718.328125 293.417969 C 718.328125 293.777344 718.621094 294.066406 718.980469 294.066406 L 728.765625 294.066406 C 729.125 294.066406 729.417969 293.777344 729.417969 293.417969 C 729.417969 293.0625 729.125 292.769531 728.765625 292.769531 L 723.304688 292.769531 L 723.304688 285.214844 C 723.304688 284.859375 723.011719 284.566406 722.652344 284.566406 C 722.296875 284.566406 722 284.859375 722 285.214844 L 722 292.769531 L 719.632812 292.769531 L 719.632812 283.082031 C 722.222656 282.125 725.59375 281 729.875 279.730469 L 730.113281 279.660156 C 730.457031 279.546875 730.636719 279.183594 730.527344 278.839844 C 730.414062 278.507812 730.054688 278.320312 729.707031 278.425781 Z M 729.707031 278.425781 " fill-opacity="1" fill-rule="nonzero"/><path fill="#eab750" d="M 753.792969 283.664062 C 753.574219 283.453125 753.222656 283.457031 753.003906 283.671875 L 752.074219 284.625 C 751.546875 283.46875 750.386719 282.78125 750.320312 282.742188 C 750.054688 282.589844 749.714844 282.683594 749.5625 282.949219 C 749.414062 283.214844 749.503906 283.550781 749.769531 283.699219 C 749.789062 283.710938 751.152344 284.519531 751.222656 285.671875 C 751.128906 285.988281 750.742188 287.164062 749.808594 287.613281 C 749.222656 287.882812 747.65625 287.28125 746.511719 286.839844 C 745.457031 286.433594 744.542969 286.082031 743.863281 286.082031 C 743.09375 286.082031 742.222656 286.515625 741.300781 286.972656 C 740.324219 287.460938 739.214844 288.019531 738.234375 288.019531 C 736.476562 288.019531 735.175781 286.640625 735.167969 286.628906 C 734.960938 286.402344 734.605469 286.390625 734.378906 286.59375 C 734.148438 286.800781 734.140625 287.152344 734.347656 287.375 C 734.410156 287.445312 735.980469 289.121094 738.234375 289.121094 C 739.480469 289.121094 740.714844 288.503906 741.800781 287.964844 C 742.597656 287.5625 743.355469 287.183594 743.863281 287.183594 C 744.335938 287.183594 745.234375 287.53125 746.109375 287.871094 C 747.667969 288.472656 749.28125 289.101562 750.292969 288.609375 C 751.617188 287.976562 752.144531 286.488281 752.292969 285.988281 L 753.8125 284.429688 C 754.019531 284.230469 754.015625 283.878906 753.792969 283.664062 Z M 753.792969 283.664062 " fill-opacity="1" fill-rule="nonzero"/><path fill="#eab750" d="M 761.582031 279.414062 C 761.136719 279.414062 760.777344 279.808594 760.777344 280.296875 L 760.777344 291.796875 C 760.777344 292.28125 761.136719 292.675781 761.582031 292.675781 C 762.027344 292.675781 762.386719 292.28125 762.386719 291.796875 L 762.386719 280.300781 C 762.386719 279.816406 762.027344 279.414062 761.582031 279.414062 Z M 761.582031 279.414062 " fill-opacity="1" fill-rule="nonzero"/><path fill="#eab750" d="M 779.679688 279.414062 L 771.78125 279.414062 C 771.335938 279.414062 770.976562 279.808594 770.976562 280.296875 L 770.976562 291.796875 C 770.976562 292.28125 771.335938 292.675781 771.78125 292.675781 C 772.226562 292.675781 772.585938 292.28125 772.585938 291.796875 L 772.585938 281.183594 L 778.875 281.183594 L 778.875 291.796875 C 778.875 292.28125 779.234375 292.675781 779.679688 292.675781 C 780.125 292.675781 780.484375 292.28125 780.484375 291.796875 L 780.484375 280.300781 C 780.484375 279.816406 780.125 279.414062 779.679688 279.414062 Z M 779.679688 279.414062 " fill-opacity="1" fill-rule="nonzero"/><path fill="#eab750" d="M 801.304688 277.640625 C 800.597656 277.265625 799.179688 276.871094 798.347656 277.75 C 798.121094 277.988281 798.019531 278.289062 798.050781 278.625 C 798.109375 279.257812 798.679688 279.933594 799.203125 280.433594 C 791.199219 282.320312 786.988281 289.402344 786.808594 289.710938 C 786.710938 289.886719 786.710938 290.097656 786.808594 290.269531 C 786.90625 290.4375 787.09375 290.546875 787.292969 290.546875 L 787.296875 290.546875 C 787.417969 290.546875 789.097656 290.523438 790.953125 290.378906 L 791.175781 293.691406 C 791.199219 293.980469 791.4375 294.210938 791.730469 294.210938 L 793.503906 294.210938 C 793.8125 294.210938 794.058594 293.960938 794.058594 293.65625 C 794.058594 293.355469 793.808594 293.105469 793.503906 293.105469 L 792.253906 293.105469 L 792.0625 290.28125 C 792.871094 290.195312 793.644531 290.074219 794.3125 289.917969 L 794.566406 293.695312 C 794.589844 293.988281 794.828125 294.214844 795.121094 294.214844 L 796.894531 294.214844 C 797.203125 294.214844 797.449219 293.964844 797.449219 293.664062 C 797.449219 293.359375 797.199219 293.109375 796.894531 293.109375 L 795.644531 293.109375 L 795.398438 289.523438 C 797.816406 287.984375 800.542969 281.671875 800.871094 280.902344 C 800.96875 280.664062 800.890625 280.394531 800.6875 280.242188 C 799.789062 279.582031 799.117188 278.761719 799.164062 278.527344 C 799.542969 278.121094 800.492188 278.480469 800.792969 278.636719 C 801.0625 278.777344 801.402344 278.671875 801.542969 278.402344 C 801.679688 278.117188 801.578125 277.78125 801.304688 277.640625 Z M 794.492188 288.722656 C 792.878906 289.199219 789.910156 289.355469 788.335938 289.410156 C 789.699219 287.5 793.46875 282.964844 799.359375 281.53125 C 798.019531 284.464844 795.855469 288.328125 794.492188 288.722656 Z M 794.492188 288.722656 " fill-opacity="1" fill-rule="nonzero"/><path fill="#eab750" d="M 821.75 291.753906 C 821.527344 291.621094 821.261719 291.65625 821.121094 291.875 C 821.109375 291.886719 820.773438 292.175781 818.941406 292.835938 C 817.9375 293.195312 817.078125 293.222656 816.453125 292.90625 C 815.898438 292.625 815.507812 292.066406 815.289062 291.25 C 814.835938 289.539062 815.046875 286.796875 815.09375 286.207031 L 815.121094 286.199219 C 815.382812 286.167969 815.574219 285.933594 815.539062 285.675781 C 815.507812 285.417969 815.261719 285.242188 815.007812 285.269531 L 813.601562 285.4375 C 813.664062 285.238281 813.730469 285.054688 813.789062 284.835938 C 814.09375 283.734375 813.691406 282.539062 813.132812 281.476562 C 813.960938 281.433594 815.117188 281.605469 815.71875 282.730469 C 816.804688 284.78125 816.746094 286.613281 816.742188 286.628906 C 816.730469 286.886719 816.9375 287.105469 817.199219 287.113281 C 817.203125 287.113281 817.214844 287.113281 817.21875 287.113281 C 817.472656 287.113281 817.6875 286.921875 817.699219 286.664062 C 817.703125 286.578125 817.777344 284.578125 816.566406 282.292969 C 815.691406 280.644531 813.898438 280.421875 812.621094 280.589844 C 812.382812 280.210938 812.140625 279.859375 811.933594 279.554688 C 811.773438 279.328125 811.585938 279.058594 811.503906 278.90625 C 811.730469 278.609375 812.746094 277.980469 813.363281 277.980469 C 813.367188 277.980469 813.367188 277.980469 813.367188 277.980469 C 813.414062 278.128906 813.230469 278.636719 812.992188 279.035156 C 812.855469 279.257812 812.933594 279.546875 813.160156 279.675781 C 813.390625 279.804688 813.683594 279.734375 813.816406 279.511719 C 813.996094 279.214844 814.558594 278.199219 814.226562 277.566406 C 814.089844 277.300781 813.828125 277.136719 813.496094 277.105469 C 812.710938 277.023438 811.597656 277.539062 810.992188 278.074219 C 810.671875 278.359375 810.515625 278.628906 810.515625 278.902344 C 810.515625 279.175781 810.710938 279.457031 811.140625 280.074219 C 811.292969 280.296875 811.472656 280.5625 811.660156 280.84375 C 811.269531 281.082031 810.4375 281.703125 810.003906 282.9375 C 809.464844 284.457031 809.730469 286.855469 809.742188 286.953125 C 809.769531 287.191406 809.976562 287.371094 810.214844 287.371094 C 810.230469 287.371094 810.253906 287.371094 810.269531 287.363281 C 810.53125 287.335938 810.722656 287.105469 810.695312 286.851562 C 810.6875 286.828125 810.4375 284.566406 810.910156 283.246094 C 811.292969 282.179688 811.996094 281.738281 812.148438 281.644531 C 812.6875 282.601562 813.117188 283.695312 812.871094 284.582031 C 812.773438 284.933594 812.671875 285.242188 812.566406 285.550781 L 812.019531 285.617188 C 811.757812 285.648438 811.570312 285.882812 811.601562 286.140625 C 811.628906 286.378906 811.835938 286.550781 812.074219 286.550781 C 812.09375 286.550781 812.113281 286.550781 812.132812 286.546875 L 812.21875 286.535156 C 812.160156 286.6875 812.101562 286.859375 812.046875 287 C 811.667969 287.984375 811.339844 288.839844 811.214844 289.894531 C 811 291.691406 811.476562 293.511719 811.496094 293.585938 C 811.550781 293.796875 811.746094 293.9375 811.960938 293.9375 C 811.996094 293.9375 812.042969 293.933594 812.078125 293.921875 C 812.335938 293.855469 812.488281 293.597656 812.421875 293.347656 C 812.417969 293.332031 811.964844 291.628906 812.167969 290.003906 C 812.28125 289.070312 812.589844 288.261719 812.949219 287.332031 C 813.058594 287.042969 813.175781 286.730469 813.289062 286.410156 L 814.136719 286.3125 C 814.066406 287.207031 813.914062 289.746094 814.378906 291.476562 C 814.664062 292.558594 815.21875 293.316406 816.023438 293.722656 C 816.453125 293.9375 816.941406 294.050781 817.480469 294.050781 C 818.035156 294.050781 818.644531 293.933594 819.289062 293.699219 C 821.632812 292.851562 821.832031 292.527344 821.898438 292.417969 C 822.023438 292.210938 821.980469 291.886719 821.75 291.753906 Z M 821.75 291.753906 " fill-opacity="1" fill-rule="nonzero"/><path fill="#eab750" d="M 681.507812 308.195312 C 681.394531 308.097656 678.6875 305.84375 676.15625 307.207031 C 675.074219 307.789062 674.070312 309.03125 673.003906 310.34375 C 671.777344 311.867188 670.5 313.441406 669.222656 313.800781 C 666.539062 314.566406 663.132812 317.480469 662.992188 317.605469 C 662.828125 317.746094 662.761719 317.964844 662.816406 318.167969 C 662.871094 318.375 663.039062 318.53125 663.25 318.570312 C 663.699219 318.65625 665.96875 319.074219 668.316406 319.21875 L 668.558594 322.773438 C 668.582031 323.066406 668.820312 323.289062 669.113281 323.289062 L 670.886719 323.289062 C 671.195312 323.289062 671.441406 323.039062 671.441406 322.734375 C 671.441406 322.433594 671.191406 322.183594 670.886719 322.183594 L 669.628906 322.183594 L 669.429688 319.269531 C 669.558594 319.269531 669.683594 319.277344 669.816406 319.277344 C 670.488281 319.277344 671.113281 319.230469 671.695312 319.148438 L 671.945312 322.78125 C 671.96875 323.070312 672.207031 323.292969 672.5 323.292969 L 674.269531 323.292969 C 674.582031 323.292969 674.824219 323.042969 674.824219 322.742188 C 674.824219 322.4375 674.574219 322.191406 674.269531 322.191406 L 673.015625 322.191406 L 672.789062 318.898438 C 673.125 318.78125 673.421875 318.640625 673.636719 318.449219 C 674.894531 317.332031 676.351562 314.082031 677.410156 311.71875 C 677.8125 310.820312 678.269531 309.808594 678.410156 309.628906 C 678.613281 309.390625 679.914062 309.175781 681.136719 309.175781 C 681.371094 309.175781 681.578125 309.03125 681.660156 308.8125 C 681.753906 308.589844 681.6875 308.347656 681.507812 308.195312 Z M 677.578125 308.90625 C 677.351562 309.171875 677.035156 309.859375 676.40625 311.265625 C 675.445312 313.414062 673.988281 316.652344 672.90625 317.621094 C 671.914062 318.511719 667.730469 318.191406 664.664062 317.699219 C 665.839844 316.792969 667.890625 315.34375 669.539062 314.875 C 671.15625 314.414062 672.539062 312.703125 673.878906 311.046875 C 674.867188 309.820312 675.808594 308.667969 676.695312 308.1875 C 677.589844 307.699219 678.574219 307.882812 679.351562 308.195312 C 678.628906 308.308594 677.910156 308.519531 677.578125 308.90625 Z M 677.578125 308.90625 " fill-opacity="1" fill-rule="nonzero"/><path fill="#eab750" d="M 803.121094 313.308594 L 801.445312 313.308594 C 801.109375 312.660156 800.191406 311.398438 798.027344 311.015625 C 795.328125 310.550781 786.820312 313.222656 786.457031 313.335938 C 786.164062 313.429688 786 313.742188 786.097656 314.035156 C 786.171875 314.273438 786.390625 314.417969 786.628906 314.417969 C 786.683594 314.417969 786.746094 314.410156 786.796875 314.390625 C 786.941406 314.347656 787.140625 314.285156 787.316406 314.234375 C 788.042969 314.90625 790.355469 316.792969 793.738281 316.957031 C 793.871094 316.960938 794.007812 316.96875 794.144531 316.96875 C 797.59375 316.96875 800.589844 314.917969 801.273438 314.417969 L 803.125 314.417969 C 803.433594 314.417969 803.679688 314.171875 803.679688 313.867188 C 803.675781 313.558594 803.429688 313.308594 803.121094 313.308594 Z M 793.792969 315.847656 C 791.375 315.734375 789.542969 314.585938 788.589844 313.851562 C 789.992188 313.445312 791.730469 312.980469 793.390625 312.621094 C 793.175781 313.363281 792.917969 314.890625 794.296875 315.003906 C 795.742188 315.128906 796.441406 312.992188 796.671875 312.085938 C 797.132812 312.054688 797.539062 312.050781 797.832031 312.101562 C 799.402344 312.378906 800.097656 313.207031 800.382812 313.683594 C 799.453125 314.316406 796.707031 316 793.792969 315.847656 Z M 793.792969 315.847656 " fill-opacity="1" fill-rule="nonzero"/><path fill="#eab750" d="M 705.414062 312.199219 L 693.976562 312.199219 C 693.929688 312.054688 693.824219 311.9375 693.683594 311.871094 C 691.667969 310.941406 687.375 310.171875 685.578125 313.894531 C 684.730469 315.652344 684.632812 316.988281 685.285156 317.878906 C 685.8125 318.589844 686.761719 318.949219 688.125 318.949219 C 688.570312 318.949219 689.054688 318.910156 689.585938 318.835938 C 691.941406 318.5 693.554688 314.621094 694.03125 313.304688 L 705.410156 313.304688 C 705.71875 313.304688 705.960938 313.054688 705.960938 312.753906 C 705.96875 312.449219 705.71875 312.199219 705.414062 312.199219 Z M 689.429688 317.746094 C 687.757812 317.980469 686.605469 317.800781 686.179688 317.226562 C 685.792969 316.707031 685.929688 315.71875 686.578125 314.382812 C 687.398438 312.675781 688.84375 312.210938 690.179688 312.210938 C 690.921875 312.210938 691.636719 312.359375 692.183594 312.515625 L 688.164062 315.027344 C 687.902344 315.1875 687.828125 315.527344 687.988281 315.789062 C 688.152344 316.046875 688.5 316.125 688.753906 315.960938 L 692.785156 313.445312 C 692.136719 315.027344 690.824219 317.542969 689.429688 317.746094 Z M 689.429688 317.746094 " fill-opacity="1" fill-rule="nonzero"/><path fill="#eab750" d="M 655.875 306.339844 L 655.667969 306.398438 C 651.691406 307.578125 648.414062 308.644531 645.800781 309.605469 L 645.800781 307.097656 C 646.097656 307.054688 646.4375 307.011719 646.828125 306.957031 C 647.1875 306.910156 647.4375 306.578125 647.382812 306.222656 C 647.332031 305.863281 646.980469 305.636719 646.648438 305.664062 C 646.648438 305.664062 643.941406 306.039062 643.648438 306.066406 C 643.300781 306.082031 643.03125 306.367188 643.03125 306.714844 C 643.03125 307.070312 643.324219 307.363281 643.679688 307.363281 C 643.714844 307.363281 643.777344 307.363281 644.496094 307.265625 L 644.496094 310.097656 C 640.71875 311.558594 638.621094 312.730469 638.351562 313.597656 C 638.25 313.9375 638.308594 314.273438 638.53125 314.550781 C 639.550781 315.816406 640.851562 316.085938 641.769531 316.085938 C 642.40625 316.085938 642.851562 315.960938 642.894531 315.945312 C 643.242188 315.84375 643.4375 315.484375 643.332031 315.140625 C 643.230469 314.796875 642.867188 314.585938 642.523438 314.699219 C 642.507812 314.699219 640.84375 315.171875 639.671875 313.882812 C 640.066406 313.417969 641.671875 312.589844 644.5 311.488281 L 644.5 321.328125 C 644.5 321.6875 644.796875 321.980469 645.152344 321.980469 L 654.9375 321.980469 C 655.296875 321.980469 655.589844 321.6875 655.589844 321.328125 C 655.589844 320.972656 655.296875 320.679688 654.9375 320.679688 L 649.472656 320.679688 L 649.472656 313.132812 C 649.472656 312.773438 649.179688 312.480469 648.820312 312.480469 C 648.460938 312.480469 648.167969 312.773438 648.167969 313.132812 L 648.167969 320.683594 L 645.804688 320.683594 L 645.804688 311 C 648.398438 310.042969 651.765625 308.917969 656.046875 307.644531 L 656.285156 307.574219 C 656.628906 307.460938 656.808594 307.097656 656.699219 306.757812 C 656.585938 306.421875 656.226562 306.234375 655.875 306.339844 Z M 655.875 306.339844 " fill-opacity="1" fill-rule="nonzero"/><path fill="#eab750" d="M 760.527344 307.332031 C 760.082031 307.332031 759.726562 307.726562 759.726562 308.214844 L 759.726562 319.707031 C 759.726562 320.191406 760.082031 320.589844 760.527344 320.589844 C 760.972656 320.589844 761.332031 320.191406 761.332031 319.707031 L 761.332031 308.214844 C 761.332031 307.726562 760.96875 307.332031 760.527344 307.332031 Z M 760.527344 307.332031 " fill-opacity="1" fill-rule="nonzero"/><path fill="#eab750" d="M 778.621094 307.332031 L 770.722656 307.332031 C 770.277344 307.332031 769.917969 307.726562 769.917969 308.214844 L 769.917969 319.707031 C 769.917969 320.191406 770.277344 320.589844 770.722656 320.589844 C 771.167969 320.589844 771.527344 320.191406 771.527344 319.707031 L 771.527344 309.09375 L 777.816406 309.09375 L 777.816406 319.707031 C 777.816406 320.191406 778.175781 320.589844 778.621094 320.589844 C 779.066406 320.589844 779.425781 320.191406 779.425781 319.707031 L 779.425781 308.214844 C 779.425781 307.726562 779.066406 307.332031 778.621094 307.332031 Z M 778.621094 307.332031 " fill-opacity="1" fill-rule="nonzero"/><path fill="#eab750" d="M 729.226562 305.550781 C 728.523438 305.175781 727.101562 304.78125 726.273438 305.660156 C 726.042969 305.898438 725.941406 306.199219 725.972656 306.535156 C 726.03125 307.167969 726.605469 307.84375 727.125 308.34375 C 719.121094 310.230469 714.910156 317.308594 714.730469 317.621094 C 714.632812 317.796875 714.632812 318.007812 714.730469 318.179688 C 714.828125 318.347656 715.015625 318.457031 715.214844 318.457031 L 715.222656 318.457031 C 715.339844 318.457031 717.019531 318.433594 718.878906 318.289062 L 719.101562 321.601562 C 719.121094 321.890625 719.359375 322.121094 719.65625 322.121094 L 721.425781 322.121094 C 721.734375 322.121094 721.980469 321.871094 721.980469 321.566406 C 721.980469 321.265625 721.730469 321.015625 721.425781 321.015625 L 720.175781 321.015625 L 719.984375 318.191406 C 720.796875 318.105469 721.566406 317.984375 722.234375 317.828125 L 722.492188 321.605469 C 722.511719 321.898438 722.75 322.125 723.042969 322.125 L 724.816406 322.125 C 725.125 322.125 725.371094 321.875 725.371094 321.574219 C 725.371094 321.269531 725.121094 321.019531 724.816406 321.019531 L 723.566406 321.019531 L 723.320312 317.433594 C 725.738281 315.898438 728.46875 309.582031 728.792969 308.8125 C 728.890625 308.574219 728.816406 308.304688 728.609375 308.152344 C 727.710938 307.492188 727.039062 306.671875 727.085938 306.4375 C 727.46875 306.03125 728.414062 306.390625 728.71875 306.546875 C 728.984375 306.6875 729.324219 306.585938 729.46875 306.3125 C 729.601562 306.03125 729.5 305.695312 729.226562 305.550781 Z M 722.421875 316.636719 C 720.804688 317.113281 717.839844 317.269531 716.265625 317.324219 C 717.628906 315.414062 721.398438 310.878906 727.289062 309.445312 C 725.941406 312.375 723.777344 316.238281 722.421875 316.636719 Z M 722.421875 316.636719 " fill-opacity="1" fill-rule="nonzero"/><path fill="#eab750" d="M 749.707031 319.667969 C 749.484375 319.539062 749.214844 319.570312 749.074219 319.792969 C 749.066406 319.804688 748.726562 320.089844 746.898438 320.75 C 745.890625 321.113281 745.03125 321.140625 744.410156 320.820312 C 743.855469 320.539062 743.464844 319.980469 743.246094 319.164062 C 742.789062 317.453125 743 314.710938 743.050781 314.121094 L 743.078125 314.117188 C 743.339844 314.082031 743.527344 313.851562 743.496094 313.597656 C 743.464844 313.335938 743.21875 313.164062 742.964844 313.191406 L 741.554688 313.359375 C 741.621094 313.160156 741.6875 312.976562 741.746094 312.757812 C 742.050781 311.65625 741.648438 310.457031 741.089844 309.398438 C 741.914062 309.355469 743.070312 309.527344 743.675781 310.652344 C 744.761719 312.703125 744.703125 314.53125 744.695312 314.550781 C 744.683594 314.808594 744.890625 315.027344 745.152344 315.035156 C 745.15625 315.035156 745.167969 315.035156 745.175781 315.035156 C 745.429688 315.035156 745.640625 314.839844 745.652344 314.585938 C 745.65625 314.5 745.734375 312.5 744.523438 310.214844 C 743.648438 308.566406 741.855469 308.34375 740.578125 308.511719 C 740.339844 308.132812 740.09375 307.78125 739.886719 307.476562 C 739.730469 307.25 739.539062 306.980469 739.457031 306.828125 C 739.6875 306.53125 740.703125 305.902344 741.316406 305.902344 C 741.320312 305.902344 741.320312 305.902344 741.320312 305.902344 C 741.371094 306.046875 741.1875 306.558594 740.949219 306.957031 C 740.8125 307.179688 740.886719 307.464844 741.117188 307.601562 C 741.34375 307.730469 741.636719 307.660156 741.773438 307.4375 C 741.953125 307.140625 742.511719 306.125 742.179688 305.492188 C 742.042969 305.226562 741.785156 305.0625 741.453125 305.03125 C 740.664062 304.949219 739.550781 305.464844 738.949219 306 C 738.628906 306.285156 738.46875 306.558594 738.46875 306.828125 C 738.46875 307.105469 738.664062 307.386719 739.09375 308 C 739.246094 308.222656 739.425781 308.488281 739.617188 308.769531 C 739.226562 309.007812 738.394531 309.628906 737.960938 310.863281 C 737.421875 312.386719 737.6875 314.78125 737.699219 314.878906 C 737.726562 315.117188 737.933594 315.296875 738.171875 315.296875 C 738.1875 315.296875 738.207031 315.296875 738.226562 315.289062 C 738.484375 315.261719 738.675781 315.03125 738.648438 314.777344 C 738.644531 314.753906 738.398438 312.492188 738.867188 311.171875 C 739.246094 310.105469 739.953125 309.664062 740.105469 309.570312 C 740.644531 310.527344 741.074219 311.621094 740.828125 312.507812 C 740.730469 312.859375 740.625 313.167969 740.523438 313.476562 L 739.976562 313.542969 C 739.714844 313.574219 739.523438 313.808594 739.554688 314.0625 C 739.582031 314.300781 739.789062 314.472656 740.027344 314.472656 C 740.050781 314.472656 740.066406 314.472656 740.089844 314.46875 L 740.175781 314.457031 C 740.117188 314.609375 740.054688 314.78125 740 314.921875 C 739.621094 315.90625 739.296875 316.761719 739.171875 317.816406 C 738.953125 319.613281 739.429688 321.433594 739.453125 321.507812 C 739.507812 321.71875 739.703125 321.859375 739.914062 321.859375 C 739.953125 321.859375 739.996094 321.855469 740.035156 321.84375 C 740.289062 321.777344 740.441406 321.519531 740.375 321.269531 C 740.371094 321.253906 739.921875 319.550781 740.121094 317.925781 C 740.234375 316.988281 740.546875 316.183594 740.902344 315.253906 C 741.011719 314.964844 741.132812 314.652344 741.246094 314.332031 L 742.09375 314.234375 C 742.023438 315.128906 741.871094 317.667969 742.332031 319.398438 C 742.621094 320.480469 743.175781 321.238281 743.980469 321.644531 C 744.410156 321.859375 744.898438 321.972656 745.433594 321.972656 C 745.988281 321.972656 746.597656 321.855469 747.246094 321.621094 C 749.585938 320.773438 749.789062 320.449219 749.851562 320.339844 C 749.976562 320.121094 749.933594 319.796875 749.707031 319.667969 Z M 749.707031 319.667969 " fill-opacity="1" fill-rule="nonzero"/><g clip-path="url(#5f68998c1e)"><path fill="#eab750" d="M 604.746094 272.613281 L 834.996094 272.613281 L 834.996094 274.058594 L 604.746094 274.058594 Z M 604.746094 272.613281 " fill-opacity="1" fill-rule="nonzero"/></g><path fill="#eab750" d="M 616.9375 298.332031 L 822.808594 298.332031 L 822.808594 299.777344 L 616.9375 299.777344 Z M 616.9375 298.332031 " fill-opacity="1" fill-rule="nonzero"/><g clip-path="url(#f84063b890)"><path fill="#eab750" d="M 631.652344 325.914062 L 803.835938 325.914062 L 803.835938 327.355469 L 631.652344 327.355469 Z M 631.652344 325.914062 " fill-opacity="1" fill-rule="nonzero"/></g><path fill="#eab750" d="M 711.128906 531.59375 C 711.117188 531.585938 710.820312 531.335938 710.539062 531.488281 C 710.417969 531.550781 710.308594 531.6875 710.1875 531.832031 C 710.054688 531.996094 709.910156 532.167969 709.769531 532.210938 C 709.472656 532.292969 709.09375 532.613281 709.078125 532.625 C 709.0625 532.640625 709.054688 532.664062 709.0625 532.6875 C 709.066406 532.710938 709.085938 532.726562 709.109375 532.730469 C 709.160156 532.742188 709.410156 532.785156 709.667969 532.804688 L 709.695312 533.191406 C 709.699219 533.226562 709.726562 533.25 709.757812 533.25 L 709.953125 533.25 C 709.988281 533.25 710.015625 533.222656 710.015625 533.1875 C 710.015625 533.15625 709.988281 533.128906 709.953125 533.128906 L 709.816406 533.128906 L 709.792969 532.808594 C 709.808594 532.808594 709.820312 532.808594 709.835938 532.808594 C 709.910156 532.808594 709.980469 532.804688 710.042969 532.796875 L 710.070312 533.191406 C 710.074219 533.226562 710.101562 533.25 710.132812 533.25 L 710.328125 533.25 C 710.363281 533.25 710.390625 533.222656 710.390625 533.1875 C 710.390625 533.15625 710.363281 533.128906 710.328125 533.128906 L 710.191406 533.128906 L 710.164062 532.769531 C 710.203125 532.753906 710.234375 532.738281 710.257812 532.71875 C 710.398438 532.597656 710.558594 532.242188 710.675781 531.980469 C 710.722656 531.882812 710.773438 531.773438 710.789062 531.753906 C 710.808594 531.726562 710.953125 531.703125 711.089844 531.703125 C 711.117188 531.703125 711.136719 531.6875 711.148438 531.664062 C 711.15625 531.640625 711.152344 531.613281 711.128906 531.59375 Z M 710.695312 531.671875 C 710.671875 531.703125 710.636719 531.777344 710.566406 531.929688 C 710.460938 532.167969 710.296875 532.523438 710.175781 532.628906 C 710.066406 532.726562 709.605469 532.691406 709.265625 532.636719 C 709.394531 532.535156 709.621094 532.378906 709.804688 532.328125 C 709.984375 532.277344 710.136719 532.089844 710.285156 531.90625 C 710.394531 531.773438 710.5 531.644531 710.597656 531.59375 C 710.695312 531.539062 710.804688 531.558594 710.890625 531.59375 C 710.8125 531.605469 710.730469 531.628906 710.695312 531.671875 Z M 710.695312 531.671875 " fill-opacity="1" fill-rule="nonzero"/><path fill="#eab750" d="M 713.320312 532.273438 L 713.132812 532.273438 C 713.097656 532.203125 712.996094 532.0625 712.753906 532.019531 C 712.457031 531.96875 711.515625 532.261719 711.472656 532.277344 C 711.441406 532.285156 711.421875 532.320312 711.433594 532.351562 C 711.441406 532.378906 711.464844 532.394531 711.492188 532.394531 C 711.5 532.394531 711.503906 532.394531 711.511719 532.390625 C 711.527344 532.386719 711.550781 532.378906 711.570312 532.375 C 711.648438 532.449219 711.90625 532.652344 712.28125 532.671875 C 712.296875 532.671875 712.308594 532.671875 712.324219 532.671875 C 712.707031 532.671875 713.039062 532.449219 713.113281 532.394531 L 713.320312 532.394531 C 713.355469 532.394531 713.382812 532.367188 713.382812 532.332031 C 713.382812 532.300781 713.351562 532.273438 713.320312 532.273438 Z M 712.285156 532.550781 C 712.019531 532.539062 711.816406 532.414062 711.710938 532.332031 C 711.867188 532.289062 712.058594 532.234375 712.242188 532.195312 C 712.21875 532.277344 712.1875 532.445312 712.34375 532.457031 C 712.503906 532.472656 712.578125 532.238281 712.605469 532.136719 C 712.65625 532.136719 712.703125 532.132812 712.734375 532.140625 C 712.90625 532.171875 712.984375 532.261719 713.015625 532.3125 C 712.914062 532.382812 712.609375 532.566406 712.285156 532.550781 Z M 712.285156 532.550781 " fill-opacity="1" fill-rule="nonzero"/><path fill="#eab750" d="M 715.679688 531.566406 C 715.613281 531.566406 715.558594 531.601562 715.535156 531.660156 L 714.070312 531.660156 C 714.046875 531.601562 713.988281 531.566406 713.925781 531.566406 C 713.839844 531.566406 713.769531 531.632812 713.769531 531.71875 C 713.769531 531.804688 713.839844 531.871094 713.925781 531.871094 C 713.988281 531.871094 714.046875 531.835938 714.070312 531.777344 L 715.535156 531.777344 C 715.558594 531.835938 715.613281 531.871094 715.679688 531.871094 C 715.765625 531.871094 715.835938 531.804688 715.835938 531.71875 C 715.835938 531.632812 715.765625 531.566406 715.679688 531.566406 Z M 715.679688 531.566406 " fill-opacity="1" fill-rule="nonzero"/><path fill="#eab750" d="M 715.679688 532.191406 C 715.613281 532.191406 715.558594 532.226562 715.535156 532.28125 L 714.070312 532.28125 C 714.046875 532.226562 713.988281 532.191406 713.925781 532.191406 C 713.839844 532.191406 713.769531 532.257812 713.769531 532.34375 C 713.769531 532.429688 713.839844 532.496094 713.925781 532.496094 C 713.988281 532.496094 714.046875 532.460938 714.070312 532.402344 L 715.535156 532.402344 C 715.558594 532.460938 715.613281 532.496094 715.679688 532.496094 C 715.765625 532.496094 715.835938 532.429688 715.835938 532.34375 C 715.835938 532.257812 715.765625 532.191406 715.679688 532.191406 Z M 715.679688 532.191406 " fill-opacity="1" fill-rule="nonzero"/><path fill="#eab750" d="M 715.679688 532.816406 C 715.613281 532.816406 715.558594 532.851562 715.535156 532.910156 L 714.070312 532.910156 C 714.046875 532.851562 713.988281 532.816406 713.925781 532.816406 C 713.839844 532.816406 713.769531 532.882812 713.769531 532.96875 C 713.769531 533.054688 713.839844 533.125 713.925781 533.125 C 713.988281 533.125 714.046875 533.085938 714.070312 533.03125 L 715.535156 533.03125 C 715.558594 533.085938 715.613281 533.125 715.679688 533.125 C 715.765625 533.125 715.835938 533.054688 715.835938 532.96875 C 715.835938 532.882812 715.765625 532.816406 715.679688 532.816406 Z M 715.679688 532.816406 " fill-opacity="1" fill-rule="nonzero"/><path fill="#eab750" d="M 718.648438 532.035156 L 717.378906 532.035156 C 717.375 532.019531 717.363281 532.003906 717.347656 531.996094 C 717.125 531.894531 716.648438 531.8125 716.449219 532.21875 C 716.355469 532.414062 716.347656 532.558594 716.417969 532.65625 C 716.476562 532.734375 716.582031 532.773438 716.734375 532.773438 C 716.78125 532.773438 716.835938 532.769531 716.894531 532.761719 C 717.15625 532.726562 717.332031 532.300781 717.386719 532.15625 L 718.648438 532.15625 C 718.679688 532.15625 718.707031 532.128906 718.707031 532.09375 C 718.707031 532.0625 718.679688 532.035156 718.648438 532.035156 Z M 716.878906 532.640625 C 716.691406 532.667969 716.5625 532.648438 716.515625 532.585938 C 716.476562 532.527344 716.488281 532.417969 716.5625 532.273438 C 716.652344 532.085938 716.8125 532.035156 716.960938 532.035156 C 717.042969 532.035156 717.121094 532.050781 717.183594 532.066406 L 716.738281 532.34375 C 716.707031 532.359375 716.699219 532.398438 716.71875 532.425781 C 716.734375 532.457031 716.773438 532.464844 716.800781 532.445312 L 717.25 532.167969 C 717.175781 532.34375 717.03125 532.621094 716.878906 532.640625 Z M 716.878906 532.640625 " fill-opacity="1" fill-rule="nonzero"/><path fill="#eab750" d="M 721.21875 531.390625 L 721.199219 531.398438 C 720.757812 531.527344 720.394531 531.644531 720.105469 531.75 L 720.105469 531.472656 C 720.136719 531.46875 720.175781 531.464844 720.21875 531.460938 C 720.257812 531.453125 720.285156 531.417969 720.28125 531.378906 C 720.273438 531.339844 720.234375 531.3125 720.199219 531.316406 C 720.199219 531.316406 719.898438 531.359375 719.867188 531.359375 C 719.828125 531.363281 719.796875 531.394531 719.796875 531.433594 C 719.796875 531.472656 719.832031 531.503906 719.871094 531.503906 C 719.875 531.503906 719.882812 531.503906 719.960938 531.492188 L 719.960938 531.804688 C 719.542969 531.960938 719.308594 532.089844 719.277344 532.1875 C 719.269531 532.222656 719.273438 532.261719 719.300781 532.289062 C 719.414062 532.429688 719.554688 532.460938 719.65625 532.460938 C 719.726562 532.460938 719.777344 532.445312 719.78125 532.445312 C 719.820312 532.433594 719.84375 532.394531 719.832031 532.355469 C 719.820312 532.316406 719.78125 532.296875 719.742188 532.308594 C 719.738281 532.308594 719.554688 532.359375 719.425781 532.21875 C 719.46875 532.167969 719.648438 532.078125 719.960938 531.957031 L 719.960938 533.035156 C 719.960938 533.074219 719.992188 533.105469 720.03125 533.105469 L 721.117188 533.105469 C 721.15625 533.105469 721.1875 533.074219 721.1875 533.035156 C 721.1875 532.996094 721.15625 532.964844 721.117188 532.964844 L 720.511719 532.964844 L 720.511719 532.136719 C 720.511719 532.097656 720.480469 532.0625 720.4375 532.0625 C 720.398438 532.0625 720.367188 532.097656 720.367188 532.136719 L 720.367188 532.964844 L 720.105469 532.964844 L 720.105469 531.902344 C 720.390625 531.796875 720.765625 531.671875 721.238281 531.535156 L 721.265625 531.527344 C 721.304688 531.515625 721.324219 531.472656 721.3125 531.4375 C 721.296875 531.398438 721.257812 531.378906 721.21875 531.390625 Z M 721.21875 531.390625 " fill-opacity="1" fill-rule="nonzero"/><path fill="#eab750" d="M 723.886719 531.964844 C 723.863281 531.941406 723.824219 531.941406 723.800781 531.964844 L 723.699219 532.070312 C 723.640625 531.945312 723.511719 531.867188 723.503906 531.863281 C 723.472656 531.847656 723.4375 531.859375 723.417969 531.886719 C 723.402344 531.917969 723.414062 531.953125 723.441406 531.96875 C 723.445312 531.96875 723.59375 532.058594 723.601562 532.183594 C 723.59375 532.21875 723.550781 532.347656 723.445312 532.398438 C 723.382812 532.429688 723.207031 532.363281 723.082031 532.3125 C 722.964844 532.269531 722.863281 532.230469 722.789062 532.230469 C 722.703125 532.230469 722.605469 532.277344 722.503906 532.328125 C 722.394531 532.382812 722.273438 532.441406 722.164062 532.441406 C 721.96875 532.441406 721.828125 532.292969 721.824219 532.289062 C 721.800781 532.265625 721.761719 532.265625 721.738281 532.285156 C 721.710938 532.308594 721.710938 532.347656 721.734375 532.371094 C 721.742188 532.378906 721.914062 532.5625 722.164062 532.5625 C 722.304688 532.5625 722.441406 532.496094 722.558594 532.4375 C 722.648438 532.394531 722.730469 532.351562 722.789062 532.351562 C 722.839844 532.351562 722.941406 532.390625 723.035156 532.425781 C 723.210938 532.492188 723.386719 532.5625 723.5 532.507812 C 723.648438 532.4375 723.707031 532.273438 723.722656 532.21875 L 723.890625 532.050781 C 723.914062 532.027344 723.914062 531.988281 723.886719 531.964844 Z M 723.886719 531.964844 " fill-opacity="1" fill-rule="nonzero"/><path fill="#eab750" d="M 724.75 531.5 C 724.703125 531.5 724.660156 531.542969 724.660156 531.597656 L 724.660156 532.855469 C 724.660156 532.910156 724.703125 532.953125 724.75 532.953125 C 724.800781 532.953125 724.839844 532.910156 724.839844 532.855469 L 724.839844 531.597656 C 724.839844 531.542969 724.800781 531.5 724.75 531.5 Z M 724.75 531.5 " fill-opacity="1" fill-rule="nonzero"/><path fill="#eab750" d="M 726.753906 531.5 L 725.878906 531.5 C 725.832031 531.5 725.792969 531.542969 725.792969 531.597656 L 725.792969 532.855469 C 725.792969 532.910156 725.832031 532.953125 725.878906 532.953125 C 725.929688 532.953125 725.96875 532.910156 725.96875 532.855469 L 725.96875 531.695312 L 726.667969 531.695312 L 726.667969 532.855469 C 726.667969 532.910156 726.707031 532.953125 726.753906 532.953125 C 726.804688 532.953125 726.84375 532.910156 726.84375 532.855469 L 726.84375 531.597656 C 726.84375 531.542969 726.804688 531.5 726.753906 531.5 Z M 726.753906 531.5 " fill-opacity="1" fill-rule="nonzero"/><path fill="#eab750" d="M 729.148438 531.304688 C 729.070312 531.265625 728.914062 531.222656 728.824219 531.316406 C 728.796875 531.34375 728.785156 531.375 728.789062 531.414062 C 728.796875 531.484375 728.859375 531.558594 728.917969 531.613281 C 728.03125 531.816406 727.566406 532.59375 727.542969 532.628906 C 727.535156 532.648438 727.535156 532.671875 727.542969 532.6875 C 727.554688 532.707031 727.574219 532.71875 727.597656 532.71875 C 727.613281 532.71875 727.796875 532.71875 728.003906 532.699219 L 728.027344 533.0625 C 728.03125 533.097656 728.058594 533.121094 728.089844 533.121094 L 728.285156 533.121094 C 728.320312 533.121094 728.347656 533.09375 728.347656 533.058594 C 728.347656 533.027344 728.320312 533 728.285156 533 L 728.148438 533 L 728.125 532.691406 C 728.214844 532.679688 728.300781 532.667969 728.375 532.652344 L 728.402344 533.066406 C 728.40625 533.097656 728.433594 533.121094 728.464844 533.121094 L 728.660156 533.121094 C 728.695312 533.121094 728.722656 533.09375 728.722656 533.0625 C 728.722656 533.027344 728.695312 533 728.660156 533 L 728.523438 533 L 728.496094 532.609375 C 728.765625 532.4375 729.066406 531.746094 729.101562 531.664062 C 729.113281 531.636719 729.105469 531.605469 729.082031 531.589844 C 728.980469 531.519531 728.90625 531.429688 728.914062 531.402344 C 728.953125 531.359375 729.058594 531.398438 729.09375 531.414062 C 729.121094 531.429688 729.160156 531.417969 729.175781 531.390625 C 729.191406 531.359375 729.179688 531.320312 729.148438 531.304688 Z M 728.394531 532.519531 C 728.214844 532.570312 727.886719 532.589844 727.714844 532.59375 C 727.863281 532.386719 728.28125 531.890625 728.933594 531.730469 C 728.785156 532.054688 728.546875 532.476562 728.394531 532.519531 Z M 728.394531 532.519531 " fill-opacity="1" fill-rule="nonzero"/><path fill="#eab750" d="M 731.414062 532.851562 C 731.390625 532.835938 731.359375 532.839844 731.34375 532.867188 C 731.34375 532.867188 731.304688 532.898438 731.101562 532.96875 C 730.992188 533.011719 730.898438 533.011719 730.828125 532.976562 C 730.765625 532.945312 730.722656 532.886719 730.699219 532.796875 C 730.648438 532.609375 730.671875 532.308594 730.675781 532.242188 L 730.679688 532.242188 C 730.710938 532.238281 730.730469 532.214844 730.726562 532.1875 C 730.722656 532.15625 730.695312 532.136719 730.667969 532.140625 L 730.511719 532.160156 C 730.519531 532.136719 730.527344 532.117188 730.53125 532.09375 C 730.566406 531.972656 730.523438 531.84375 730.460938 531.726562 C 730.550781 531.722656 730.679688 531.738281 730.746094 531.863281 C 730.867188 532.089844 730.859375 532.289062 730.859375 532.289062 C 730.859375 532.320312 730.882812 532.34375 730.910156 532.34375 C 730.910156 532.34375 730.910156 532.34375 730.914062 532.34375 C 730.941406 532.34375 730.964844 532.324219 730.964844 532.292969 C 730.964844 532.285156 730.972656 532.066406 730.839844 531.816406 C 730.742188 531.632812 730.542969 531.609375 730.402344 531.628906 C 730.375 531.585938 730.351562 531.546875 730.328125 531.515625 C 730.308594 531.492188 730.289062 531.460938 730.28125 531.445312 C 730.304688 531.410156 730.417969 531.34375 730.484375 531.34375 C 730.492188 531.359375 730.472656 531.414062 730.445312 531.457031 C 730.429688 531.484375 730.4375 531.515625 730.464844 531.527344 C 730.488281 531.542969 730.519531 531.535156 730.535156 531.511719 C 730.554688 531.476562 730.617188 531.367188 730.582031 531.296875 C 730.566406 531.269531 730.535156 531.25 730.5 531.246094 C 730.414062 531.238281 730.289062 531.292969 730.222656 531.351562 C 730.1875 531.382812 730.171875 531.414062 730.171875 531.445312 C 730.171875 531.472656 730.191406 531.503906 730.238281 531.574219 C 730.257812 531.597656 730.277344 531.625 730.296875 531.65625 C 730.253906 531.683594 730.160156 531.75 730.113281 531.886719 C 730.054688 532.050781 730.082031 532.316406 730.085938 532.324219 C 730.085938 532.351562 730.109375 532.371094 730.136719 532.371094 C 730.136719 532.371094 730.140625 532.371094 730.144531 532.371094 C 730.171875 532.367188 730.191406 532.34375 730.191406 532.316406 C 730.1875 532.3125 730.160156 532.0625 730.214844 531.917969 C 730.257812 531.804688 730.335938 531.753906 730.351562 531.746094 C 730.410156 531.847656 730.457031 531.96875 730.429688 532.066406 C 730.421875 532.105469 730.410156 532.136719 730.398438 532.171875 L 730.335938 532.179688 C 730.308594 532.183594 730.285156 532.207031 730.289062 532.238281 C 730.292969 532.261719 730.316406 532.28125 730.34375 532.28125 C 730.34375 532.28125 730.347656 532.28125 730.347656 532.28125 L 730.359375 532.28125 C 730.351562 532.296875 730.34375 532.316406 730.339844 532.332031 C 730.296875 532.4375 730.261719 532.53125 730.246094 532.648438 C 730.222656 532.84375 730.277344 533.042969 730.277344 533.050781 C 730.285156 533.074219 730.304688 533.089844 730.328125 533.089844 C 730.335938 533.089844 730.339844 533.089844 730.34375 533.089844 C 730.371094 533.082031 730.386719 533.054688 730.382812 533.027344 C 730.378906 533.023438 730.332031 532.839844 730.351562 532.660156 C 730.367188 532.558594 730.398438 532.46875 730.441406 532.367188 C 730.453125 532.335938 730.464844 532.300781 730.476562 532.265625 L 730.570312 532.257812 C 730.5625 532.355469 730.546875 532.632812 730.597656 532.820312 C 730.628906 532.941406 730.691406 533.023438 730.78125 533.066406 C 730.828125 533.089844 730.882812 533.105469 730.941406 533.105469 C 731.003906 533.105469 731.070312 533.089844 731.140625 533.066406 C 731.402344 532.972656 731.421875 532.9375 731.429688 532.925781 C 731.445312 532.902344 731.441406 532.867188 731.414062 532.851562 Z M 731.414062 532.851562 " fill-opacity="1" fill-rule="nonzero"/><g clip-path="url(#0d16acfe96)"><path fill="#eab750" d="M 715.882812 534.652344 C 715.871094 534.644531 715.570312 534.394531 715.289062 534.546875 C 715.171875 534.609375 715.058594 534.746094 714.941406 534.890625 C 714.804688 535.054688 714.664062 535.226562 714.523438 535.269531 C 714.226562 535.351562 713.847656 535.671875 713.832031 535.683594 C 713.8125 535.699219 713.804688 535.722656 713.8125 535.746094 C 713.820312 535.769531 713.835938 535.785156 713.859375 535.789062 C 713.910156 535.800781 714.160156 535.84375 714.421875 535.859375 L 714.449219 536.25 C 714.449219 536.28125 714.476562 536.308594 714.511719 536.308594 L 714.707031 536.308594 C 714.742188 536.308594 714.765625 536.28125 714.765625 536.246094 C 714.765625 536.214844 714.738281 536.1875 714.707031 536.1875 L 714.566406 536.1875 L 714.542969 535.867188 C 714.558594 535.867188 714.574219 535.867188 714.585938 535.867188 C 714.664062 535.867188 714.730469 535.863281 714.796875 535.851562 L 714.824219 536.25 C 714.824219 536.285156 714.851562 536.308594 714.886719 536.308594 L 715.082031 536.308594 C 715.117188 536.308594 715.140625 536.28125 715.140625 536.246094 C 715.140625 536.214844 715.113281 536.1875 715.082031 536.1875 L 714.941406 536.1875 L 714.917969 535.828125 C 714.953125 535.8125 714.988281 535.796875 715.011719 535.777344 C 715.148438 535.652344 715.3125 535.296875 715.429688 535.039062 C 715.472656 534.941406 715.523438 534.832031 715.539062 534.8125 C 715.5625 534.785156 715.707031 534.761719 715.839844 534.761719 C 715.867188 534.761719 715.890625 534.746094 715.898438 534.722656 C 715.910156 534.695312 715.902344 534.671875 715.882812 534.652344 Z M 715.449219 534.730469 C 715.421875 534.761719 715.386719 534.835938 715.316406 534.988281 C 715.210938 535.226562 715.050781 535.582031 714.929688 535.6875 C 714.820312 535.785156 714.355469 535.75 714.015625 535.695312 C 714.148438 535.59375 714.375 535.4375 714.558594 535.386719 C 714.734375 535.335938 714.890625 535.148438 715.039062 534.964844 C 715.148438 534.832031 715.25 534.703125 715.347656 534.652344 C 715.449219 534.597656 715.558594 534.617188 715.644531 534.652344 C 715.5625 534.664062 715.484375 534.6875 715.449219 534.730469 Z M 715.449219 534.730469 " fill-opacity="1" fill-rule="nonzero"/></g><path fill="#eab750" d="M 729.351562 535.214844 L 729.164062 535.214844 C 729.128906 535.144531 729.027344 535.003906 728.789062 534.960938 C 728.488281 534.910156 727.546875 535.203125 727.503906 535.214844 C 727.472656 535.226562 727.453125 535.261719 727.464844 535.292969 C 727.472656 535.320312 727.5 535.335938 727.523438 535.335938 C 727.53125 535.335938 727.539062 535.335938 727.542969 535.332031 C 727.558594 535.328125 727.582031 535.320312 727.601562 535.316406 C 727.679688 535.386719 727.9375 535.59375 728.3125 535.613281 C 728.328125 535.613281 728.34375 535.613281 728.355469 535.613281 C 728.738281 535.613281 729.070312 535.390625 729.144531 535.335938 L 729.351562 535.335938 C 729.386719 535.335938 729.414062 535.308594 729.414062 535.273438 C 729.414062 535.242188 729.386719 535.214844 729.351562 535.214844 Z M 728.316406 535.492188 C 728.050781 535.480469 727.847656 535.355469 727.742188 535.273438 C 727.898438 535.230469 728.089844 535.175781 728.273438 535.136719 C 728.25 535.21875 728.222656 535.386719 728.375 535.398438 C 728.535156 535.414062 728.613281 535.179688 728.636719 535.078125 C 728.6875 535.078125 728.734375 535.074219 728.765625 535.082031 C 728.9375 535.113281 729.015625 535.203125 729.046875 535.253906 C 728.945312 535.324219 728.640625 535.507812 728.316406 535.492188 Z M 728.316406 535.492188 " fill-opacity="1" fill-rule="nonzero"/><path fill="#eab750" d="M 718.53125 535.09375 L 717.261719 535.09375 C 717.257812 535.078125 717.246094 535.0625 717.230469 535.054688 C 717.007812 534.953125 716.53125 534.871094 716.332031 535.277344 C 716.238281 535.46875 716.230469 535.617188 716.300781 535.714844 C 716.359375 535.792969 716.464844 535.832031 716.617188 535.832031 C 716.664062 535.832031 716.71875 535.828125 716.777344 535.820312 C 717.039062 535.78125 717.214844 535.355469 717.269531 535.214844 L 718.53125 535.214844 C 718.5625 535.214844 718.589844 535.1875 718.589844 535.152344 C 718.589844 535.121094 718.5625 535.09375 718.53125 535.09375 Z M 716.761719 535.699219 C 716.574219 535.726562 716.445312 535.707031 716.398438 535.644531 C 716.355469 535.585938 716.371094 535.476562 716.445312 535.332031 C 716.535156 535.144531 716.695312 535.09375 716.84375 535.09375 C 716.925781 535.09375 717.003906 535.109375 717.066406 535.125 L 716.621094 535.402344 C 716.589844 535.417969 716.582031 535.457031 716.601562 535.484375 C 716.617188 535.515625 716.65625 535.523438 716.683594 535.503906 L 717.132812 535.230469 C 717.058594 535.402344 716.914062 535.675781 716.761719 535.699219 Z M 716.761719 535.699219 " fill-opacity="1" fill-rule="nonzero"/><g clip-path="url(#670e526481)"><path fill="#eab750" d="M 713.042969 534.449219 L 713.019531 534.457031 C 712.582031 534.585938 712.21875 534.703125 711.929688 534.808594 L 711.929688 534.53125 C 711.960938 534.527344 712 534.523438 712.042969 534.519531 C 712.082031 534.511719 712.109375 534.476562 712.101562 534.4375 C 712.097656 534.398438 712.058594 534.371094 712.023438 534.375 C 712.023438 534.375 711.722656 534.417969 711.691406 534.417969 C 711.652344 534.421875 711.621094 534.453125 711.621094 534.492188 C 711.621094 534.53125 711.652344 534.5625 711.691406 534.5625 C 711.695312 534.5625 711.703125 534.5625 711.785156 534.550781 L 711.785156 534.863281 C 711.367188 535.023438 711.132812 535.148438 711.101562 535.246094 C 711.089844 535.28125 711.097656 535.320312 711.121094 535.347656 C 711.234375 535.488281 711.378906 535.519531 711.480469 535.519531 C 711.550781 535.519531 711.601562 535.503906 711.605469 535.503906 C 711.644531 535.492188 711.667969 535.453125 711.65625 535.414062 C 711.644531 535.375 711.601562 535.355469 711.566406 535.367188 C 711.5625 535.367188 711.378906 535.417969 711.25 535.277344 C 711.292969 535.226562 711.46875 535.136719 711.785156 535.015625 L 711.785156 536.09375 C 711.785156 536.132812 711.816406 536.164062 711.855469 536.164062 L 712.941406 536.164062 C 712.980469 536.164062 713.011719 536.132812 713.011719 536.09375 C 713.011719 536.054688 712.980469 536.019531 712.941406 536.019531 L 712.335938 536.019531 L 712.335938 535.195312 C 712.335938 535.15625 712.300781 535.121094 712.261719 535.121094 C 712.222656 535.121094 712.191406 535.15625 712.191406 535.195312 L 712.191406 536.023438 L 711.929688 536.023438 L 711.929688 534.960938 C 712.214844 534.855469 712.589844 534.730469 713.0625 534.59375 L 713.089844 534.585938 C 713.128906 534.574219 713.148438 534.53125 713.136719 534.496094 C 713.121094 534.460938 713.082031 534.4375 713.042969 534.449219 Z M 713.042969 534.449219 " fill-opacity="1" fill-rule="nonzero"/></g><g clip-path="url(#5a47f8e242)"><path fill="#eab750" d="M 724.632812 534.558594 C 724.585938 534.558594 724.546875 534.601562 724.546875 534.65625 L 724.546875 535.914062 C 724.546875 535.96875 724.585938 536.011719 724.632812 536.011719 C 724.683594 536.011719 724.722656 535.96875 724.722656 535.914062 L 724.722656 534.65625 C 724.722656 534.601562 724.683594 534.558594 724.632812 534.558594 Z M 724.632812 534.558594 " fill-opacity="1" fill-rule="nonzero"/></g><g clip-path="url(#1a04db42b9)"><path fill="#eab750" d="M 726.636719 534.558594 L 725.761719 534.558594 C 725.714844 534.558594 725.675781 534.601562 725.675781 534.65625 L 725.675781 535.914062 C 725.675781 535.96875 725.714844 536.011719 725.761719 536.011719 C 725.8125 536.011719 725.851562 535.96875 725.851562 535.914062 L 725.851562 534.75 L 726.546875 534.75 L 726.546875 535.914062 C 726.546875 535.96875 726.589844 536.011719 726.636719 536.011719 C 726.6875 536.011719 726.726562 535.96875 726.726562 535.914062 L 726.726562 534.65625 C 726.726562 534.601562 726.6875 534.558594 726.636719 534.558594 Z M 726.636719 534.558594 " fill-opacity="1" fill-rule="nonzero"/></g><g clip-path="url(#0fc419a080)"><path fill="#eab750" d="M 721.167969 534.363281 C 721.089844 534.324219 720.933594 534.28125 720.839844 534.375 C 720.816406 534.402344 720.804688 534.433594 720.808594 534.472656 C 720.8125 534.539062 720.875 534.613281 720.933594 534.667969 C 720.046875 534.875 719.582031 535.652344 719.5625 535.6875 C 719.550781 535.707031 719.550781 535.726562 719.5625 535.746094 C 719.574219 535.765625 719.59375 535.777344 719.617188 535.777344 C 719.628906 535.777344 719.816406 535.773438 720.019531 535.757812 L 720.046875 536.121094 C 720.046875 536.152344 720.074219 536.179688 720.105469 536.179688 L 720.304688 536.179688 C 720.335938 536.179688 720.363281 536.152344 720.363281 536.117188 C 720.363281 536.085938 720.335938 536.058594 720.304688 536.058594 L 720.164062 536.058594 L 720.144531 535.75 C 720.234375 535.738281 720.320312 535.726562 720.394531 535.707031 L 720.421875 536.121094 C 720.421875 536.15625 720.449219 536.179688 720.484375 536.179688 L 720.679688 536.179688 C 720.714844 536.179688 720.742188 536.152344 720.742188 536.117188 C 720.742188 536.085938 720.710938 536.058594 720.679688 536.058594 L 720.539062 536.058594 L 720.511719 535.664062 C 720.78125 535.496094 721.082031 534.804688 721.121094 534.722656 C 721.128906 534.695312 721.121094 534.664062 721.097656 534.648438 C 721 534.578125 720.925781 534.484375 720.929688 534.460938 C 720.972656 534.417969 721.078125 534.457031 721.109375 534.472656 C 721.140625 534.488281 721.179688 534.476562 721.195312 534.445312 C 721.210938 534.417969 721.199219 534.378906 721.167969 534.363281 Z M 720.414062 535.578125 C 720.234375 535.628906 719.90625 535.648438 719.730469 535.652344 C 719.882812 535.445312 720.300781 534.949219 720.953125 534.789062 C 720.804688 535.109375 720.5625 535.535156 720.414062 535.578125 Z M 720.414062 535.578125 " fill-opacity="1" fill-rule="nonzero"/></g><g clip-path="url(#91e1b86bfb)"><path fill="#eab750" d="M 723.433594 535.910156 C 723.410156 535.894531 723.382812 535.898438 723.367188 535.925781 C 723.363281 535.925781 723.328125 535.957031 723.125 536.027344 C 723.011719 536.070312 722.917969 536.070312 722.847656 536.035156 C 722.789062 536.003906 722.742188 535.945312 722.71875 535.855469 C 722.667969 535.667969 722.691406 535.367188 722.699219 535.300781 L 722.703125 535.300781 C 722.730469 535.296875 722.75 535.273438 722.746094 535.246094 C 722.742188 535.214844 722.71875 535.199219 722.6875 535.199219 L 722.53125 535.21875 C 722.539062 535.195312 722.546875 535.175781 722.554688 535.152344 C 722.585938 535.03125 722.542969 534.902344 722.480469 534.785156 C 722.574219 534.78125 722.699219 534.800781 722.765625 534.921875 C 722.886719 535.148438 722.882812 535.347656 722.878906 535.347656 C 722.878906 535.378906 722.902344 535.402344 722.929688 535.402344 C 722.933594 535.402344 722.933594 535.402344 722.933594 535.402344 C 722.960938 535.402344 722.984375 535.382812 722.988281 535.355469 C 722.988281 535.34375 722.996094 535.125 722.863281 534.875 C 722.765625 534.695312 722.566406 534.667969 722.425781 534.6875 C 722.398438 534.644531 722.371094 534.609375 722.347656 534.574219 C 722.332031 534.550781 722.308594 534.519531 722.300781 534.503906 C 722.324219 534.472656 722.4375 534.402344 722.507812 534.402344 C 722.511719 534.417969 722.492188 534.472656 722.464844 534.519531 C 722.449219 534.542969 722.457031 534.574219 722.484375 534.589844 C 722.507812 534.601562 722.542969 534.59375 722.558594 534.570312 C 722.578125 534.539062 722.640625 534.425781 722.601562 534.355469 C 722.585938 534.328125 722.558594 534.308594 722.519531 534.308594 C 722.433594 534.296875 722.3125 534.355469 722.242188 534.414062 C 722.207031 534.445312 722.191406 534.472656 722.191406 534.503906 C 722.191406 534.535156 722.210938 534.566406 722.261719 534.632812 C 722.277344 534.65625 722.296875 534.683594 722.316406 534.714844 C 722.273438 534.742188 722.183594 534.8125 722.132812 534.945312 C 722.074219 535.113281 722.105469 535.375 722.105469 535.386719 C 722.109375 535.410156 722.132812 535.429688 722.15625 535.429688 C 722.160156 535.429688 722.164062 535.429688 722.164062 535.429688 C 722.191406 535.429688 722.214844 535.402344 722.210938 535.375 C 722.210938 535.371094 722.183594 535.125 722.234375 534.980469 C 722.277344 534.863281 722.355469 534.8125 722.371094 534.804688 C 722.433594 534.910156 722.480469 535.027344 722.453125 535.125 C 722.441406 535.164062 722.429688 535.199219 722.417969 535.230469 L 722.359375 535.238281 C 722.328125 535.242188 722.308594 535.269531 722.3125 535.296875 C 722.3125 535.320312 722.335938 535.339844 722.363281 535.339844 C 722.367188 535.339844 722.367188 535.339844 722.371094 535.339844 L 722.378906 535.339844 C 722.375 535.355469 722.367188 535.375 722.359375 535.390625 C 722.320312 535.5 722.28125 535.59375 722.269531 535.707031 C 722.246094 535.90625 722.296875 536.105469 722.300781 536.113281 C 722.304688 536.136719 722.328125 536.152344 722.351562 536.152344 C 722.355469 536.152344 722.359375 536.148438 722.363281 536.148438 C 722.394531 536.140625 722.410156 536.113281 722.402344 536.085938 C 722.402344 536.085938 722.351562 535.898438 722.375 535.71875 C 722.386719 535.617188 722.421875 535.527344 722.460938 535.425781 C 722.472656 535.394531 722.484375 535.359375 722.5 535.324219 L 722.59375 535.316406 C 722.585938 535.414062 722.566406 535.691406 722.617188 535.878906 C 722.652344 536 722.710938 536.082031 722.800781 536.125 C 722.847656 536.152344 722.902344 536.164062 722.960938 536.164062 C 723.023438 536.164062 723.089844 536.148438 723.164062 536.125 C 723.421875 536.03125 723.445312 535.996094 723.453125 535.984375 C 723.464844 535.960938 723.460938 535.925781 723.433594 535.910156 Z M 723.433594 535.910156 " fill-opacity="1" fill-rule="nonzero"/></g><g clip-path="url(#5e607e8932)"><path fill="#eab750" d="M 707.382812 530.753906 L 732.882812 530.753906 L 732.882812 530.914062 L 707.382812 530.914062 Z M 707.382812 530.753906 " fill-opacity="1" fill-rule="nonzero"/></g><path fill="#eab750" d="M 708.730469 533.574219 L 731.53125 533.574219 L 731.53125 533.730469 L 708.730469 533.730469 Z M 708.730469 533.574219 " fill-opacity="1" fill-rule="nonzero"/><g clip-path="url(#73bb1deed1)"><path fill="#eab750" d="M 710.359375 536.59375 L 729.429688 536.59375 L 729.429688 536.753906 L 710.359375 536.753906 Z M 710.359375 536.59375 " fill-opacity="1" fill-rule="nonzero"/></g></svg>